<?xml version="1.0" encoding="utf-8"?>
<!-- Generator: Adobe Illustrator 19.2.0, SVG Export Plug-In . SVG Version: 6.00 Build 0)  -->
<svg version="1.1" xmlns="http://www.w3.org/2000/svg" xmlns:xlink="http://www.w3.org/1999/xlink" x="0px" y="0px"
	 viewBox="0 0 873.3 200" style="enable-background:new 0 0 873.3 200;" xml:space="preserve">
<g id="R">
</g>
<g id="O">
</g>
<g id="N">
</g>
<g id="E">
</g>
<g id="K">
	<g>
		<polygon points="865.2,0.3 793.2,116.6 782.3,116.6 854.3,0.3 		"/>
		<rect x="759.6" y="105.7" width="33.6" height="10.9"/>
		<polygon points="716.2,5.6 854.3,198.9 843.4,198.9 705.3,5.6 		"/>
		<rect x="759.6" y="0.2" width="10.9" height="198.7"/>
		<polyline points="860.1,198.9 868.2,198.9 733.7,10.4 725.7,10.4 		"/>
		<rect x="701" y="0.2" width="157.1" height="10.9"/>
		<rect x="527.6" y="0.2" width="153.3" height="10.9"/>
		<polygon points="542,5.6 680.9,198.9 670,198.9 531.1,5.6 		"/>
		<rect x="587" y="105.7" width="93.9" height="10.9"/>
		<rect x="587" width="10.9" height="116.6"/>
		<polygon points="542,5.6 680.9,198.9 670,198.9 531.1,5.6 		"/>
		<polyline points="686.8,198.9 694.9,198.9 560.4,10.4 552.4,10.4 		"/>
		<rect x="670" y="0.2" width="10.9" height="198.7"/>
		<polygon points="410.9,105.7 439.1,105.7 447.8,116.6 410.9,116.6 		"/>
		<rect x="352.3" y="0.2" width="69.7" height="10.9"/>
		<polygon points="367.8,5.6 507.2,198.9 496.3,198.9 356.9,5.6 		"/>
		<rect x="411.2" y="0.3" width="10.9" height="198.7"/>
		<rect x="486.3" y="0.3" width="10.9" height="185.4"/>
		<polyline points="515.1,200 523.1,200 388.7,11.5 380.6,11.5 		"/>
		<rect x="237.2" y="105.7" width="95.2" height="10.9"/>
		<polygon points="190.3,0.3 332.4,199.1 321.6,199.1 179.4,0.3 		"/>
		<rect x="178.3" y="0.2" width="154.1" height="10.9"/>
		<rect x="237.2" y="0.2" width="10.9" height="198.7"/>
		<polyline points="340,198.9 348.1,198.9 213.6,10.4 205.5,10.4 		"/>
		<rect x="63.2" y="0.2" width="10.9" height="198.7"/>
		<polyline points="165.7,198.9 173.8,198.9 39.3,10.4 31.3,10.4 		"/>
		<polygon points="16.1,0.3 158.2,199.1 147.4,199.1 5.2,0.3 		"/>
		<rect x="5.2" y="0.2" width="68.9" height="10.9"/>
		<polygon points="152,0.3 98.9,116.6 88,116.6 141.1,0.3 		"/>
		<rect x="63.2" y="105.7" width="35.6" height="10.9"/>
	</g>
</g>
</svg>
