<?xml version="1.0" encoding="utf-8"?>
<!-- Generator: Adobe Illustrator 19.2.0, SVG Export Plug-In . SVG Version: 6.00 Build 0)  -->
<svg version="1.1" id="Layer_1" xmlns="http://www.w3.org/2000/svg" xmlns:xlink="http://www.w3.org/1999/xlink" x="0px" y="0px"
	 viewBox="0 0 2500 1000" style="enable-background:new 0 0 2500 1000;" xml:space="preserve">
<g id="R">
</g>
<g id="O">
</g>
<g id="N">
</g>
<g id="E">
</g>
<g id="K">
	<g>
		<polygon points="1764.2,380.4 1677.8,519.9 1664.7,519.9 1751.1,380.4 		"/>
		<rect x="1637.5" y="506.8" width="40.3" height="13.1"/>
		<polygon points="1585.4,386.7 1751.1,618.7 1738,618.7 1572.3,386.7 		"/>
		<rect x="1637.5" y="380.2" width="13.1" height="238.4"/>
		<polyline points="1758.1,618.7 1767.8,618.7 1606.4,392.5 1596.8,392.5 		"/>
		<rect x="1567.2" y="380.2" width="188.5" height="13.1"/>
		<rect x="1359.1" y="380.2" width="184" height="13.1"/>
		<polygon points="1376.4,386.7 1543,618.7 1530,618.7 1363.3,386.7 		"/>
		<rect x="1430.4" y="506.8" width="112.7" height="13.1"/>
		<rect x="1430.4" y="380" width="13.1" height="139.9"/>
		<polygon points="1376.4,386.7 1543,618.7 1530,618.7 1363.3,386.7 		"/>
		<polyline points="1550.1,618.7 1559.8,618.7 1398.4,392.5 1388.8,392.5 		"/>
		<rect x="1530" y="380.2" width="13.1" height="238.4"/>
		<polygon points="1219,506.8 1252.9,506.8 1263.3,519.9 1219,519.9 		"/>
		<rect x="1148.7" y="380.2" width="83.6" height="13.1"/>
		<polygon points="1167.3,386.7 1334.6,618.7 1321.5,618.7 1154.2,386.7 		"/>
		<rect x="1219.4" y="380.4" width="13.1" height="238.4"/>
		<rect x="1309.5" y="380.4" width="13.1" height="222.5"/>
		<polyline points="1344.1,620 1353.7,620 1192.4,393.8 1182.7,393.8 		"/>
		<rect x="1010.6" y="506.8" width="114.2" height="13.1"/>
		<polygon points="954.3,380.4 1124.8,618.9 1111.9,618.9 941.2,380.4 		"/>
		<rect x="939.9" y="380.2" width="184.9" height="13.1"/>
		<rect x="1010.6" y="380.2" width="13.1" height="238.4"/>
		<polyline points="1134,618.7 1143.7,618.7 982.3,392.5 972.6,392.5 		"/>
		<rect x="801.8" y="380.2" width="13.1" height="238.4"/>
		<polyline points="924.8,618.7 934.5,618.7 773.1,392.5 763.5,392.5 		"/>
		<polygon points="745.3,380.4 915.8,618.9 902.8,618.9 732.2,380.4 		"/>
		<rect x="732.2" y="380.2" width="82.7" height="13.1"/>
		<polygon points="908.4,380.4 844.6,519.9 831.6,519.9 895.3,380.4 		"/>
		<rect x="801.8" y="506.8" width="42.7" height="13.1"/>
	</g>
</g>
</svg>
