<?xml version="1.0" encoding="utf-8"?>
<!-- Generator: Adobe Illustrator 19.2.0, SVG Export Plug-In . SVG Version: 6.00 Build 0)  -->
<svg version="1.1" id="Layer_1" xmlns="http://www.w3.org/2000/svg" xmlns:xlink="http://www.w3.org/1999/xlink" x="0px" y="0px"
	 viewBox="0 0 258.8 200" style="enable-background:new 0 0 258.8 200;" xml:space="preserve">
<style type="text/css">
	.st0{enable-background:new    ;}
	.st1{fill:#9E9E9E;}
</style>
<g>
	<g class="st0">
		<path d="M177.1,199.8L137,64.7c-3.1-10.6-5-21.6-6.2-26.9h-1.7c-2,9.8-3.6,15.7-7.6,28.3L79.3,199.8h-42L104,0.2h54.4l63.1,199.5
			H177.1z"/>
	</g>
	<g class="st0">
		<path class="st1" d="M77.7,115.8h12.6v3.1h-8.5v5.2h8.2v3.1h-8.2v7.9h-4.1V115.8z"/>
	</g>
	<g class="st0">
		<path class="st1" d="M102.3,127.1h-3v8h-4.1v-19.3h8.1c4.2,0,6.1,2.3,6.1,5.6c0,2.7-1.4,4-3.3,4.9l4.4,8.8h-4.6L102.3,127.1z
			 M102.4,124.1c1.8,0,2.9-0.7,2.9-2.7c0-2-0.9-2.6-2.5-2.6h-3.6v5.3H102.4z"/>
	</g>
	<g class="st0">
		<path class="st1" d="M117.5,139.3v-1.7h16.7v1.7H117.5z"/>
	</g>
	<g class="st0">
		<path class="st1" d="M145.5,122.5c-0.4-1.3-0.9-3.1-1-3.7h-0.2c0,0.7,0.1,1.4,0.1,2.1v14.2h-3.7v-19.3h6.3l3.6,10.7
			c0.4,1.1,0.7,2.7,0.8,3.4h0.2c0.1-0.6,0.5-2.3,0.8-3.4l3.6-10.7h6.3v19.3h-3.7v-14.2c0-0.7,0-1.4,0.1-2.1h-0.2
			c-0.1,0.6-0.5,2.4-1,3.7l-4.3,12.6h-3.2L145.5,122.5z"/>
	</g>
	<g class="st0">
		<path class="st1" d="M167.6,115.8h12.5v3.1h-8.5v4.7h8v3.1h-8v5.3h8.7v3.1h-12.8V115.8z"/>
	</g>
</g>
</svg>
