<?xml version="1.0" encoding="utf-8"?>
<!-- Generator: Adobe Illustrator 19.2.0, SVG Export Plug-In . SVG Version: 6.00 Build 0)  -->
<svg version="1.1" id="Layer_1" xmlns="http://www.w3.org/2000/svg" xmlns:xlink="http://www.w3.org/1999/xlink" x="0px" y="0px"
	 viewBox="0 0 2500 1000" style="enable-background:new 0 0 2500 1000;" xml:space="preserve">
<style type="text/css">
	.st0{enable-background:new    ;}
	.st1{fill:#9E9E9E;}
</style>
<g>
	<g class="st0">
		<path d="M1333.6,675l-70.3-236.9c-5.4-18.6-8.8-37.9-10.9-47.2h-3c-3.5,17.2-6.3,27.5-13.3,49.6l-74,234.4h-73.6l117-350h95.4
			l110.6,349.8h-77.9V675z"/>
	</g>
	<g class="st0">
		<path class="st1" d="M1159.3,527.7h22.1v5.4h-14.9v9.1h14.4v5.4h-14.4v13.9h-7.2V527.7z"/>
	</g>
	<g class="st0">
		<path class="st1" d="M1202.5,547.5h-5.3v14h-7.2v-33.8h14.2c7.4,0,10.7,4,10.7,9.8c0,4.7-2.5,7-5.8,8.6l7.7,15.4h-8.1
			L1202.5,547.5z M1202.7,542.3c3.2,0,5.1-1.2,5.1-4.7s-1.6-4.6-4.4-4.6h-6.3v9.3C1197,542.3,1202.7,542.3,1202.7,542.3z"/>
	</g>
	<g class="st0">
		<path class="st1" d="M1229.1,568.9v-3h29.3v3H1229.1z"/>
	</g>
	<g class="st0">
		<path class="st1" d="M1278.2,539.5c-0.7-2.3-1.6-5.4-1.8-6.5h-0.4c0,1.2,0.2,2.5,0.2,3.7v24.9h-6.5v-33.8h11l6.3,18.8
			c0.7,1.9,1.2,4.7,1.4,6h0.4c0.2-1.1,0.9-4,1.4-6l6.3-18.8h11v33.8h-6.5v-24.9c0-1.2,0-2.5,0.2-3.7h-0.4c-0.2,1.1-0.9,4.2-1.8,6.5
			l-7.5,22.1h-5.6L1278.2,539.5z"/>
	</g>
	<g class="st0">
		<path class="st1" d="M1317,527.7h21.9v5.4H1324v8.2h14v5.4h-14v9.3h15.3v5.4h-22.4v-33.8H1317z"/>
	</g>
</g>
</svg>
