<?xml version="1.0" encoding="utf-8"?>
<!-- Generator: Adobe Illustrator 19.2.0, SVG Export Plug-In . SVG Version: 6.00 Build 0)  -->
<svg version="1.1" id="Layer_1" xmlns="http://www.w3.org/2000/svg" xmlns:xlink="http://www.w3.org/1999/xlink" x="0px" y="0px"
	 viewBox="0 0 258.8 200" style="enable-background:new 0 0 258.8 200;" xml:space="preserve">
<style type="text/css">
	.st0{display:none;enable-background:new    ;}
	.st1{display:inline;}
	.st2{enable-background:new    ;}
	.st3{fill:#FFFFFF;}
	.st4{display:inline;fill:#FFFFFF;}
</style>
<g>
	<g class="st0">
		<path class="st1" d="M177.1,199.8L137,64.7c-3.1-10.6-5-21.6-6.2-26.9h-1.7c-2,9.8-3.6,15.7-7.6,28.3L79.3,199.8h-42L104,0.2h54.4
			l63.1,199.5H177.1z"/>
	</g>
	<g id="A">
		<path d="M102.8,118.8h-3.6v5.3h3.1c0.3,0,0.6,0,0.9-0.1l1.4-4.5C104.3,119,103.6,118.8,102.8,118.8z"/>
		<path d="M158.3,0.2H104L37.3,199.8h42l23-72.7l0,0h-3v8h-4.1v-19.3h8.1c1,0,1.8,0.1,2.5,0.4l23.4-78.3h1.7l23.1,83.9l2-5.9h6.3
			v19.3h-3.7v-14.2c0-0.7,0-1.4,0.1-2.1h-0.2c-0.1,0.6-0.5,2.4-1,3.7l-1.7,4.9l21.5,72.4h44.3L158.3,0.2z"/>
	</g>
	<g class="st2">
		<path class="st3" d="M167.6,115.8h12.5v3.1h-8.5v4.7h8v3.1h-8v5.3h8.7v3.1h-12.8V115.8z"/>
	</g>
	<g id="F" class="st2">
		<path class="st3" d="M77.7,115.8h12.6v3.1h-8.5v5.2h8.2v3.1h-8.2v7.9h-4.1V115.8z"/>
	</g>
	<g id="R" class="st2">
		<path d="M102.3,127.1c0,0,3.5-11,3.5-11c2.4,0.8,3.6,2.7,3.6,5.3c0,2.7-1.4,4-3.3,4.9l4.4,8.8h-4.6L102.3,127.1z M102.4,124.1
			c0.3,0,0.6,0,0.9-0.1c1.3-0.2,2-1,2-2.6c0-0.9-0.2-1.5-0.6-1.9c-0.4-0.5-1.1-0.7-1.9-0.7h-3.6v5.3H102.4z"/>
	</g>
	<g id="underscore" class="st0">
		<path class="st4" d="M117.5,139.3v-1.7h16.7v1.7H117.5z"/>
	</g>
	<g class="st2">
		<path d="M145.5,122.5c-0.4-1.3-0.9-3.1-1-3.7h-0.2c0,0.7,0.1,1.4,0.1,2.1v14.2h-3.7v-19.3h6.3l3.6,10.7c0.4,1.1,0.7,2.7,0.8,3.4
			h0.2c0.1-0.6,0.5-2.3,0.8-3.4l1.6-4.9l1.7,5.7l-2.6,7.7h-3.2L145.5,122.5z"/>
	</g>
	<g class="st0">
		<path class="st1" d="M167.6,115.8h12.5v3.1h-8.5v4.7h8v3.1h-8v5.3h8.7v3.1h-12.8V115.8z"/>
	</g>
	<g class="st0">
		<path class="st1" d="M77.7,115.8h12.6v3.1h-8.5v5.2h8.2v3.1h-8.2v7.9h-4.1V115.8z"/>
	</g>
	<g id="underscore_1_" class="st2">
		<path d="M117.5,139.3v-1.7h16.7v1.7H117.5z"/>
	</g>
</g>
</svg>
