<?xml version="1.0" encoding="utf-8"?>
<!-- Generator: Adobe Illustrator 19.2.0, SVG Export Plug-In . SVG Version: 6.00 Build 0)  -->
<svg version="1.1" id="Layer_1" xmlns="http://www.w3.org/2000/svg" xmlns:xlink="http://www.w3.org/1999/xlink" x="0px" y="0px"
	 viewBox="0 0 2500 1000" style="enable-background:new 0 0 2500 1000;" xml:space="preserve">
<style type="text/css">
	.st0{fill:#FFFFFF;}
	.st1{fill:none;}
</style>
<g>
	<g>
		<polygon points="1250,490.4 1154.6,458.7 1059.6,490.9 1155,522.6 		"/>
	</g>
	<g>
		<polygon points="1250,490.4 1205.1,400.7 1115,356.2 1159.9,446 		"/>
	</g>
	<g>
		<polygon points="1250,490.4 1281.7,395 1249.5,300 1217.8,395.2 		"/>
	</g>
	<g>
		<polygon points="1250,490.4 1160.3,535.4 1115.8,625.4 1205.5,580.5 		"/>
	</g>
	<g>
		<polygon points="1250,490.4 1294.9,580.1 1385,624.6 1340.1,534.9 		"/>
	</g>
	<g>
		<polygon points="1250,490.4 1345.2,522 1440.4,489.8 1345,458.2 		"/>
	</g>
	<g>
		<polygon points="1250,490.4 1339.7,445.5 1384.2,355.4 1294.5,400.4 		"/>
	</g>
	<g>
		<path class="st0" d="M1154.8,515.1l-72.7-24.2l72.5-24.6l72.7,24.2L1154.8,515.1z M1108.1,490.7l46.7,15.6l46.7-15.8l-46.7-15.6
			L1108.1,490.7z"/>
	</g>
	<g>
		<path class="st0" d="M1234.1,474.5l-68.8-33.8L1131,372l68.6,34L1234.1,474.5z M1171.4,434.4l44.3,21.9l-22.1-44.1l-44.3-21.7
			L1171.4,434.4z"/>
	</g>
	<g>
		<path class="st0" d="M1250,467.9l-24.6-72.5l24.2-72.7l24.6,72.5L1250,467.9z M1234.1,395.2l15.8,46.7l15.6-46.7l-15.8-46.7
			L1234.1,395.2z"/>
	</g>
	<g>
		<path class="st0" d="M1131.6,609.5l34-68.6l68.5-34.3l-34,68.6L1131.6,609.5z M1171.7,546.8l-21.9,44.1l44.1-21.9l21.9-44.1
			L1171.7,546.8z"/>
	</g>
	<g>
		<polygon points="1249.4,583.9 1230,642 1249.7,700 1269,641.8 		"/>
	</g>
	<g>
		<path class="st0" d="M1369,608.7l-68.8-34l-34.3-68.5l68.6,34L1369,608.7z M1306.4,568.7l44.1,21.9l-22.1-44.1l-44.1-21.9
			L1306.4,568.7z"/>
	</g>
	<g>
		<path class="st0" d="M1345.2,514.6l-72.7-24.2l72.5-24.6l72.7,24.2L1345.2,514.6z M1298.5,490.3l46.7,15.6l46.7-15.8l-46.7-15.6
			L1298.5,490.3z"/>
	</g>
	<g>
		<path class="st0" d="M1265.9,474.5l34-68.6l68.3-34.5l-33.8,68.8L1265.9,474.5z M1305.9,411.8l-21.9,44.1l44.1-22.1l21.9-44.1
			L1305.9,411.8z"/>
	</g>
</g>
<rect x="0" class="st1" width="2500" height="1000"/>
</svg>
