<?xml version="1.0" encoding="utf-8"?>
<!-- Generator: Adobe Illustrator 19.2.0, SVG Export Plug-In . SVG Version: 6.00 Build 0)  -->
<svg version="1.1" id="Layer_1" xmlns="http://www.w3.org/2000/svg" xmlns:xlink="http://www.w3.org/1999/xlink" x="0px" y="0px"
	 viewBox="0 0 258.8 200" style="enable-background:new 0 0 258.8 200;" xml:space="preserve">
<style type="text/css">
	.st0{fill:#CBAE50;}
	.st1{fill:#FFFFFF;}
</style>
<g>
	<g>
		<polygon class="st0" points="129.7,95.1 82.1,79.2 34.6,95.3 82.2,111.1 		"/>
	</g>
	<g>
		<polygon class="st0" points="129.7,95.1 107.2,50.2 62.3,28 84.7,72.9 		"/>
	</g>
	<g>
		<polygon class="st0" points="129.7,95 145.5,47.5 129.4,0 113.6,47.6 		"/>
	</g>
	<g>
		<polygon class="st0" points="129.7,95.1 84.8,117.5 62.7,162.5 107.5,140 		"/>
	</g>
	<g>
		<polygon class="st0" points="129.7,95.1 152.1,139.9 197.1,162.1 174.6,117.3 		"/>
	</g>
	<g>
		<polygon class="st0" points="129.7,95.1 177.2,110.9 224.7,94.8 177.1,79 		"/>
	</g>
	<g>
		<polygon class="st0" points="129.7,95.1 174.5,72.6 196.7,27.7 151.9,50.1 		"/>
	</g>
	<g>
		<path class="st1" d="M82.2,107.4L45.9,95.3L82.1,83l36.3,12.1L82.2,107.4z M58.8,95.3l23.4,7.8l23.3-7.9l-23.4-7.8L58.8,95.3z"/>
	</g>
	<g>
		<path class="st1" d="M121.7,87.1L87.4,70.2L70.3,36l34.3,16.9L121.7,87.1z M90.4,67.1L112.5,78l-11-22L79.4,45.1L90.4,67.1z"/>
	</g>
	<g>
		<path class="st1" d="M129.6,83.8l-12.3-36.2l12.1-36.3l12.3,36.2L129.6,83.8z M121.7,47.6l7.9,23.3l7.8-23.4l-7.9-23.3L121.7,47.6
			z"/>
	</g>
	<g>
		<path class="st1" d="M70.6,154.5l16.9-34.3l34.2-17.1l-16.9,34.3L70.6,154.5z M90.6,123.2l-10.9,22.1l22-11l10.9-22.1L90.6,123.2z
			"/>
	</g>
	<g>
		<polygon class="st0" points="129.4,141.7 119.7,170.7 129.5,199.7 139.2,170.6 		"/>
	</g>
	<g>
		<path class="st1" d="M189.1,154.1l-34.3-16.9L137.6,103l34.3,16.9L189.1,154.1z M157.8,134.1l22.1,10.9l-11-22l-22.1-10.9
			L157.8,134.1z"/>
	</g>
	<g>
		<path class="st1" d="M177.2,107.1L140.9,95l36.2-12.3l36.3,12.1L177.2,107.1z M153.8,95l23.4,7.8l23.3-7.9l-23.4-7.8L153.8,95z"/>
	</g>
	<g>
		<path class="st1" d="M137.6,87.1l16.9-34.3l34.2-17.1l-16.9,34.3L137.6,87.1z M157.6,55.8l-10.9,22.1l22-11l10.9-22.1L157.6,55.8z
			"/>
	</g>
</g>
</svg>
