<?xml version="1.0" encoding="utf-8"?>
<!-- Generator: Adobe Illustrator 19.2.0, SVG Export Plug-In . SVG Version: 6.00 Build 0)  -->
<svg version="1.1" id="Layer_1" xmlns="http://www.w3.org/2000/svg" xmlns:xlink="http://www.w3.org/1999/xlink" x="0px" y="0px"
	 viewBox="0 0 250 250" style="enable-background:new 0 0 250 250;" xml:space="preserve">
<style type="text/css">
	.st0{fill:#FFFFFF;}
</style>
<g>
	<g>
		<polygon points="124.6,118.2 65.4,98.5 6.4,118.5 65.6,138.2 		"/>
	</g>
	<g>
		<polygon points="124.6,118.2 96.7,62.5 40.8,34.9 68.7,90.6 		"/>
	</g>
	<g>
		<polygon points="124.6,118.2 144.3,59 124.3,0 104.6,59.1 		"/>
	</g>
	<g>
		<polygon points="124.6,118.2 68.9,146.1 41.3,202 97,174.1 		"/>
	</g>
	<g>
		<polygon points="124.6,118.2 152.5,173.9 208.4,201.5 180.5,145.8 		"/>
	</g>
	<g>
		<polygon points="124.6,118.2 183.7,137.8 242.8,117.8 183.6,98.2 		"/>
	</g>
	<g>
		<polygon points="124.6,118.2 180.3,90.3 207.9,34.4 152.2,62.3 		"/>
	</g>
	<g>
		<path class="st0" d="M65.5,133.5l-45.1-15l45-15.3l45.1,15L65.5,133.5z M36.5,118.4l29,9.7l29-9.8l-29-9.7L36.5,118.4z"/>
	</g>
	<g>
		<path class="st0" d="M114.7,108.3L72,87.3L50.7,44.7l42.6,21.1L114.7,108.3z M75.8,83.4L103.3,97L89.6,69.6L62.1,56.1L75.8,83.4z"
			/>
	</g>
	<g>
		<path class="st0" d="M124.6,104.2l-15.3-45l15-45.1l15.3,45L124.6,104.2z M114.7,59.1l9.8,29l9.7-29l-9.8-29L114.7,59.1z"/>
	</g>
	<g>
		<path class="st0" d="M51.1,192.1l21.1-42.6l42.5-21.3l-21.1,42.6L51.1,192.1z M76,153.2l-13.6,27.4L89.8,167l13.6-27.4L76,153.2z"
			/>
	</g>
	<g>
		<polygon points="124.2,176.2 112.2,212.3 124.4,248.3 136.4,212.2 		"/>
	</g>
	<g>
		<path class="st0" d="M198.5,191.6l-42.7-21.1l-21.3-42.5l42.6,21.1L198.5,191.6z M159.6,166.8l27.4,13.6l-13.7-27.4l-27.4-13.6
			L159.6,166.8z"/>
	</g>
	<g>
		<path class="st0" d="M183.7,133.2l-45.1-15l45-15.3l45.1,15L183.7,133.2z M154.7,118.1l29,9.7l29-9.8l-29-9.7L154.7,118.1z"/>
	</g>
	<g>
		<path class="st0" d="M134.5,108.3l21.1-42.6L198,44.3L177,87L134.5,108.3z M159.3,69.4l-13.6,27.4l27.4-13.7l13.6-27.4L159.3,69.4
			z"/>
	</g>
</g>
</svg>
