<?xml version="1.0" encoding="utf-8"?>
<!-- Generator: Adobe Illustrator 19.2.0, SVG Export Plug-In . SVG Version: 6.00 Build 0)  -->
<svg version="1.1" id="Layer_1" xmlns="http://www.w3.org/2000/svg" xmlns:xlink="http://www.w3.org/1999/xlink" x="0px" y="0px"
	 viewBox="0 0 2500 1000" style="enable-background:new 0 0 2500 1000;" xml:space="preserve">
<style type="text/css">
	.st0{fill:#FFFFFF;}
</style>
<g>
	<g>
		<polygon points="1250,491.6 1166.6,463.8 1083.4,492 1166.8,519.8 		"/>
	</g>
	<g>
		<polygon points="1250,491.6 1210.7,413.1 1131.9,374.2 1171.2,452.7 		"/>
	</g>
	<g>
		<polygon points="1250,491.6 1277.8,408.2 1249.6,325 1221.8,408.3 		"/>
	</g>
	<g>
		<polygon points="1250,491.6 1171.5,530.9 1132.6,609.7 1211.1,570.4 		"/>
	</g>
	<g>
		<polygon points="1250,491.6 1289.3,570.1 1368.1,609 1328.8,530.5 		"/>
	</g>
	<g>
		<polygon points="1250,491.6 1333.3,519.2 1416.6,491 1333.2,463.4 		"/>
	</g>
	<g>
		<polygon points="1250,491.6 1328.5,452.3 1367.4,373.5 1288.9,412.8 		"/>
	</g>
	<g>
		<path class="st0" d="M1166.7,513.2l-63.6-21.1l63.4-21.6l63.6,21.1L1166.7,513.2z M1125.8,491.9l40.9,13.7l40.9-13.8l-40.9-13.7
			L1125.8,491.9z"/>
	</g>
	<g>
		<path class="st0" d="M1236,477.7l-60.2-29.6l-30-60l60,29.7L1236,477.7z M1181.2,442.6l38.8,19.2l-19.3-38.6l-38.8-19
			L1181.2,442.6z"/>
	</g>
	<g>
		<path class="st0" d="M1250,471.9l-21.6-63.4l21.1-63.6l21.6,63.4L1250,471.9z M1236,408.3l13.8,40.9l13.7-40.9l-13.8-40.9
			L1236,408.3z"/>
	</g>
	<g>
		<path class="st0" d="M1146.4,595.8l29.7-60l59.9-30l-29.7,60L1146.4,595.8z M1181.5,540.9l-19.2,38.6l38.6-19.2l19.2-38.6
			L1181.5,540.9z"/>
	</g>
	<g>
		<polygon points="1249.4,573.4 1232.5,624.3 1249.7,675 1266.6,624.1 		"/>
	</g>
	<g>
		<path class="st0" d="M1354.2,595.1l-60.2-29.7l-30-59.9l60,29.7L1354.2,595.1z M1299.3,560.1l38.6,19.2l-19.3-38.6l-38.6-19.2
			L1299.3,560.1z"/>
	</g>
	<g>
		<path class="st0" d="M1333.3,512.8l-63.6-21.1l63.4-21.6l63.6,21.1L1333.3,512.8z M1292.4,491.5l40.9,13.7l40.9-13.8l-40.9-13.7
			L1292.4,491.5z"/>
	</g>
	<g>
		<path class="st0" d="M1264,477.7l29.7-60l59.8-30.2l-29.6,60.2L1264,477.7z M1298.9,422.8l-19.2,38.6l38.6-19.3l19.2-38.6
			L1298.9,422.8z"/>
	</g>
</g>
</svg>
