<?xml version="1.0" encoding="utf-8"?>
<!-- Generator: Adobe Illustrator 19.2.0, SVG Export Plug-In . SVG Version: 6.00 Build 0)  -->
<svg version="1.1" xmlns="http://www.w3.org/2000/svg" xmlns:xlink="http://www.w3.org/1999/xlink" x="0px" y="0px"
	 viewBox="0 0 500 200" style="enable-background:new 0 0 500 200;" xml:space="preserve">
<style type="text/css">
	.st0{fill:#010101;}
	.st1{fill:none;}
	.st2{fill:#00AEC0;}
	.st3{font-family:'UniversLTStd-BlackEx';}
	.st4{font-size:72.746px;}
	.st5{letter-spacing:-5;}
	.st6{letter-spacing:-6;}
	.st7{letter-spacing:-2;}
	.st8{fill:#EFE30C;}
	.st9{fill:#C0A32F;}
</style>
<g id="Layer_1">
</g>
<g id="Layer_2">
	<g>
		<g>
			<text transform="matrix(1 0 0 1 105.3408 184.6366)"><tspan x="0" y="0" class="st2 st3 st4 st5">D</tspan><tspan x="65" y="0" class="st2 st3 st4 st6">U</tspan><tspan x="128.5" y="0" class="st2 st3 st4 st5">B</tspan><tspan x="187.3" y="0" class="st2 st3 st4 st7">A</tspan><tspan x="260.6" y="0" class="st2 st3 st4">I</tspan></text>
		</g>
		<circle class="st1" cx="294.5" cy="35.9" r="35.9"/>
		<path class="st8" d="M259.4,43.3l-113.5,59.2c-37.4,18.5-52.8-26.2-29.5-40c0.1,0.7,0.8,0.6,0.2,1c-13.1,9.2-1.8,25.8,17.6,15.7
			L278.6,3.7C258.6,15.1,257.4,32.2,259.4,43.3z"/>
		<path class="st9" d="M244.8,102.9l66.9-35.1c27.9-16,18.2-53.5-2.9-64.1c2.4,1.2,30,18.3,0.2,36L201.8,95.2
			c-0.3,0.1-0.1,0.5,0.2,0.5C221.8,91.7,235.7,96.2,244.8,102.9z"/>
		<path class="st9" d="M116.2,62.6c0.6-0.3,49.5-25.7,49.5-25.7c2.7-1.4,5.9-1.4,8.6,0l7.2,3.5c1.3,0.6,1.3,2.5,0,3.1l-24,12.5
			c-0.5,0.2-1,0.3-1.5,0l-7-3.2c-3.3-1.8-7.4-1.9-10.8-0.2L115.9,64c-0.1,0.1-0.2,0.1-0.3,0.2c-0.4,0.3-1.4,1.1-2.2,2.1
			C115,63.7,115.2,63.3,116.2,62.6z"/>
		<path class="st8" d="M313,76.5l28.3-15c2.7-1.4,5.8-1.5,8.4-0.3L391,94.6l-3.1,9l-30.4,0.7L324.3,77c-2.7-1.8-7.2-1.5-10.6,0.2
			L313,76.5z"/>
		<path class="st8" d="M238.5,105.1l150.9,0.1c4.1,0,7.8-5.2,2.9-9.6l-6.8-5.5l-32,10.4c2.1,1.9,2.5,3.5,0,3.5l-117.6,0L238.5,105.1
			z"/>
		<path class="st9" d="M354.8,103.7c-0.4,0.7-4.8,1.5-5.1,1.5H203.7c-3.9,0-7.6-4.9-3.3-9.1c0.4-0.3,0.7-0.5,1.1-0.8l9.2-4.6
			c0.3-0.2,0.6-0.2,1-0.2l37.9,5.3c1.1,0.1-1.2,5.1-2.1,5.6c-1.6,0.9-1.5,2.3-0.4,2.3l106.8,0.2C353.7,104,354.5,103.9,354.8,103.7z
			"/>
		<path class="st8" d="M282.8,92.8c0.1-0.2,0.3-0.3,0.5-0.4l53.1-28.3c3.4-1.8-10.8,10.5-10.2,9.6c1-1.5,0.2-2.7-0.7-2.2l-44.3,23.3
			L282.8,92.8z"/>
	</g>
</g>
</svg>
