<?xml version="1.0" encoding="utf-8"?>
<!-- Generator: Adobe Illustrator 19.2.0, SVG Export Plug-In . SVG Version: 6.00 Build 0)  -->
<svg version="1.1" id="Layer_1" xmlns="http://www.w3.org/2000/svg" xmlns:xlink="http://www.w3.org/1999/xlink" x="0px" y="0px"
	 viewBox="0 0 749.1 200" style="enable-background:new 0 0 749.1 200;" xml:space="preserve">
<style type="text/css">
	.st0{display:none;}
	.st1{display:inline;fill:none;}
	.st2{enable-background:new    ;}
	.st3{fill:#333333;}
</style>
<g class="st0">
	<rect x="-73.2" y="-3" class="st1" width="890.9" height="237.2"/>
</g>
<g class="st2">
	<path d="M101.2,197h-99V5.9h99V197z M71.8,73.5c-0.2-0.6-0.4-1.6-0.6-2.8c-0.2-1.3-0.7-1.9-1.4-1.9c-0.6,0-1.4,0.8-2.4,2.3
		c-1,1.6-1.7,2.9-2.3,4.1c0,0.3,0,1.7,0,4.2s0.1,5.6,0.2,9.1c0.2,3.6,0.2,7.4,0.2,11.4c0,4-0.1,7.9-0.2,11.7c-0.2,3.8-0.3,7-0.3,9.9
		c-0.1,2.8-0.3,4.6-0.7,5.5c-0.8,3-1.3,5.1-1.3,6.3c-0.1,1.2-1.3,2.2-3.8,2.9c-1,0.4-2,0.7-3,0.7c-0.9,0.1-1.8,0.2-2.5,0.4
		c-0.7,0.2-1.4,0.3-1.9,0.3l1.9-1.6c-0.9-0.2-1.8-0.5-2.5-0.8c-1.5-0.2-2.8-0.6-4.1-1.3c-1-0.5-2.4-1.3-4.1-2.3
		c-1.7-1-2.9-2.9-3.6-5.7c-0.5-2.7-0.8-4.9-0.7-6.7c0.1-1.8,0.3-3,0.7-3.8c0.1-0.4,0.6-0.8,1.4-1.1c0.5-0.1,1-0.2,1.6-0.2l-1.1-2.5
		l-1.7,0.9c-0.4,0.4-0.8,0.8-1.3,1.1c-0.4,0.3-0.7,0.6-0.8,0.9c-0.3,0.4-0.8,0.8-1.6,1.1c-0.7,0.3-1.4,1-2,2c-0.6,1-1,2.4-1.3,4.1
		c-0.2,1.8,0.2,4,1.3,6.7c1.6,5.7,4.2,9.8,8,12.3c3.8,2.5,7.4,3.7,10.9,3.7c3.5,0,7.1-1.5,10.7-4.5c3.6-3,5.9-6.9,6.8-11.8
		c0.3-2.5,0.5-6.7,0.7-12.7c0.2-5.9,0.3-12,0.4-18.3C71.7,90.1,71.8,82.1,71.8,73.5z M43.6,120.8c0-0.4,0.1,0.3,0.2,2.1
		c0.2,1.8,0.5,3.2,1,4c0.4,1,1.1,1.9,2,2.7c0.9,0.7,1.7,1.1,2.3,1.1c0.4,0,0.9-0.2,1.6-0.5c0.4-0.3,0.7-0.6,0.9-0.9
		c-0.4,0-0.9-0.1-1.6-0.3c-0.9-0.3-1.6-0.8-2-1.4c-0.7-0.6-1.7-1.5-2.8-2.7C44.2,123.6,43.6,122.3,43.6,120.8z M74.9,65.5
		c0.1-0.6-0.3-0.8-1.1-0.5c-0.8,0.3-1.4,0.7-1.7,1.3c-0.4,0.6-0.1,0.8,0.9,0.4C73.9,66.3,74.6,65.9,74.9,65.5z M76.1,79.1
		C76,87.3,76,94.6,76,101v22.8c0,0.5-0.1,1.4-0.3,2.7c-0.2,1.3-0.5,2.2-0.8,2.7c-0.5,0.9-0.8,1.5-0.8,1.7v0.6
		c0.2-0.8,0.5-1.6,0.9-2.3c0.7-1.7,1.2-3.5,1.4-5.6c0.2-1.1,0.3-4.2,0.2-9.1c-0.1-4.9-0.2-9.9-0.2-14.9
		C76.2,93.5,76.1,86.6,76.1,79.1z M76.1,70.5c0-0.4,0-0.6-0.1-0.7C76,69.7,76,69.6,76,69.2l-0.5-0.2c0,0.4,0.2,0.8,0.5,1.1
		c0,0.4,0,0.7,0.1,0.7C76.1,70.9,76.1,70.8,76.1,70.5z"/>
	<path d="M195,197H96.2V5.9H195V197z M156.7,68.6c-2.5-2.4-4.6-4.1-6.4-5.1c-1.8-1-2.2-0.6-1.4,1c0,0.3-1.1,0.5-3.4,0.5
		c-2.2,0-5,0.3-8.3,0.9c-3.3,0.6-6.6,1.7-9.9,3.4c-3.3,1.6-5.9,4.2-7.7,7.7c-2.1,3.5-3.7,8-4.9,13.2c-1.2,5.3-1.7,10.7-1.6,16.2
		c0.2,5.5,1.1,10.8,2.9,15.8c1.8,5,4.6,9.2,8.6,12.5c4.2,3.2,8.3,5.4,12.4,6.6c4.1,1.1,7.8,1.4,11.3,0.9c3.4-0.6,6.5-1.9,9.1-4
		c2.6-2.1,4.6-4.4,6.1-7c1.3-2.7,2.4-5.8,3.6-9.3c1.1-3.5,2-7,2.7-10.6c0.6-3.6,0.9-7.1,0.8-10.5c-0.1-3.4-0.5-6.4-1.1-9.1
		C166.2,81.4,162,73.7,156.7,68.6z M145.4,73.5c2.9,0.3,5.5,1.4,7.7,3.4c2.2,1.9,4.1,4.3,5.7,7c1.6,2.8,2.8,5.8,3.6,9.1
		c0.8,3.3,1.3,6.6,1.3,9.9c0,3.2-0.4,6.6-1.3,10.2c-0.9,3.6-2.2,6.8-3.8,9.7c-1.7,2.9-3.6,5.2-5.8,7.1c-2.2,1.9-4.5,2.8-6.9,2.8
		c-2.5,0-5.2-0.5-8.2-1.6c-3-1.1-5.7-2.9-8.3-5.5c-2.6-2.6-4.7-5.9-6.3-10c-1.7-4.1-2.3-9.2-1.9-15.2c0.2-6,1.5-10.9,3.8-14.5
		c2.3-3.6,4.9-6.4,7.7-8.3c2.8-1.9,5.4-3.2,8-3.7C143.2,73.4,144.8,73.3,145.4,73.5z M137.8,79.2c-1.6,0.8-3.1,1.9-4.5,3.1
		c-1.4,1.1-2.7,2.6-3.9,4.4c-1.3,1.8-2.2,3.8-3,6.1c-1.5,4.8-1.8,9.9-1.1,15.2c0.7,5.4,1.8,9.6,3.3,12.7c0.8,1.6,1.9,2.9,3.1,4.1
		c1.3,1.1,2.5,2,3.8,2.7c1.3,0.6,2.5,1.1,3.5,1.4c1,0.3,1.7,0.4,2,0.2c0.3-0.5-0.1-1.3-1.2-2.3c-1.1-1-2.3-2.1-3.5-3.2
		c-0.6-0.5-1.4-1.1-2.3-1.9c-0.9-0.7-1.8-1.8-2.7-3.1c-0.9-1.4-1.7-3.2-2.3-5.6c-0.7-2.3-1.1-5.5-1.2-9.5c-0.5-3.8-0.3-7.2,0.7-10.3
		c1-3.1,2.2-5.7,3.7-7.7C133.9,83.3,135.8,81.1,137.8,79.2z M160.7,64.1c-2.4-1.4-4.5-2.5-6.3-3.4c-1.8-0.9-3.5-1.6-4.9-2
		c-1.7-0.5-3.2-0.8-4.7-0.8l5.8,1.9c0.3,0.1,1.4,0.7,3.2,1.8c1.8,1.1,3.8,2.4,5.9,4c2.1,1.6,4.2,3.3,6.1,5.3c1.9,2,3.3,4.1,4.1,6.3
		c0.8,2.2,1.6,4.7,2.3,7.6c0.7,2.9,1.3,5.9,1.7,9c0.5,3.1,0.8,6.2,1,9.1c0.2,3,0.1,5.6-0.3,7.9c-0.7,4.8-1.7,9.1-3,13
		c-1.3,3.9-4,7.9-8.2,12.2c-2.2,2.1-4.4,3.8-6.6,5.2c-2.2,1.4-4.3,2.5-6.2,3.4c-2.3,1-4.4,1.8-6.4,2.3c3.5-0.9,6.9-2.1,10.2-3.6
		c2.7-1.3,5.5-2.9,8.4-5.1c2.9-2.1,5.2-4.8,7-7.9c1.8-3.1,3.1-6.6,4-10.4c0.9-3.8,1.5-7.5,2-11c0.4-3.5,0.6-6.7,0.5-9.5
		c-0.1-2.8-0.1-5-0.2-6.4c-0.3-1-0.8-2.8-1.6-5.4c-0.7-2.6-1.7-5.3-3-8.3c-1.3-3-2.8-5.8-4.6-8.6C164.9,67.8,162.9,65.6,160.7,64.1z
		 M181.5,115.2c-0.4,0.4-0.6,0.7-0.6,0.9c0,0.5,0.1,0.9,0.2,1.3c0.1,0.3,0.4,0.6,0.9,0.8L181.5,115.2z"/>
	<path d="M286.9,197h-99V5.9h99V197z M261.9,59.2c-0.7,0-1.7,0.4-2.9,1.3c-1.2,0.8-2.2,2-3,3.4c-0.4,0.7-0.7,2.8-0.8,6.3
		c-0.1,3.5-0.1,7.4,0.1,11.8c0.2,4.4,0.3,8.7,0.5,13c0.2,4.3,0.1,7.4-0.2,9.4c0,2.3,0,4.8-0.1,7.5c-0.1,2.7-0.4,5.3-1,7.7
		c-0.6,2.4-1.8,4.5-3.4,6.3c-1.7,1.8-4.2,3-7.5,3.7c-3.3,0.5-5.8,0.8-7.5,0.9c-1.7,0.1-2.9,0-3.8-0.3c-0.8-0.3-1.3-0.7-1.5-1.1
		c-0.2-0.4-0.5-0.8-1-1.3c-0.9-0.7-1.4-1.2-1.4-1.5c0-0.3-0.3-0.3-0.8-0.2c-0.6,0.3-1.4,0-2.3-0.9c-0.9-0.9-1.9-1.9-2.9-2.8
		c-0.8-0.9-1.3-1.7-1.3-2.3c-0.1-0.6-0.1-1.1-0.1-1.6c0.1-0.3,0.3-0.7,0.6-1.1c0.3-0.4,0.2-1.3-0.3-2.7c-0.2-1.4-0.5-2.9-0.9-4.7
		c-0.4-1.8-0.6-3.8-0.6-5.9c0-1.1-0.1-3.4-0.2-6.8c-0.1-3.4-0.2-6.9-0.2-10.6c0-3.7,0-7,0-9.9c0-2.9,0.1-4.6,0.3-5
		c0.2-0.5,0.6-1.7,1.3-3.4c0.7-1.8,0.7-3.2,0.1-4.4c-1.3-3-2.8-4.4-4.7-4.1c-0.8,0.2-2,0.8-3.4,1.6c-1.4,0.9-2.4,1.9-3,3
		c-0.5,1-0.4,2.8,0.4,5.4c0.8,2.6,1.2,5.2,1.2,8.1c0,0.8,0,2.6,0,5.3c0,2.7,0,5.7,0,9.1c0,3.3,0,6.9,0.1,10.6
		c0.1,3.8,0.2,7.4,0.5,10.9c0.3,3.5,0.8,6.5,1.3,9.1c0.6,2.6,1.2,4.2,1.8,4.9c1.1,1.1,2.7,2.5,4.7,4.1c2,1.6,4.3,2.9,7,4.1
		c2.7,1.1,5.5,1.9,8.6,2.1c3.1,0.3,6.3-0.2,9.6-1.5c6.6-2.6,11.4-5,14.4-7.3c3-2.2,4.6-4.4,4.8-6.3c0-2-0.2-3.9-0.6-5.8
		c-0.4-1.9-0.7-3.1-0.8-3.6c0-0.2,0-1.9,0-5.2c0-3.2,0-6.8,0-10.6c0-3.9,0-7.5,0-11c0-3.5,0-5.7,0-6.5c0.4-1.6,0.8-3.8,1.3-6.6
		c0.4-2.9,0.8-4.8,1.3-5.9c0.1-1.1-0.3-2.8-1.2-5.1C263.5,60.5,262.6,59.3,261.9,59.2z M224.4,107.4c-0.5,4-0.4,6.7,0.3,8.3
		c0.3,1,0.7,1.7,1.1,2c0-3.4,0.1-6.7,0.2-9.9c0-2.5,0.1-5.1,0.2-7.8c0.1-2.7,0.2-4.7,0.2-6.1c0-1.6-0.1-4-0.2-7.3
		c-0.1-3.3-0.3-6.7-0.5-10.4c-0.4-4.3-0.8-8.8-1.3-13.4c0,0.2,0.1,2.3,0.2,6.3c0.1,4,0.2,8.5,0.3,13.6c0.1,5.1,0.1,10,0,14.7
		C224.8,102.1,224.6,105.4,224.4,107.4z M268.8,68.5v23.9c0,3.1,0,6.2,0,9.1s-0.1,5.6-0.2,8c-0.1,2.3-0.2,4.4-0.2,6
		c-0.1,1.7-0.1,2.6-0.1,2.8c-0.3,0.7-0.6,1.9-0.8,3.5c-0.2,1.6-0.7,3.4-1.5,5.3c-0.8,1.9-1.9,3.8-3.3,5.7c-1.4,1.9-3.3,3.5-5.7,4.8
		c-2.6,1.5-5.1,2.6-7.4,3.4c-2.3,0.8-4.4,1.5-6.2,2.1c-2,0.7-4,1.3-5.9,1.7c4.4-0.4,8.4-1.4,12.2-2.8c3.3-1.3,6.7-3,10-5.3
		c3.3-2.3,5.9-5.6,7.7-9.9c0.9-3.2,1.5-8.1,1.7-14.6c0.2-6.5,0.3-13,0.3-19.3C269.4,85.4,269.2,77.2,268.8,68.5z"/>
	<path d="M379.2,197h-98.8V5.9h98.8V197z M305.7,63.9c-0.8,0.5-1.4,1.9-1.7,4.1c-0.3,2.2-0.5,4.1-0.5,5.6c0,0.7,0,3.2,0,7.3
		c0,4.1,0.1,8.5,0.2,13.2c0.1,4.7,0.2,9,0.2,13.1c0,4,0,6.3,0,7c0,0.5-0.1,1.9-0.2,4.1c-0.1,2.2-0.2,4.5-0.2,7
		c0,2.5,0.1,4.9,0.2,7.2c0.1,2.3,0.4,3.9,0.8,4.7c0.7,1.4,1.1,2.1,1.1,2.2c0,0.1,0.6,0.4,1.9,0.8c1.3,0.3,2.5,0,3.7-1
		c1.2-1,1.9-2.2,2.1-3.5c0.1-1.3-0.2-2.8-1-4.5c-0.8-1.8-1.2-3.1-1.2-3.9c0-0.6,0.1-1.6,0.2-2.8c0.2-1.3,0.3-2.6,0.4-4
		c0.1-1.4,0.2-2.7,0.3-3.8c0.1-1.1,0.2-2,0.2-2.5c-0.2-1-0.4-2.3-0.5-3.9c-0.1-1.6,0.2-2.6,0.8-3.1c0.6-0.3,2.3-0.5,5.1-0.5
		c2.8,0,4.8-0.2,6-0.6c1.6-0.2,3-0.6,4.3-1.3c1.3-0.6,2.7-0.6,4.3,0.2c0.7,0.4,1.6,1.5,2.5,3.4c0.9,1.8,1.9,3.9,2.9,6.2
		c1,2.3,2,4.5,2.9,6.7c0.9,2.2,1.7,3.9,2.2,5.2c0.5,1.4,1.1,2.9,1.9,4.8c0.7,1.8,1.6,3.5,2.5,5.1c0.9,1.6,1.9,2.8,2.9,3.8
		c1,1,2,1.2,2.9,0.7c2-0.9,3.1-1.9,3.4-2.9c0.3-1,0.3-2.3-0.2-3.8c-0.2-0.5-0.8-1.4-1.6-2.7c-0.9-1.3-1.9-2.8-3-4.4
		c-1.1-1.6-2.3-3.2-3.4-4.8c-1.1-1.6-1.9-3.2-2.4-4.8c-2.1-5.7-3.1-9-3.1-9.9c0-0.6-0.1-1-0.2-1.2c-0.2-0.2,0-0.4,0.4-0.7
		c0.1-0.3,0.9-1,2.4-2.1c1.5-1.1,3.1-2.7,4.7-4.7c1.6-2,3.1-4.2,4.4-6.4c1.3-2.2,1.8-4.5,1.6-6.8c-0.1-4.4-1-8-2.7-10.9
		c-1.7-2.9-3.5-5.1-5.2-6.4c-1.6-1.6-2.9-2.7-4.1-3.4c-1.2-0.7-2.3-1.1-3.4-1.2c-0.8-0.4-1.1-0.7-0.9-0.9c0.2-0.2-0.1-0.1-0.9,0.2
		c-0.3,0.3-1.5,0.5-3.5,0.5c-2,0.1-4.2,0.1-6.4,0.1c-2.2,0-4.5,0-6.9,0.1c-2.3,0.1-3.9,0.1-4.8,0.1c-1.9,0-4.1,0-6.6,0
		C307.6,63.6,306.1,63.7,305.7,63.9z M314.1,112.4c0,0.3,0.1,1.4,0.2,3.1c0.2,1.8,0.3,3.8,0.5,6c0.2,2.2,0.3,4.4,0.5,6.3
		c0.2,2,0.3,3.3,0.3,4.1c0.1,1.6,0.1,2.7,0.1,3.4c-0.1,0.7-0.4,1.5-1.2,2.3c-0.8,0.9-1.3,1.5-1.3,1.6c0,0.1-0.3,0.2-0.9,0.2
		c-0.6,0-1.5-0.2-2.5-0.5c-0.8-0.3-1.4-0.6-1.7-0.8c0.8,0.8,1.6,1.6,2.3,2.3c1.8,1.3,3,1.5,3.6,0.6c0.4-0.6,0.9-1.7,1.3-3.3
		c0.5-1.6,0.9-3.3,1.2-5.3c0.3-2,0.6-4,0.9-5.9c0.3-2,0.5-3.7,0.5-5.2c-0.2-1.4-0.3-2.6-0.2-3.7c0.1-1.1,0.2-2.1,0.2-2.9
		c0-0.9,0.2-1.8,0.5-2.5l1.4,0.8c1.6,0.7,2.8,1,3.6,0.9c1-0.1,1.2-0.6,0.4-1.6c-0.8-0.9-1.6-1.4-2.4-1.4c-1.1,0-2.2-0.3-3.2-0.9
		c-1-0.6-2-1.1-3-1.5c-0.8-0.3-1.2,0.1-1.2,1.2C314.1,111.1,314.1,111.9,314.1,112.4z M336.5,72.7c2.1,0,4.3,0.7,6.6,2
		c1.3,0.7,2.2,1.9,3,3.5c0.7,1.6,1.2,3.4,1.4,5.2c0.4,1.9,0.1,3.8-0.9,5.8c-1,2-2.3,3.6-3.8,4.8c-1.4,1.3-3.1,2.1-5.2,2.4
		c-2.1,0.4-4.4,0.5-6.8,0.4c-1,0-2.3-0.2-3.8-0.5c-1.5-0.3-2.9-0.6-4.3-0.8c-1.4-0.2-2.5-0.4-3.5-0.6c-1-0.2-1.6-0.3-2-0.3
		c-0.2,0-1.1,0.4-2.8,1.1c-1.7,0.7-2.7,0.8-3.1,0.2c-0.4-0.4-0.4-1.3,0-2.7c0.4-1.4,0.8-2.3,1.1-2.8c0.4-0.6,0.5-1.1,0.4-1.4
		c-0.2-0.3-0.3-1-0.4-2c0-0.5-0.1-1.3-0.2-2.4c-0.2-1.1-0.3-2.2-0.4-3.4c-0.1-1.2-0.2-2.3-0.3-3.2c-0.1-0.9-0.2-1.5-0.2-1.6
		c0-1.1,0.1-2,0.3-2.5c0.5-0.6,1.6-0.6,3.3,0c0.7,0.4,1.3,0.5,1.6,0.4c0.4-0.2,1.1-0.2,2.1-0.2c0.8,0,1.7-0.1,2.7-0.2
		c1-0.2,2-0.2,2.9-0.2c0.8,0,2.4,0.1,4.6,0.2c2.2,0.2,3.7,0.1,4.5-0.2c0.3-0.4,0.7-0.6,1.1-0.7C334.7,72.9,335.5,72.8,336.5,72.7z
		 M314.8,78.6c-0.4,0.4-0.3,1,0.2,1.8c0.6,0.8,0.9,1.4,0.9,2c0,0.4,0.3,0.9,0.9,1.6l0.3,0.3c-0.4-0.6-0.7-1.3-0.9-2
		c-0.7-1.3-0.7-2.1,0-2.7c0.6-0.2,1.7-0.3,3.1-0.3h2.2l-3.4-0.6c-0.8-0.2-1.6-0.3-2.3-0.3C315.1,78.3,314.8,78.4,314.8,78.6z
		 M315.9,87.1c0,0.6-0.2,1.3-0.6,1.9c-0.1,0.4-0.2,0.7-0.2,0.9l2,1.4l8.3,0.5c-1.4-0.1-2.6-0.4-3.8-0.8c-0.8-0.3-1.7-0.6-2.7-0.9
		c-0.9-0.3-1.6-0.7-1.9-1.1l-0.9-1.4L315.9,87.1z M341.5,58.9c2.7,1.6,5.2,3.1,7.5,4.7c2,1.6,3.8,3.3,5.6,5.2
		c1.7,1.9,2.8,4.1,3.4,6.5c0.9,4.7,1.1,9.5,0.5,14.5c-0.6,5-2,8.3-4.1,10.1c-2,1.6-3.7,3-5.1,4.4c-1.4,1.4-2.1,2.2-2.1,2.7
		c0,0.4,0.4,1.6,1.3,3.4c0.8,1.9,1.9,4,3.3,6.3c1.4,2.6,2.9,5.5,4.7,8.8c-1.4-3.1-2.5-5.9-3.3-8.4c-0.9-2.3-1.7-4.4-2.2-6.3
		c-0.5-1.9-0.7-3.2-0.6-3.7c0.1-0.3,0.7-1.1,1.9-2.4c1.1-1.3,2.4-2.9,3.7-4.8c1.3-1.9,2.4-4,3.3-6.5c0.9-2.4,1.3-4.9,1.2-7.4
		c-0.3-2.6-0.5-5-0.7-7.2c-0.2-2.2-0.8-4.4-1.9-6.5c-1.1-2.1-2.9-4.2-5.4-6.3C349.8,63.7,346.2,61.4,341.5,58.9z M355.1,142.4
		c-0.2,0.5,0.2,0.6,1.3,0.2c1-0.4,2-1.4,3-3c0.7-1.4,1.1-2.7,1.1-4.1c0-0.7-0.1-1.4-0.2-1.9l-0.6,3.4c-0.2,0.8-0.4,1.6-0.7,2.3
		c-0.3,0.7-0.7,1.3-1.2,1.7c-0.9,0.5-1.5,0.8-1.8,0.8C355.7,142,355.4,142.1,355.1,142.4z"/>
	<path d="M473.5,197h-99.1V5.9h99.1V197z M405.9,136.5c0.2-0.8-0.1-1.9-0.9-3.1c-0.8-1.3-1.4-2.3-1.6-3.1c0-0.5,0-2-0.1-4.4
		c-0.1-2.4-0.1-5.1-0.2-8.2c-0.1-3.1-0.2-6-0.2-8.9c0-2.9,0-5.2,0-7c0.2-3,0.4-5.4,0.7-7.2c0.3-1.8,0.3-3.1,0.1-3.9
		c-0.2-0.3-0.7,0.2-1.4,1.6c-0.4,0.7-0.9,1.4-1.4,2c-0.1-1.6-0.3-3.1-0.5-4.7c-0.1-1.3-0.1-2.5-0.1-3.7c0.1-1.2,0.2-2,0.5-2.3
		c0.9-0.6,1.7-1.2,2.3-1.8c0.6-0.6,1.2-0.6,2-0.1c0.1,0.1,0.8,1.2,2.1,3.4c1.3,2.1,2.9,4.7,4.7,7.7c1.8,3,3.8,6.2,5.9,9.7
		c2.1,3.5,4,6.8,5.8,9.9c1.8,3.1,3.3,5.7,4.6,7.7c1.3,2,2.1,3.3,2.3,3.8l5.5,7.3c0.1,0.1,0.3,0.7,0.5,1.6c0.3,1,0.5,2.1,0.8,3.2
		c0.3,1.1,0.6,2.3,0.9,3.4c0.4,1.1,0.8,1.7,1.3,2c0.4,0.3,1.2,0.5,2.3,0.7c1.1,0.2,2.2,0.2,3.2,0c1-0.2,2-0.4,3-0.9
		c0.9-0.4,1.5-1.1,1.6-2.2c0.4-2,0.2-4.4-0.6-7.3c-0.8-2.9-1.3-7.7-1.3-14.6c0-3.2,0.1-6.9,0.2-11.1c0.2-4.2,0.2-8.3,0.2-12.4
		c0-4.1,0-7.7,0.1-10.9c0.1-3.2,0.1-5.4,0.2-6.6c0.3-2.6,0.7-4.6,1.2-6.1c0.5-1.5,0.6-2.6,0.4-3.3c-0.3-0.4-0.5-0.9-0.5-1.6
		c-0.1-0.6-0.2-1.3-0.5-2c-0.4-0.7-0.7-1.5-0.8-2.2c-0.6,0.8-1.2,1.6-1.7,2.3c-1.1,1.8-2,2.9-2.7,3.3c-0.6,0.2-1.4,0.6-2.3,1.1
		c-0.9,0.5-1.4,1.2-1.5,2c0,1,0.4,2.9,1.2,5.5c0.8,2.6,1,5.1,0.7,7.3c0,0.9,0,3.1-0.1,6.5c-0.1,3.4-0.2,7-0.4,10.9
		c-0.2,3.9-0.4,7.5-0.5,10.8c-0.1,3.3-0.2,5.4-0.2,6.3c-0.4,1.5-0.7,3.1-0.9,5c-0.2,1.9-0.8,3.1-1.7,3.8c-0.7,0.7-1.6,1-2.6,0.9
		c-1-0.2-1.9-1-2.6-2.4c-0.8-1.4-1.5-2.5-2-3.5c-0.5-1-0.9-2.1-1.1-3.2c-0.3-1.1-0.5-2.2-0.7-3.1c-0.2-0.9,0.1-1.5,0.7-1.7
		c0.4-0.2,0.7-0.3,0.8-0.3c0.1,0,0.4-0.2,0.9-0.5c0.4,0,0.7-0.1,0.8-0.2c-1.5-1.7-2.8-3.3-4.1-4.8c-2.7-3.1-4.5-5.5-5.3-7
		c-0.5-0.7-1.4-2.3-2.6-4.8c-1.2-2.5-2.5-5.2-3.8-8c-1.3-2.8-2.6-5.5-3.8-8c-1.2-2.5-2-4-2.3-4.5c-0.9-1.1-1.9-3-2.9-5.5
		c-1-2.5-1.8-4-2.4-4.5c-0.5-0.4-0.8-1-0.8-1.8s0-1.3,0-1.6c0-0.4-0.1-0.3-0.2,0.2c-0.2,0.6-0.5,1.2-1,1.8c-0.6,0.5-1.9,1.3-3.8,2.2
		c-1.9,0.9-3,1.9-3.3,2.8c0,0.6,0.1,1.4,0.4,2.4c0.3,1,0.6,2,1.1,3c0.5,1,0.9,2,1.2,3c0.3,0.9,0.5,1.5,0.5,1.7c0.2,1,0,2.7-0.5,4.8
		c-0.6,2.2-0.9,3.9-0.9,5.2c0,1.5-0.2,3-0.6,4.6c-0.4,1.6-0.6,3-0.6,4.1c0,0.5-0.1,2.6-0.2,6.3c-0.2,3.7-0.2,7.8-0.2,12.3
		c0,4.5,0,8.7,0,12.7c0,4,0.2,6.5,0.5,7.5c1.3,4,2.8,5.8,4.7,5.6c0.8-0.4,1.7-1.2,2.7-2.4C405.1,137.9,405.7,137,405.9,136.5z
		 M404.4,142.4c-0.2,0.2-0.3,0.7-0.2,1.3c0.1,0.7,0.2,0.9,0.3,0.5c0-0.3,0.2-0.7,0.7-1.2c0.5-0.5,0.9-1,1.2-1.6
		c0.6-0.6,1.3-1.4,1.9-2.3l-1.4,1.4C405.7,141.2,404.9,141.8,404.4,142.4z M432.4,103.6c-1.3-2.5-2.5-5.1-3.8-7.7
		c-1.1-2.3-2.3-4.6-3.5-6.9c-1.2-2.3-2.3-4.2-3.2-5.8c-0.9-1.6-2-3.4-3-5.6c-1.1-2.1-2.2-4.2-3.3-6.2c-1.1-2-2.1-3.8-3-5.3
		c-0.9-1.6-1.8-2.6-2.5-3c-0.7-0.4-1.4-0.8-1.9-1.2c-0.5-0.4-1.1-0.7-1.7-1c-0.7-0.4-1.4-0.7-1.9-0.8c2.1,2.4,4.1,5,6.1,7.8
		c1.9,2.6,3.9,5.7,6.1,9.2c2.2,3.5,4.4,7.3,6.6,11.3c2.2,4.2,3.9,7.2,5.1,9.2c1.2,2,2,3.4,2.4,4.4
		C431.7,103.2,432.3,103.6,432.4,103.6z M408.9,136.8V124c0-3.3,0-6.4,0-9.2c0-2.8,0.1-4.4,0.3-4.8c0-0.4-0.2-1.3-0.5-2.7
		c-0.3-1.4-0.6-2.8-0.8-4.2c-0.6-1.6-1.1-3.3-1.6-5.2c0.4,6.9,0.8,13.1,1.3,18.8c0.2,2.4,0.3,4.8,0.4,7.3c0.1,2.5,0.2,4.6,0.4,6.4
		c0.2,1.8,0.3,3.3,0.4,4.5C408.9,135.9,408.9,136.6,408.9,136.8z M411.1,114.9l1.6-1.3l-0.3-1.3L411.1,114.9z M442.4,146.5h1.1
		c0.2,0,0.9-0.2,2-0.6c0.4,0,0.8-0.1,1.3-0.4c0.4-0.3,0.9-0.6,1.6-1c0.7-0.4,1.4-0.9,1.9-1.4L442.4,146.5z M452.1,131.3v-0.6
		c0-0.1,0.1-0.3,0.2-0.6c0.1-0.3,0.2-0.7,0.2-1.1c0-0.3,0.2-0.7,0.6-1.3c0.4-0.5,0.6-1.1,0.6-1.7V96.9c0-8.5,0.1-18.1,0.2-28.8
		c-0.4,0.6-0.7,2-0.9,4c-0.2,2-0.3,4.5-0.5,7.5c-0.2,3-0.3,6.3-0.3,10.1c0,3.8,0,7.6,0,11.6V131.3z M452.7,134.4v3.4
		c0.2-0.1,0.3-0.5,0.3-1.1c0-0.4,0-0.8,0-1.1C453,135.4,452.9,135,452.7,134.4z"/>
	<path d="M563.7,197H465V5.9h98.7V197z M489,142.1c0.6,0.2,1.3,0.6,2.1,1.1c0.8,0.5,1.6,0.1,2.4-1.4c0.8-1.3,1.5-2.8,2.1-4.8
		c0.6-1.9,0.9-3.3,1-4.1c0.3-1,0.3-2,0.1-2.7c-0.3-0.8,0-1.3,0.9-1.5c0.9-0.2,1.6,0.2,2.1,1.1c0.5,0.9,1.3,1.4,2.6,1.4
		c1.1,0,2.4-0.3,3.9-0.9c1.5-0.6,3.9-0.9,7.2-0.9c3.4,0,5.9,0.2,7.4,0.5c1.5,0.3,2.9,0.1,4.1-0.6c1.3-0.6,2.5-1.4,3.7-2.2
		c1.2-0.8,2.1-1,2.6-0.6c0.1,0.1,0.4,0.6,1,1.5c0.6,0.9,1.1,1.8,1.6,2.7c0.5,0.9,0.9,1.9,1.4,2.9c0.5,1,0.7,1.8,0.7,2.3
		c0.3,1,0.8,2.4,1.4,4.1c0.6,1.7,1.9,2.6,3.9,2.8c2.1,0.4,3.5,0.3,4.1-0.3c0.7-0.6,1.1-1.8,1.3-3.4c0.5-1.4,0.1-2.6-1.3-3.8
		c-1.4-1.2-2.3-2.5-2.8-3.8c-0.3-0.6-1-2.2-2-4.7c-1-2.5-2.1-5.2-3.4-8.2c-1.3-3-2.4-5.9-3.5-8.9c-1.1-3-2-5.2-2.6-6.8
		c-0.5-1.8-1.3-4-2.4-6.6c-1.1-2.7-2.2-5.3-3.3-7.8c-1.1-2.6-2.1-4.9-3-7c-0.9-2.1-1.4-3.5-1.6-4.1c-0.3-0.5-0.5-1.4-0.6-2.7
		c-0.1-1.3-0.3-2.6-0.6-3.9c-0.3-1.4-0.7-2.7-1-3.9c-0.4-1.3-0.9-2.2-1.5-2.8c-0.6-0.5-1.3-0.5-2,0c-0.7,0.5-1.4,1.2-2,2
		c-0.6,0.8-1.2,1.6-1.6,2.5c-0.5,0.9-0.8,1.6-1,2.3c-0.1,1.3,0.1,2.3,0.5,3.3c0.4,0.9,0.6,1.8,0.6,2.5c0,0.6-0.3,1.4-0.9,2.3
		c-0.6,0.9-1.1,1.9-1.6,3c-0.4,0.9-0.7,1.9-0.9,2.7c-0.2,0.9-0.2,1.7-0.2,2.4c0,0.8-0.9,3.1-2.8,6.7c-1.9,3.7-3.5,7.5-4.8,11.4
		c-1.3,3.7-1.9,6.2-2,7.5c-0.1,1.4-0.3,2.6-0.6,3.6c-0.1,0.8-0.4,2.1-1,3.9c-0.6,1.8-1.3,3.4-2.3,4.8c-0.4,1-1.1,2.4-2.1,4.1
		c-1,1.7-1.9,3.5-2.7,5.4c-0.8,1.9-1.4,3.7-1.6,5.2C487.7,141,488,141.9,489,142.1z M501,135.4c-0.4,1-0.7,1.9-0.9,2.7
		c-0.7,1.8-1.4,3-1.9,3.6c-0.4,0.3-0.8,0.6-1.1,0.9c-0.3,0.3-0.5,0.6-0.6,1c-0.3,0.3-0.5,0.6-0.5,0.9c1.4-1.1,2.3-2.1,3-3
		C500.5,139.3,501.2,137.3,501,135.4z M527.9,109.6c0.9,1.8,1.5,3.6,1.8,5.4c0.3,1.8,0.2,3.5-0.2,4.9c-0.1,0.6-0.5,1-1.3,1.1
		c-0.7,0.1-1.6,0.1-2.7-0.2c-1.1-0.2-2.2-0.5-3.4-0.8c-1.2-0.3-2.2-0.5-2.9-0.5c-3.1,0-5.3-0.3-6.4-0.8c-0.4-0.4-1.1-0.4-2,0.1
		c-0.9,0.5-2.4,1-4.4,1.6c-2.1,0.7-3.5,1-4.2,0.9c-0.7-0.2-1.5-0.4-2.2-0.7c-0.4-0.1-0.5-0.5-0.2-1.3c0.3-0.8,0.8-1.6,1.4-2.6
		c0.6-0.9,1.3-2,1.9-3c0.6-1.1,1-2.1,1.3-3c0.2-0.9,0.7-2.5,1.5-4.6c0.8-2.1,1.6-4.3,2.5-6.6c0.9-2.2,1.6-4.2,2.3-5.9
		c0.6-1.7,0.9-2.6,0.9-2.7c0-0.4-0.3-0.8-0.9-1.2c-0.6-0.4-1.1-0.7-1.6-1c-0.3-0.1-0.1-0.5,0.6-1.3c0.7-0.7,1.4-1.5,2-2.3
		c0.7-1,1.2-1.9,1.4-2.5c0.2-0.6,0.8-0.8,1.7-0.5c0.4,0.2,1.3,1.6,2.5,4.1c1.3,2.5,2.6,5.4,4.1,8.6c1.5,3.2,2.9,6.3,4.1,9.3
		C526.8,107,527.6,108.9,527.9,109.6z M502.1,134.1l21.7-0.8c-1.3-0.3-3-0.4-5.3-0.4c-2.3,0.1-4.7,0.2-7.2,0.4
		C508.3,133.5,505.2,133.7,502.1,134.1z M508.7,111.6l1.1-2.5c0.4-0.8,0.8-1.6,1.1-2.3c0.3-0.7,0.5-1.3,0.6-1.7
		c0.6-0.8,1-1.9,1.1-3.1c0.1-0.8,0.3-1.8,0.6-2.8c-0.5,0.4-1.1,1.3-1.6,2.7c-0.6,1.4-1,2.9-1.3,4.5
		C509.6,108.2,509.1,110,508.7,111.6z M516.7,117.2c-0.2-0.7-0.5-1.5-0.9-2.3c-0.4-0.8-1-1.1-1.7-0.9c-0.5,0.2-1.1,0.3-1.9,0.3h-1.3
		L516.7,117.2z M547.5,126.6c0.3,0.4,0.2-0.1-0.3-1.6c-0.5-1.5-1.3-3.4-2.3-5.9c-1-2.5-2.2-5.6-3.6-9.1c-1.4-3.6-2.8-7.3-4.3-11
		c-3.5-8.9-7.7-18.9-12.5-30.2c4.1,10.6,7.7,20.1,10.9,28.5c1.6,3.8,3,7.3,4.4,10.8c1.4,3.4,2.6,6.5,3.6,9.1c1,2.7,1.9,4.9,2.5,6.6
		C546.5,125.6,547,126.5,547.5,126.6z"/>
	<path d="M654.6,197h-98.8V5.9h98.8V197z M588.1,63c-1.5-0.5-2.8-0.3-4,0.7c-1.2,1-2,1.9-2.3,2.6c-0.4,0.9-0.3,2,0.2,3.1
		c0.6,1.1,0.9,1.9,0.9,2.3c0,0.1,0,1.6-0.1,4.5c-0.1,2.9-0.2,6-0.3,9.5c-0.2,3.5-0.2,6.9-0.2,10.2c0,3.3,0,5.5,0,6.6
		c0,1,0.1,3.4,0.3,7.2c0.2,3.8,0.5,7.7,0.8,11.7s0.6,7.8,0.9,11.1c0.3,3.3,0.4,5.3,0.5,5.8c0.3,0.8,1.3,1.5,2.8,2.1
		c1.6,0.6,2.6,0.9,3,0.9c0.2,0,2,0.1,5.5,0.2c3.4,0.1,7.2,0.2,11.4,0.2c4.2,0.1,8,0.2,11.4,0.3c3.4,0.2,5.3,0.2,5.6,0.2
		c0.7,0,1.4,0.2,2,0.5c0.6,0.3,1.5,0.5,2.5,0.5c0.8,0,2-0.3,3.4-1c1.4-0.7,2.3-1.9,2.6-3.7c0.4-1.8,0.2-3.5-0.8-5.2
		c-0.9-1.7-2.1-2.5-3.4-2.5c-1.4,0-3.4,0.4-6.3,1.1c-2.8,0.7-4.8,1.1-5.9,1.1h-23.5c-0.6,0-1.5,0-2.7,0.1c-1.2,0.1-1.8-0.2-1.8-0.7
		c0-0.4-0.1-2-0.4-4.8c-0.3-2.8-0.4-4.7-0.4-5.9c0-0.1,0-0.9,0-2.5c0-1.6-0.1-3.6-0.2-6c-0.1-2.4-0.2-5.1-0.2-7.9s0-5.6,0-8.4V73
		c1.1-0.7,1.6-2.4,1.3-5C590.6,65.4,589.7,63.7,588.1,63z M594.7,67.7c-0.1,10.6-0.2,20.2-0.2,28.6c0,3.6,0,7.2,0,10.6
		c0,3.4,0,6.4,0.1,9.1c0.1,2.7,0.2,4.9,0.3,6.6c0.2,1.7,0.3,2.6,0.4,2.6l0.9,0.3L594.7,67.7z M625.6,146.5l-22.4-0.3
		c0.7,0.5,2.3,0.8,4.7,0.8c2.4,0,5,0,7.7,0C618.8,147,622.1,146.8,625.6,146.5z M638,137.9c-0.3,1.1-0.7,2.1-1.3,2.8
		c-0.4,0.7-0.9,1.4-1.3,2c-0.5,0.6-1,1.1-1.5,1.4c-0.7,0.3-1.7,0.5-3,0.5c-0.6,0-1.1-0.1-1.6-0.3c1.6,0.7,2.9,1,4.1,0.9
		c0.8-0.2,1.7-0.8,2.7-1.6C637.1,142.7,637.7,140.8,638,137.9z"/>
	<path class="st3" d="M746.8,45.3c0,16.8-22.2,21.5-35.9,21.5c-13.7,0-24.8-13.6-24.8-30.5s5.3-30.4,19-30.4
		C713,5.9,746.8,37,746.8,45.3z"/>
	<path d="M746.8,197h-99V5.9h57.3c7.2,0,9.7,28,9.7,28s32,1.1,32,11.4V197z M717.1,86.4c1.1-0.4,2.1-1.5,2.9-3.4
		c0.8-1.8,0.8-3.7,0.1-5.7c-0.2-0.8-0.9-2-2-3.6c-1.1-1.6-2.4-3.1-4-4.7c-1.6-1.6-3.3-3-5.2-4.4c-1.9-1.4-4.1-2.2-6.6-2.7
		c-2.2-0.4-5.1-0.4-8.8,0c-3.7,0.4-7.2,1.4-10.6,2.9c-3.4,1.5-6.3,3.7-8.8,6.4c-2.5,2.8-3.7,6.1-3.7,10.1c0,4.3,0.6,7.7,1.7,10.2
		c1.1,2.5,2.5,4.5,4.1,6c1.6,1.5,3.3,2.5,5.2,3c1.9,0.5,3.5,1,5,1.4c1.6,0.3,3.5,0.7,5.9,1c2.3,0.4,4.7,0.8,7.2,1.3
		c2.4,0.5,4.7,1,6.6,1.6c2,0.6,3.4,1.2,4.4,2c1.7,1.5,2.9,3.7,3.6,6.6c0.7,3,0.6,5.3-0.3,7.1c-0.7,1.8-2.6,3.9-5.5,6.3
		c-2.9,2.4-6.9,3.6-12,3.6c-2.5,0-4.5-0.1-6.1-0.4c-1.6-0.3-2.8-0.6-3.8-1.1c-0.9-0.5-1.7-1.1-2.3-1.9c-0.6-0.8-1.4-1.6-2.2-2.4
		c-1.5-1.8-2.5-3-3-3.7c-0.6-0.7-0.9-1.5-0.9-2.4c0-0.8,0.3-1.5,0.9-2.1c0.6-0.6,0.7-1.3,0.2-2.1c-0.4-1-0.9-1.6-1.4-1.6
		c-0.5-0.1-0.9-0.3-1.1-0.7c-0.5-0.3-0.9-0.7-1.3-1.3c-0.3-0.5-0.4-1.2-0.3-2c0-0.7,0.2-1.4,0.6-2c0.1-0.4,0.2-0.7,0.2-0.9
		c-0.4,0.2-0.9,0.4-1.4,0.5c-1,0.4-1.6,1-1.6,1.7c-0.2,0.5-0.1,1,0.3,1.4c0.1,0.2,0.2,0.4,0.2,0.5c-0.9-0.3-1.9-0.3-2.8,0
		c-0.6,0.4-1.3,1-2,1.7c-0.7,0.7-1,1.9-1,3.6c0,1.6,0.4,3.4,1.1,5.6c0.7,2.1,1.8,4.3,3.4,6.4c1.5,2.1,3.2,4,5.1,5.7
		c1.9,1.7,4,3,6.4,4.1c2.3,1.1,4.9,1.9,7.8,2.1c2.9,0.3,5.8,0.3,8.5,0c2.8-0.3,5.3-0.8,7.7-1.7c2.4-0.9,4.3-1.9,5.8-3
		c2.7-2.4,5.1-5.4,7.1-8.9c2-3.5,2.8-7.2,2.4-10.9c-0.3-3.9-1.5-7.1-3.4-9.9c-2-2.7-3.6-4.8-4.8-6.3c-1.5-1.5-2.7-2.5-3.7-3.2
		c-1-0.7-1.7-0.9-2.1-0.7c-0.1,0.3-0.2,0.8-0.2,1.4c0,0.1,0.1,0.2,0.2,0.3c-1.1,0.2-2.1,0.2-3,0c-1.8,0-3.6-0.3-5.5-0.9
		c-1.5-0.5-3.6-1-6.3-1.4c-2.8-0.4-5-1.1-6.8-2c-1.9-0.8-2.7-1.3-2.5-1.3c0.2,0-0.2-0.1-1.3-0.3c-0.6-0.2-1.8-1.1-3.6-2.7
		c-1.8-1.6-2.7-3.4-2.7-5.6c0-1.1,0.5-2.2,1.6-3.2c1-1,2.2-1.9,3.6-2.8c1.4-0.9,2.8-1.7,4.2-2.3c1.5-0.7,2.7-1.1,3.6-1.2
		c1.8-0.4,4.2-0.7,7.3-0.9c3.1-0.2,5.2,0.2,6.5,1.1c1.5,0.7,2.9,1.9,4.3,3.4c1.4,1.6,2.4,2.9,2.9,3.9c0.4,0.8,0.6,1.7,0.5,2.5
		c-0.1,0.8,0.4,1.7,1.4,2.5c0.7,0.7,1.7,1.1,2.8,1.1C716.3,86.9,716.7,86.8,717.1,86.4z M684.3,108c-1-0.1-2.6-0.5-4.6-1.3
		c-2-0.7-3.3-1.1-3.8-1.1c-0.4,0-0.3,0.3,0.4,0.8c0.7,0.5,1.3,1.1,1.8,1.9c0.7,0.8,1.7,2.8,2.9,5.9c1.2,3.1,2.4,5.4,3.7,6.7
		c0.8,0.7,1.8,1.2,3,1.4c1.1,0.2,2.3,0.3,3.6,0.3h4.7c-0.9-0.3-1.8-0.5-2.7-0.5c-0.7,0-1.5,0-2.2,0c-0.7,0-1.3-0.1-1.7-0.2
		c-0.7-0.1-1.5-0.3-2.4-0.7c-0.9-0.4-1.6-0.8-2.3-1.2c-0.5-0.4-1.1-1.5-1.7-3.3c-0.6-1.8-1.1-3.2-1.4-4.2c-0.4-0.8-0.9-1.7-1.6-2.7
		c-0.2-0.6-0.5-1-0.8-1.1c0.4,0.1,1,0.3,1.7,0.6c0.4,0.1,0.9,0.2,1.5,0.2c0.6,0,1,0,1.2,0c0.5,0,1.1,0.1,1.7,0.2
		c0.6,0.1,1.4,0.2,2.2,0.2h3.1c-0.9-0.2-1.8-0.5-2.5-0.9c-0.7-0.1-1.5-0.3-2.3-0.5C685,108.4,684.5,108.2,684.3,108z M704.1,89.9
		l-2-1.1c-1.1-0.5-2.3-0.9-3.4-1.3c-0.3,0-1.1-0.1-2.3-0.4c-1.3-0.3-2.6-0.5-4.1-0.9c-1.5-0.3-2.9-0.8-4.1-1.3
		c-1.2-0.6-2-1.1-2.3-1.6c-0.9-1.5-0.7-2.7,0.6-3.7c1.4-1,2.8-1.5,4.4-1.5h6.3c-1-0.1-2.1-0.3-3.3-0.6c-0.8-0.1-1.8-0.2-3-0.2
		c-1.1-0.1-2.1-0.1-2.8-0.1c-1.7,0.1-3.3,0.9-5,2.5c-1.7,1.6-2.1,3.3-1.4,5.3c0.4,1.1,1.2,2,2.3,2.6c1.1,0.6,2.3,1,3.5,1.3
		c1.3,0.3,2.5,0.4,3.7,0.5c1.2,0.1,2.1,0.1,2.7,0.1c0.4,0.2,1.2,0.3,2.3,0.3c1.1,0,2.3,0,3.6,0C701.3,89.7,702.8,89.8,704.1,89.9z
		 M717.4,95.8c-0.6,0.2-0.4,0.6,0.8,1.3l1.7,1.1c1.7,2.2,3,4.4,4.1,6.7c0.9,2,1.7,4.4,2.3,7.1c0.6,2.8,0.6,5.6,0.1,8.4
		c-1.3,5.9-3,10.1-5.4,12.4c-2.3,2.3-4.9,4.3-7.6,5.9c-2.8,1.6-5.8,2.9-8.9,4c-3.1,1.1-5.7,1.6-7.7,1.6c-2,0-4-0.1-6.2-0.2
		c-2.1-0.2-3-0.1-2.6,0.2c0.1,0,1.2,0.1,3.3,0.4c2.1,0.3,4.5,0.3,7.3,0.1c2.8-0.2,5.9-0.7,9.1-1.6c3.3-0.8,6.3-2.2,9.1-4.2
		c2.7-2,4.8-4.4,6.4-7.2c1.6-2.8,2.7-5.6,3.4-8.4c0.7-2.8,1.1-5.4,1.3-7.8c0.2-2.4,0.1-4.2-0.2-5.5c-0.2-1.1-0.8-2.6-1.7-4.4
		c-0.9-1.8-2-3.4-3.1-4.8c-1.1-1.5-2.2-2.7-3.2-3.8C718.7,95.9,718,95.5,717.4,95.8z M718.2,88.6c0,0.7,0.3,1.3,0.9,1.8
		c0.6,0.5,1.1,0.5,1.6,0.1c0.3-0.4,1.1-1.3,2.3-2.5c1.2-1.3,1.8-2.6,1.8-4.1c0-0.5,0-1.3-0.1-2.3c-0.1-1-0.1-2-0.2-3
		c-0.3-0.9-0.6-2-0.8-3.1c0.2,0,0.5-0.1,0.8-0.3l0.8-0.8c0-0.3-0.4-0.6-1.3-0.9l-1.1-0.6c-0.1-0.1-0.3-0.4-0.5-0.8
		c-0.4-0.4-0.5-0.8-0.3-1.3c0.2-0.4-0.6-1.7-2.3-4c-1.8-2.2-3.3-3.8-4.7-4.6c-1.6-0.9-3.9-2.1-7-3.4c-3.1-1.3-5.1-2-5.9-2h-2.7
		c-0.5,0-0.8-0.1-0.9-0.2c3.2,1.1,6.3,2.2,9.1,3.1c2.4,1,4.6,2.2,6.7,3.4c2.1,1.3,3.6,2.5,4.5,3.6c0.7,1.3,1.3,2.2,1.6,3
		c0.4,0.7,0.8,1.4,1.2,2c0.3,0.6,0.5,1.1,0.5,1.4l0.3,1.6l0.6,1.3c0.4,1.6,0.7,3,0.9,4.2c0.3,1.1,0.3,2.3,0.1,3.5
		c-0.3,1.2-0.7,2.1-1.3,2.6c-1,0.7-1.8,1.2-2.3,1.3s-0.9,0.4-1.3,0.7L718.2,88.6z"/>
</g>
</svg>
