<?xml version="1.0" encoding="utf-8"?>
<!-- Generator: Adobe Illustrator 19.2.0, SVG Export Plug-In . SVG Version: 6.00 Build 0)  -->
<svg version="1.1" id="Layer_1" xmlns="http://www.w3.org/2000/svg" xmlns:xlink="http://www.w3.org/1999/xlink" x="0px" y="0px"
	 viewBox="0 0 720.6 200" style="enable-background:new 0 0 720.6 200;" xml:space="preserve">
<style type="text/css">
	.st0{fill:#23489E;}
	.st1{font-family:'Garamond';}
	.st2{font-size:64.9105px;}
	.st3{enable-background:new    ;}
	.st4{letter-spacing:1;}
	.st5{letter-spacing:5;}
	.st6{letter-spacing:-3;}
	.st7{letter-spacing:2;}
	.st8{letter-spacing:3;}
	.st9{letter-spacing:-1;}
</style>
<g>
	<g>
		<path class="st0" d="M327.7,72.1l45.2,54.1l10.6-10.6l-21.1-25.1l21.8-18.2c5-4,8.9-8.6,11.6-13.2c2.6-4.6,4.3-9.6,5-14.5
			s0-9.9-1.7-14.9c-1.7-5-4.3-9.9-8.3-14.5c-3.6-4.3-7.6-7.6-12.5-9.6c-4.6-2.3-9.9-3.6-14.9-4c-5.3-0.3-10.6,0.3-15.8,2.3
			c-5.3,1.7-10.2,4.3-14.5,8.3c-4.6,4-8.6,8.3-10.9,13.5c-2.6,5-4.3,10.2-4.6,15.5c-0.3,5.3,0,10.6,2,16.2
			C320.7,62.2,323.7,67.5,327.7,72.1z M334.9,31.5c1.7-3.3,4.3-5.9,7.3-8.6c3-2.6,6.3-4.3,9.9-5.6c3.3-1,6.9-1.7,10.2-1.3
			c3.3,0.3,6.6,1,9.6,2.6c3,1.3,5.6,3.6,7.9,6.3c5,5.9,6.9,11.9,6.6,18.5c-0.7,6.6-4.3,12.5-10.9,18.2l-21.8,18.2l-13.9-16.8
			c-2.6-3.3-4.6-6.9-5.9-10.6c-1.3-3.6-1.7-7.3-1.3-10.6C331.9,38.1,332.9,34.8,334.9,31.5z"/>
		<polygon class="st0" points="424.7,164.8 414.5,152.6 396.7,131.5 386.1,142.4 407.5,167.8 416.5,178.7 430.3,195.5 450.5,195.2 
					"/>
		<path class="st0" d="M402.6,173.8c-4.3,4.3-8.9,7.3-14.5,9.2c-5.3,2-10.9,3-16.8,2.6c-5.6-0.3-11.6-1.7-17.2-4
			c-5.6-2.3-10.6-5.6-15.2-10.2c-4.3-4.3-7.3-8.6-9.6-14.2c-2.3-5.6-3.6-11.2-4-16.8c-0.3-5.6,0.7-11.2,2.6-16.8c1-3,3-5.9,5-8.3
			c1.7-1.7,3-3,5-5l-7.9-9.6c-2,1.7-5.9,5.6-7.6,7.3c-3.3,4.3-4.3,5.6-7.3,12.2c-2.6,6.9-3.6,12.9-3.3,20.1
			c0.3,7.6,1.7,14.9,4.6,22.1s6.9,12.9,12.5,18.8c5.9,5.9,12.5,10.2,19.8,13.2c7.3,3,13.9,5.3,21.5,5.3c7.6,0,15.5-1.7,22.4-4.6
			c6.9-2.6,13.5-6.9,19.1-12.5c0.7-0.7,1.3-1.3,2-2l-8.9-10.6C404.2,171.8,403.6,172.8,402.6,173.8z"/>
		<path class="st0" d="M375.2,129.2l-8.3,8.3l8.9,10.6l8.3-8.6l10.6-10.9l10.6-10.9c3.3,4,5.9,8.6,7.6,13.2
			c1.7,4.6,2.6,9.6,2.3,14.5c0,0.7,0,1.3,0,2l11.2,13.2c2-5.6,3-11.6,3-17.5c-0.3-6.9-2-14.2-5-21.1c-3.3-6.9-7.9-13.5-14.2-19.8
			l-4.3-4.3L386.1,118L375.2,129.2z"/>
	</g>
	<g>
		<text transform="matrix(1 0 0 1 2.1381 150.5948)" class="st1 st2">P</text>
		<text transform="matrix(1 0 0 1 38.7836 150.5948)" class="st1 st2">R</text>
		<text transform="matrix(1 0 0 1 76.7445 150.5948)" class="st1 st2">O</text>
		<text transform="matrix(1 0 0 1 127.2533 150.5948)" class="st3"><tspan x="0" y="0" class="st1 st2 st4">CT</tspan><tspan x="83.7" y="0" class="st1 st2 st5">E</tspan></text>
		<text transform="matrix(1 0 0 1 255.0072 150.5948)" class="st1 st2">R</text>
	</g>
	<g>
		<text transform="matrix(1 0 0 1 444.1927 145.6006)" class="st1 st2 st6">G</text>
		<text transform="matrix(1 0 0 1 491.7064 145.6006)" class="st1 st2 st7">A</text>
		<text transform="matrix(1 0 0 1 538.9379 145.6006)" class="st1 st2 st8">M</text>
		<text transform="matrix(1 0 0 1 597.3929 145.6006)" class="st3"><tspan x="0" y="0" class="st1 st2">B</tspan><tspan x="39.9" y="0" class="st1 st2 st9">L</tspan></text>
		<text transform="matrix(1 0 0 1 675.2982 145.6006)" class="st1 st2">E</text>
	</g>
</g>
</svg>
