<?xml version="1.0" encoding="utf-8"?>
<!-- Generator: Adobe Illustrator 19.2.0, SVG Export Plug-In . SVG Version: 6.00 Build 0)  -->
<svg version="1.1" id="Layer_1" xmlns="http://www.w3.org/2000/svg" xmlns:xlink="http://www.w3.org/1999/xlink" x="0px" y="0px"
	 viewBox="0 0 500 200" style="enable-background:new 0 0 500 200;" xml:space="preserve">
<style type="text/css">
	.st0{fill:#23489E;}
	.st1{font-family:'Garamond';}
	.st2{font-size:39.2873px;}
	.st3{enable-background:new    ;}
	.st4{letter-spacing:3;}
	.st5{letter-spacing:-1;}
	.st6{letter-spacing:1;}
</style>
<g>
	<g>
		<path class="st0" d="M230.5,82.6l27.4,32.8l6.4-6.4l-12.8-15.2l13.2-11c3-2.4,5.4-5.2,7-8c1.6-2.8,2.6-5.8,3-8.8c0.4-3,0-6-1-9
			c-1-3-2.6-6-5-8.8c-2.2-2.6-4.6-4.6-7.6-5.8c-2.8-1.4-6-2.2-9-2.4c-3.2-0.2-6.4,0.2-9.6,1.4c-3.2,1-6.2,2.6-8.8,5
			c-2.8,2.4-5.2,5-6.6,8.2c-1.6,3-2.6,6.2-2.8,9.4c-0.2,3.2,0,6.4,1.2,9.8C226.3,76.7,228.1,79.8,230.5,82.6z M234.9,58.1
			c1-2,2.6-3.6,4.4-5.2c1.8-1.6,3.8-2.6,6-3.4c2-0.6,4.2-1,6.2-0.8c2,0.2,4,0.6,5.8,1.6c1.8,0.8,3.4,2.2,4.8,3.8
			c3,3.6,4.2,7.2,4,11.2c-0.4,4-2.6,7.6-6.6,11l-13.2,11l-8.4-10.2c-1.6-2-2.8-4.2-3.6-6.4c-0.8-2.2-1-4.4-0.8-6.4
			C233.1,62.1,233.7,60.1,234.9,58.1z"/>
		<polygon class="st0" points="289.2,138.8 283,131.4 272.2,118.6 265.8,125.2 278.8,140.6 284.2,147.2 292.6,157.4 304.8,157.2 		
			"/>
		<path class="st0" d="M275.8,144.2c-2.6,2.6-5.4,4.4-8.8,5.6c-3.2,1.2-6.6,1.8-10.2,1.6c-3.4-0.2-7-1-10.4-2.4
			c-3.4-1.4-6.4-3.4-9.2-6.2c-2.6-2.6-4.4-5.2-5.8-8.6s-2.2-6.8-2.4-10.2c-0.2-3.4,0.4-6.8,1.6-10.2c0.6-1.8,1.8-3.6,3-5
			c1-1,1.8-1.8,3-3l-4.8-5.8c-1.2,1-3.6,3.4-4.6,4.4c-2,2.6-2.6,3.4-4.4,7.4c-1.6,4.2-2.2,7.8-2,12.2c0.2,4.6,1,9,2.8,13.4
			c1.8,4.4,4.2,7.8,7.6,11.4c3.6,3.6,7.6,6.2,12,8c4.4,1.8,8.4,3.2,13,3.2c4.6,0,9.4-1,13.6-2.8c4.2-1.6,8.2-4.2,11.6-7.6
			c0.4-0.4,0.8-0.8,1.2-1.2l-5.4-6.4C276.8,143,276.4,143.6,275.8,144.2z"/>
		<path class="st0" d="M259.2,117.2l-5,5l5.4,6.4l5-5.2l6.4-6.6l6.4-6.6c2,2.4,3.6,5.2,4.6,8s1.6,5.8,1.4,8.8c0,0.4,0,0.8,0,1.2
			l6.8,8c1.2-3.4,1.8-7,1.8-10.6c-0.2-4.2-1.2-8.6-3-12.8c-2-4.2-4.8-8.2-8.6-12l-2.6-2.6l-12,12.2L259.2,117.2z"/>
	</g>
	<g>
		<text transform="matrix(1 0 0 1 33.4331 130.1659)" class="st1 st2">P</text>
		<text transform="matrix(1 0 0 1 55.6123 130.1659)" class="st1 st2">R</text>
		<text transform="matrix(1 0 0 1 78.5884 130.1659)" class="st1 st2">O</text>
		<text transform="matrix(1 0 0 1 109.1597 130.1659)" class="st3"><tspan x="0" y="0" class="st1 st2">CT</tspan><tspan x="50.7" y="0" class="st1 st2 st4">E</tspan></text>
		<text transform="matrix(1 0 0 1 186.4829 130.1659)" class="st1 st2">R</text>
	</g>
	<g>
		<text transform="matrix(1 0 0 1 300.9873 127.1434)" class="st1 st2 st5">G</text>
		<text transform="matrix(1 0 0 1 329.7461 127.1434)" class="st1 st2 st6">A</text>
		<text transform="matrix(1 0 0 1 358.333 127.1434)" class="st1 st2 st6">M</text>
		<text transform="matrix(1 0 0 1 393.7119 127.1434)" class="st3"><tspan x="0" y="0" class="st1 st2">B</tspan><tspan x="24.2" y="0" class="st1 st2">L</tspan></text>
		<text transform="matrix(1 0 0 1 440.8643 127.1434)" class="st1 st2">E</text>
	</g>
</g>
</svg>
