<?xml version="1.0" encoding="utf-8"?>
<!-- Generator: Adobe Illustrator 19.2.0, SVG Export Plug-In . SVG Version: 6.00 Build 0)  -->
<svg version="1.1" xmlns="http://www.w3.org/2000/svg" xmlns:xlink="http://www.w3.org/1999/xlink" x="0px" y="0px"
	 viewBox="0 0 1000 1000" style="enable-background:new 0 0 1000 1000;" xml:space="preserve">
<style type="text/css">
	.st0{fill:none;stroke:#000000;stroke-width:2;stroke-miterlimit:10;}
</style>
<g id="Layer_1">
</g>
<g id="Layer_2">
	<g>
		<line class="st0" x1="625.7" y1="973.3" x2="1000.4" y2="598.6"/>
		<line class="st0" x1="500.2" y1="849.4" x2="500.2" y2="598.9"/>
		<line class="st0" x1="625.7" y1="849.4" x2="625.7" y2="598.9"/>
		<line class="st0" x1="625.7" y1="849.4" x2="876.5" y2="598.7"/>
		<line class="st0" x1="625.7" y1="598.9" x2="751.3" y2="473.3"/>
		<line class="st0" x1="625.7" y1="473.5" x2="500.3" y2="598.9"/>
		<line class="st0" x1="374.6" y1="972.3" x2="625.7" y2="972.3"/>
		<line class="st0" x1="374.7" y1="972.3" x2="0" y2="597.6"/>
		<line class="st0" x1="500.2" y1="848.4" x2="500.2" y2="597.9"/>
		<line class="st0" x1="374.6" y1="848.4" x2="374.6" y2="597.9"/>
		<line class="st0" x1="374.6" y1="848.4" x2="123.9" y2="597.7"/>
		<line class="st0" x1="374.6" y1="597.9" x2="249.1" y2="472.3"/>
		<line class="st0" x1="374.6" y1="472.5" x2="500.1" y2="597.9"/>
	</g>
	<g>
		<line class="st0" x1="374.7" y1="26.4" x2="0" y2="401"/>
		<line class="st0" x1="500.2" y1="150.2" x2="500.2" y2="400.8"/>
		<line class="st0" x1="374.6" y1="150.2" x2="374.6" y2="400.8"/>
		<line class="st0" x1="374.6" y1="150.2" x2="123.9" y2="400.9"/>
		<line class="st0" x1="374.6" y1="400.8" x2="249.1" y2="526.3"/>
		<line class="st0" x1="374.6" y1="526.1" x2="500.1" y2="400.7"/>
		<line class="st0" x1="625.7" y1="27.3" x2="374.6" y2="27.3"/>
		<line class="st0" x1="625.7" y1="27.3" x2="1000.4" y2="402"/>
		<line class="st0" x1="500.2" y1="151.2" x2="500.2" y2="401.8"/>
		<line class="st0" x1="625.7" y1="151.2" x2="625.7" y2="401.8"/>
		<line class="st0" x1="625.7" y1="151.2" x2="876.5" y2="401.9"/>
		<line class="st0" x1="625.7" y1="401.8" x2="751.3" y2="527.3"/>
		<line class="st0" x1="625.7" y1="527.1" x2="500.3" y2="401.7"/>
	</g>
	<g>
		<line class="st0" x1="254.1" y1="921.2" x2="784" y2="921.2"/>
		<line class="st0" x1="253" y1="744.9" x2="430.1" y2="567.7"/>
		<line class="st0" x1="341.7" y1="833.7" x2="518.9" y2="656.5"/>
		<line class="st0" x1="341.7" y1="833.7" x2="696.3" y2="833.7"/>
		<line class="st0" x1="518.9" y1="656.5" x2="696.5" y2="656.5"/>
		<line class="st0" x1="607.6" y1="567.9" x2="430.1" y2="567.9"/>
		<line class="st0" x1="77.3" y1="743" x2="254.9" y2="920.5"/>
		<line class="st0" x1="77.3" y1="743" x2="77.3" y2="213.2"/>
		<line class="st0" x1="253.7" y1="744.2" x2="430.8" y2="567"/>
		<line class="st0" x1="164.9" y1="655.4" x2="342.1" y2="478.2"/>
		<line class="st0" x1="164.9" y1="655.4" x2="164.9" y2="300.8"/>
		<line class="st0" x1="342.1" y1="478.2" x2="342.1" y2="300.7"/>
		<line class="st0" x1="430.7" y1="389.6" x2="430.7" y2="567"/>
	</g>
	<g>
		<line class="st0" x1="746.2" y1="74.2" x2="216.4" y2="74.2"/>
		<line class="st0" x1="747.4" y1="250.5" x2="570.2" y2="427.7"/>
		<line class="st0" x1="658.6" y1="161.7" x2="481.4" y2="338.9"/>
		<line class="st0" x1="658.6" y1="161.7" x2="304" y2="161.7"/>
		<line class="st0" x1="481.4" y1="338.9" x2="303.8" y2="338.9"/>
		<line class="st0" x1="392.8" y1="427.5" x2="570.2" y2="427.5"/>
		<line class="st0" x1="923" y1="252.4" x2="745.5" y2="74.8"/>
		<line class="st0" x1="923" y1="252.4" x2="923" y2="782.2"/>
		<line class="st0" x1="746.7" y1="251.2" x2="569.5" y2="428.4"/>
		<line class="st0" x1="835.5" y1="339.9" x2="658.3" y2="517.1"/>
		<line class="st0" x1="835.5" y1="339.9" x2="835.5" y2="694.5"/>
		<line class="st0" x1="658.3" y1="517.1" x2="658.3" y2="694.7"/>
		<line class="st0" x1="569.6" y1="605.8" x2="569.6" y2="428.4"/>
	</g>
	<g>
		<line class="st0" x1="77.5" y1="252.5" x2="77.5" y2="782.4"/>
		<line class="st0" x1="253.8" y1="251.3" x2="431" y2="428.5"/>
		<line class="st0" x1="165" y1="340.1" x2="342.2" y2="517.3"/>
		<line class="st0" x1="165" y1="340.1" x2="165" y2="694.7"/>
		<line class="st0" x1="342.2" y1="517.3" x2="342.2" y2="694.9"/>
		<line class="st0" x1="430.9" y1="605.9" x2="430.9" y2="428.5"/>
		<line class="st0" x1="255.7" y1="75.7" x2="78.2" y2="253.2"/>
		<line class="st0" x1="255.7" y1="75.7" x2="785.5" y2="75.7"/>
		<line class="st0" x1="254.5" y1="252" x2="431.7" y2="429.2"/>
		<line class="st0" x1="343.3" y1="163.2" x2="520.5" y2="340.4"/>
		<line class="st0" x1="343.3" y1="163.2" x2="697.9" y2="163.2"/>
		<line class="st0" x1="520.5" y1="340.4" x2="698.1" y2="340.4"/>
		<line class="st0" x1="609.1" y1="429.1" x2="431.7" y2="429.1"/>
	</g>
	<g>
		<line class="st0" x1="924.6" y1="744.6" x2="924.6" y2="214.7"/>
		<line class="st0" x1="748.2" y1="745.8" x2="571.1" y2="568.6"/>
		<line class="st0" x1="837" y1="657" x2="659.8" y2="479.8"/>
		<line class="st0" x1="837" y1="657" x2="837" y2="302.4"/>
		<line class="st0" x1="659.8" y1="479.8" x2="659.8" y2="302.2"/>
		<line class="st0" x1="571.2" y1="391.2" x2="571.2" y2="568.6"/>
		<line class="st0" x1="746.3" y1="921.4" x2="923.9" y2="743.8"/>
		<line class="st0" x1="746.4" y1="921.4" x2="216.5" y2="921.4"/>
		<line class="st0" x1="747.5" y1="745.1" x2="570.4" y2="567.9"/>
		<line class="st0" x1="658.8" y1="833.8" x2="481.6" y2="656.6"/>
		<line class="st0" x1="658.8" y1="833.8" x2="304.2" y2="833.8"/>
		<line class="st0" x1="481.6" y1="656.6" x2="304" y2="656.6"/>
		<line class="st0" x1="392.9" y1="568" x2="570.4" y2="568"/>
	</g>
	<g>
		<line class="st0" x1="26.7" y1="625.7" x2="401.4" y2="1000.4"/>
		<line class="st0" x1="150.5" y1="500.2" x2="401.1" y2="500.2"/>
		<line class="st0" x1="150.5" y1="625.7" x2="401.1" y2="625.7"/>
		<line class="st0" x1="150.5" y1="625.7" x2="401.3" y2="876.5"/>
		<line class="st0" x1="401.1" y1="625.7" x2="526.7" y2="751.3"/>
		<line class="st0" x1="526.5" y1="625.7" x2="401" y2="500.3"/>
		<line class="st0" x1="27.7" y1="374.6" x2="27.7" y2="625.7"/>
		<line class="st0" x1="27.7" y1="374.7" x2="402.4" y2="0"/>
		<line class="st0" x1="151.5" y1="500.2" x2="402.1" y2="500.2"/>
		<line class="st0" x1="151.5" y1="374.6" x2="402.1" y2="374.6"/>
		<line class="st0" x1="151.5" y1="374.6" x2="402.3" y2="123.9"/>
		<line class="st0" x1="402.1" y1="374.6" x2="527.7" y2="249.1"/>
		<line class="st0" x1="527.5" y1="374.6" x2="402" y2="500.1"/>
	</g>
	<g>
		<line class="st0" x1="973.6" y1="374.7" x2="599" y2="0"/>
		<line class="st0" x1="849.8" y1="500.2" x2="599.2" y2="500.2"/>
		<line class="st0" x1="849.8" y1="374.6" x2="599.2" y2="374.6"/>
		<line class="st0" x1="849.8" y1="374.6" x2="599.1" y2="123.9"/>
		<line class="st0" x1="599.2" y1="374.6" x2="473.6" y2="249.1"/>
		<line class="st0" x1="473.9" y1="374.6" x2="599.3" y2="500.1"/>
		<line class="st0" x1="972.6" y1="625.7" x2="972.6" y2="374.6"/>
		<line class="st0" x1="972.6" y1="625.7" x2="598" y2="1000.4"/>
		<line class="st0" x1="848.8" y1="500.2" x2="598.2" y2="500.2"/>
		<line class="st0" x1="848.8" y1="625.7" x2="598.2" y2="625.7"/>
		<line class="st0" x1="848.8" y1="625.7" x2="598.1" y2="876.5"/>
		<line class="st0" x1="598.2" y1="625.7" x2="472.6" y2="751.3"/>
		<line class="st0" x1="472.9" y1="625.7" x2="598.3" y2="500.3"/>
	</g>
</g>
</svg>
