<?xml version="1.0" encoding="utf-8"?>
<!-- Generator: Adobe Illustrator 19.2.0, SVG Export Plug-In . SVG Version: 6.00 Build 0)  -->
<svg version="1.1" xmlns="http://www.w3.org/2000/svg" xmlns:xlink="http://www.w3.org/1999/xlink" x="0px" y="0px"
	 viewBox="0 0 720 720" enable-background="new 0 0 720 720" xml:space="preserve">
<g id="ROW1_C">
</g>
<g id="ROW2_C">
</g>
<g id="ROW3_C">
</g>
<g id="ROW1_R">
</g>
<g id="ROW2_R">
</g>
<g id="ROW3_R_1_">
</g>
<g id="ROW4_R">
	<g>
		<line fill="none" stroke="#000000" stroke-miterlimit="10" x1="399.2" y1="488.3" x2="508.1" y2="379.4"/>
		<line fill="none" stroke="#000000" stroke-miterlimit="10" x1="362.7" y1="452.3" x2="362.7" y2="379.5"/>
		<line fill="none" stroke="#000000" stroke-miterlimit="10" x1="399.2" y1="452.3" x2="399.2" y2="379.5"/>
		<line fill="none" stroke="#000000" stroke-miterlimit="10" x1="399.2" y1="452.3" x2="472.1" y2="379.4"/>
		<line fill="none" stroke="#000000" stroke-miterlimit="10" x1="399.2" y1="379.5" x2="435.7" y2="343"/>
		<line fill="none" stroke="#000000" stroke-miterlimit="10" x1="399.2" y1="343" x2="362.7" y2="379.5"/>
		<line fill="none" stroke="#000000" stroke-miterlimit="10" x1="326.2" y1="488" x2="399.2" y2="488"/>
		<line fill="none" stroke="#000000" stroke-miterlimit="10" x1="326.2" y1="488" x2="217.4" y2="379.1"/>
		<line fill="none" stroke="#000000" stroke-miterlimit="10" x1="362.7" y1="452" x2="362.7" y2="379.2"/>
		<line fill="none" stroke="#000000" stroke-miterlimit="10" x1="326.2" y1="452" x2="326.2" y2="379.2"/>
		<line fill="none" stroke="#000000" stroke-miterlimit="10" x1="326.2" y1="452" x2="253.4" y2="379.1"/>
		<line fill="none" stroke="#000000" stroke-miterlimit="10" x1="326.2" y1="379.2" x2="289.7" y2="342.7"/>
		<line fill="none" stroke="#000000" stroke-miterlimit="10" x1="326.2" y1="342.7" x2="362.7" y2="379.2"/>
	</g>
	<g>
		<line fill="none" stroke="#000000" stroke-miterlimit="10" x1="326.2" y1="213.1" x2="217.4" y2="322"/>
		<line fill="none" stroke="#000000" stroke-miterlimit="10" x1="362.7" y1="249.1" x2="362.7" y2="321.9"/>
		<line fill="none" stroke="#000000" stroke-miterlimit="10" x1="326.2" y1="249.1" x2="326.2" y2="321.9"/>
		<line fill="none" stroke="#000000" stroke-miterlimit="10" x1="326.2" y1="249.1" x2="253.4" y2="321.9"/>
		<line fill="none" stroke="#000000" stroke-miterlimit="10" x1="326.2" y1="321.9" x2="289.7" y2="358.4"/>
		<line fill="none" stroke="#000000" stroke-miterlimit="10" x1="326.2" y1="358.3" x2="362.7" y2="321.9"/>
		<line fill="none" stroke="#000000" stroke-miterlimit="10" x1="399.2" y1="213.4" x2="326.2" y2="213.4"/>
		<line fill="none" stroke="#000000" stroke-miterlimit="10" x1="399.2" y1="213.4" x2="508.1" y2="322.3"/>
		<line fill="none" stroke="#000000" stroke-miterlimit="10" x1="362.7" y1="249.4" x2="362.7" y2="322.2"/>
		<line fill="none" stroke="#000000" stroke-miterlimit="10" x1="399.2" y1="249.4" x2="399.2" y2="322.2"/>
		<line fill="none" stroke="#000000" stroke-miterlimit="10" x1="399.2" y1="249.4" x2="472.1" y2="322.2"/>
		<line fill="none" stroke="#000000" stroke-miterlimit="10" x1="399.2" y1="322.2" x2="435.7" y2="358.7"/>
		<line fill="none" stroke="#000000" stroke-miterlimit="10" x1="399.2" y1="358.6" x2="362.7" y2="322.2"/>
	</g>
	<g>
		<line fill="none" stroke="#000000" stroke-miterlimit="10" x1="291.2" y1="473.1" x2="445.2" y2="473.1"/>
		<line fill="none" stroke="#000000" stroke-miterlimit="10" x1="290.9" y1="421.9" x2="342.4" y2="370.4"/>
		<line fill="none" stroke="#000000" stroke-miterlimit="10" x1="316.7" y1="447.7" x2="368.2" y2="396.2"/>
		<line fill="none" stroke="#000000" stroke-miterlimit="10" x1="316.7" y1="447.7" x2="419.7" y2="447.7"/>
		<line fill="none" stroke="#000000" stroke-miterlimit="10" x1="368.2" y1="396.2" x2="419.8" y2="396.2"/>
		<line fill="none" stroke="#000000" stroke-miterlimit="10" x1="393.9" y1="370.5" x2="342.4" y2="370.5"/>
		<line fill="none" stroke="#000000" stroke-miterlimit="10" x1="239.8" y1="421.4" x2="291.4" y2="472.9"/>
		<line fill="none" stroke="#000000" stroke-miterlimit="10" x1="239.8" y1="421.4" x2="239.8" y2="267.4"/>
		<line fill="none" stroke="#000000" stroke-miterlimit="10" x1="291.1" y1="421.7" x2="342.6" y2="370.2"/>
		<line fill="none" stroke="#000000" stroke-miterlimit="10" x1="265.3" y1="395.9" x2="316.8" y2="344.4"/>
		<line fill="none" stroke="#000000" stroke-miterlimit="10" x1="265.3" y1="395.9" x2="265.3" y2="292.9"/>
		<line fill="none" stroke="#000000" stroke-miterlimit="10" x1="316.8" y1="344.4" x2="316.8" y2="292.8"/>
		<line fill="none" stroke="#000000" stroke-miterlimit="10" x1="342.5" y1="318.7" x2="342.5" y2="370.2"/>
	</g>
	<g>
		<line fill="none" stroke="#000000" stroke-miterlimit="10" x1="434.2" y1="227" x2="280.2" y2="227"/>
		<line fill="none" stroke="#000000" stroke-miterlimit="10" x1="434.6" y1="278.2" x2="383.1" y2="329.7"/>
		<line fill="none" stroke="#000000" stroke-miterlimit="10" x1="408.8" y1="252.4" x2="357.3" y2="303.9"/>
		<line fill="none" stroke="#000000" stroke-miterlimit="10" x1="408.8" y1="252.4" x2="305.7" y2="252.4"/>
		<line fill="none" stroke="#000000" stroke-miterlimit="10" x1="357.3" y1="303.9" x2="305.7" y2="303.9"/>
		<line fill="none" stroke="#000000" stroke-miterlimit="10" x1="331.5" y1="329.7" x2="383.1" y2="329.7"/>
		<line fill="none" stroke="#000000" stroke-miterlimit="10" x1="485.6" y1="278.8" x2="434" y2="227.2"/>
		<line fill="none" stroke="#000000" stroke-miterlimit="10" x1="485.6" y1="278.8" x2="485.6" y2="432.7"/>
		<line fill="none" stroke="#000000" stroke-miterlimit="10" x1="434.4" y1="278.4" x2="382.9" y2="329.9"/>
		<line fill="none" stroke="#000000" stroke-miterlimit="10" x1="460.2" y1="304.2" x2="408.7" y2="355.7"/>
		<line fill="none" stroke="#000000" stroke-miterlimit="10" x1="460.2" y1="304.2" x2="460.2" y2="407.3"/>
		<line fill="none" stroke="#000000" stroke-miterlimit="10" x1="408.7" y1="355.7" x2="408.7" y2="407.3"/>
		<line fill="none" stroke="#000000" stroke-miterlimit="10" x1="382.9" y1="381.5" x2="382.9" y2="329.9"/>
	</g>
	<g>
		<line fill="none" stroke="#000000" stroke-miterlimit="10" x1="239.9" y1="278.8" x2="239.9" y2="432.8"/>
		<line fill="none" stroke="#000000" stroke-miterlimit="10" x1="291.1" y1="278.5" x2="342.6" y2="330"/>
		<line fill="none" stroke="#000000" stroke-miterlimit="10" x1="265.3" y1="304.3" x2="316.8" y2="355.8"/>
		<line fill="none" stroke="#000000" stroke-miterlimit="10" x1="265.3" y1="304.3" x2="265.3" y2="407.3"/>
		<line fill="none" stroke="#000000" stroke-miterlimit="10" x1="316.8" y1="355.8" x2="316.8" y2="407.4"/>
		<line fill="none" stroke="#000000" stroke-miterlimit="10" x1="342.6" y1="381.5" x2="342.6" y2="330"/>
		<line fill="none" stroke="#000000" stroke-miterlimit="10" x1="291.7" y1="227.4" x2="240.1" y2="279"/>
		<line fill="none" stroke="#000000" stroke-miterlimit="10" x1="291.7" y1="227.4" x2="445.6" y2="227.4"/>
		<line fill="none" stroke="#000000" stroke-miterlimit="10" x1="291.3" y1="278.7" x2="342.8" y2="330.2"/>
		<line fill="none" stroke="#000000" stroke-miterlimit="10" x1="317.1" y1="252.9" x2="368.6" y2="304.4"/>
		<line fill="none" stroke="#000000" stroke-miterlimit="10" x1="317.1" y1="252.9" x2="420.2" y2="252.9"/>
		<line fill="none" stroke="#000000" stroke-miterlimit="10" x1="368.6" y1="304.4" x2="420.2" y2="304.4"/>
		<line fill="none" stroke="#000000" stroke-miterlimit="10" x1="394.4" y1="330.1" x2="342.8" y2="330.1"/>
	</g>
	<g>
		<line fill="none" stroke="#000000" stroke-miterlimit="10" x1="486" y1="421.8" x2="486" y2="267.8"/>
		<line fill="none" stroke="#000000" stroke-miterlimit="10" x1="434.8" y1="422.2" x2="383.3" y2="370.7"/>
		<line fill="none" stroke="#000000" stroke-miterlimit="10" x1="460.6" y1="396.4" x2="409.1" y2="344.9"/>
		<line fill="none" stroke="#000000" stroke-miterlimit="10" x1="460.6" y1="396.4" x2="460.6" y2="293.3"/>
		<line fill="none" stroke="#000000" stroke-miterlimit="10" x1="409.1" y1="344.9" x2="409.1" y2="293.3"/>
		<line fill="none" stroke="#000000" stroke-miterlimit="10" x1="383.4" y1="319.1" x2="383.4" y2="370.7"/>
		<line fill="none" stroke="#000000" stroke-miterlimit="10" x1="434.2" y1="473.2" x2="485.8" y2="421.6"/>
		<line fill="none" stroke="#000000" stroke-miterlimit="10" x1="434.3" y1="473.2" x2="280.3" y2="473.2"/>
		<line fill="none" stroke="#000000" stroke-miterlimit="10" x1="434.6" y1="421.9" x2="383.1" y2="370.5"/>
		<line fill="none" stroke="#000000" stroke-miterlimit="10" x1="408.8" y1="447.7" x2="357.3" y2="396.3"/>
		<line fill="none" stroke="#000000" stroke-miterlimit="10" x1="408.8" y1="447.7" x2="305.8" y2="447.7"/>
		<line fill="none" stroke="#000000" stroke-miterlimit="10" x1="357.3" y1="396.3" x2="305.7" y2="396.3"/>
		<line fill="none" stroke="#000000" stroke-miterlimit="10" x1="331.6" y1="370.5" x2="383.1" y2="370.5"/>
	</g>
	<g>
		<line fill="none" stroke="#000000" stroke-miterlimit="10" x1="225.1" y1="387.3" x2="334" y2="496.1"/>
		<line fill="none" stroke="#000000" stroke-miterlimit="10" x1="261.1" y1="350.8" x2="333.9" y2="350.8"/>
		<line fill="none" stroke="#000000" stroke-miterlimit="10" x1="261.1" y1="387.3" x2="333.9" y2="387.3"/>
		<line fill="none" stroke="#000000" stroke-miterlimit="10" x1="261.1" y1="387.3" x2="334" y2="460.1"/>
		<line fill="none" stroke="#000000" stroke-miterlimit="10" x1="333.9" y1="387.3" x2="370.4" y2="423.8"/>
		<line fill="none" stroke="#000000" stroke-miterlimit="10" x1="370.4" y1="387.3" x2="333.9" y2="350.8"/>
		<line fill="none" stroke="#000000" stroke-miterlimit="10" x1="225.4" y1="314.3" x2="225.4" y2="387.3"/>
		<line fill="none" stroke="#000000" stroke-miterlimit="10" x1="225.4" y1="314.3" x2="334.3" y2="205.4"/>
		<line fill="none" stroke="#000000" stroke-miterlimit="10" x1="261.4" y1="350.8" x2="334.2" y2="350.8"/>
		<line fill="none" stroke="#000000" stroke-miterlimit="10" x1="261.4" y1="314.3" x2="334.2" y2="314.3"/>
		<line fill="none" stroke="#000000" stroke-miterlimit="10" x1="261.4" y1="314.3" x2="334.3" y2="241.4"/>
		<line fill="none" stroke="#000000" stroke-miterlimit="10" x1="334.2" y1="314.3" x2="370.7" y2="277.8"/>
		<line fill="none" stroke="#000000" stroke-miterlimit="10" x1="370.7" y1="314.3" x2="334.2" y2="350.8"/>
	</g>
	<g>
		<line fill="none" stroke="#000000" stroke-miterlimit="10" x1="500.3" y1="314.3" x2="391.4" y2="205.4"/>
		<line fill="none" stroke="#000000" stroke-miterlimit="10" x1="464.3" y1="350.8" x2="391.5" y2="350.8"/>
		<line fill="none" stroke="#000000" stroke-miterlimit="10" x1="464.3" y1="314.3" x2="391.5" y2="314.3"/>
		<line fill="none" stroke="#000000" stroke-miterlimit="10" x1="464.3" y1="314.3" x2="391.5" y2="241.4"/>
		<line fill="none" stroke="#000000" stroke-miterlimit="10" x1="391.5" y1="314.3" x2="355" y2="277.8"/>
		<line fill="none" stroke="#000000" stroke-miterlimit="10" x1="355.1" y1="314.3" x2="391.5" y2="350.8"/>
		<line fill="none" stroke="#000000" stroke-miterlimit="10" x1="500" y1="387.3" x2="500" y2="314.3"/>
		<line fill="none" stroke="#000000" stroke-miterlimit="10" x1="500" y1="387.3" x2="391.1" y2="496.1"/>
		<line fill="none" stroke="#000000" stroke-miterlimit="10" x1="464" y1="350.8" x2="391.2" y2="350.8"/>
		<line fill="none" stroke="#000000" stroke-miterlimit="10" x1="464" y1="387.3" x2="391.2" y2="387.3"/>
		<line fill="none" stroke="#000000" stroke-miterlimit="10" x1="464" y1="387.3" x2="391.2" y2="460.1"/>
		<line fill="none" stroke="#000000" stroke-miterlimit="10" x1="391.2" y1="387.3" x2="354.7" y2="423.8"/>
		<line fill="none" stroke="#000000" stroke-miterlimit="10" x1="354.8" y1="387.3" x2="391.2" y2="350.8"/>
	</g>
</g>
<g id="ROW1_L">
</g>
<g id="ROW2_L_1_">
</g>
<g id="ROW3_L">
</g>
<g id="ROW4_L">
</g>
<g id="Layer_12">
</g>
</svg>
