<?xml version="1.0" encoding="utf-8"?>
<!-- Generator: Adobe Illustrator 19.2.0, SVG Export Plug-In . SVG Version: 6.00 Build 0)  -->
<svg version="1.1" xmlns="http://www.w3.org/2000/svg" xmlns:xlink="http://www.w3.org/1999/xlink" x="0px" y="0px"
	 viewBox="0 0 1000 1000" style="enable-background:new 0 0 1000 1000;" xml:space="preserve">
<style type="text/css">
	.st0{fill:none;stroke:#000000;stroke-miterlimit:10;}
	.st1{display:none;}
	.st2{display:inline;}
</style>
<g id="Layer_1">
	<g>
		<g>
			<g>
				<polyline class="st0" points="474.4,459.1 515.1,499.7 542.1,499.7 582.4,459.4 				"/>
				<polyline class="st0" points="555.6,445.7 541.9,459.4 541.9,486.5 569,459.2 				"/>
				<polyline class="st0" points="501.1,445.7 514.8,459.4 514.9,486.5 487.8,459.2 				"/>
				<polyline class="st0" points="514.5,445.7 528.6,459.6 542.6,445.7 				"/>
				<line class="st0" x1="528.5" y1="459.6" x2="528.5" y2="487.7"/>
			</g>
			<g>
				<polyline class="st0" points="582.4,432.2 541.8,391.7 514.8,391.7 474.4,431.9 				"/>
				<polyline class="st0" points="501.2,445.7 514.9,431.9 515,404.9 487.9,432.1 				"/>
				<polyline class="st0" points="555.7,445.7 542,431.9 542,404.9 569.1,432.1 				"/>
				<polyline class="st0" points="542.3,445.7 528.3,431.7 514.3,445.6 				"/>
				<line class="st0" x1="528.3" y1="431.7" x2="528.3" y2="403.7"/>
			</g>
		</g>
		<g>
			<g>
				<polyline class="st0" points="576.1,474.3 576,416.9 557,397.8 499.9,397.8 				"/>
				<polyline class="st0" points="509.2,426.4 528.6,426.4 547.8,407.3 509.4,407.4 				"/>
				<polyline class="st0" points="547.7,465 547.8,445.6 566.8,426.4 566.8,464.8 				"/>
				<polyline class="st0" points="538.3,455.5 538.2,435.7 518.4,435.6 				"/>
				<line class="st0" x1="538.2" y1="435.7" x2="558" y2="415.9"/>
			</g>
			<g>
				<polyline class="st0" points="480.7,417 480.8,474.4 499.9,493.5 556.9,493.5 				"/>
				<polyline class="st0" points="547.7,464.9 528.2,464.9 509.1,484 547.5,483.9 				"/>
				<polyline class="st0" points="509.1,426.4 509.1,445.8 490,464.9 490.1,426.5 				"/>
				<polyline class="st0" points="518.6,435.8 518.6,455.6 538.4,455.7 				"/>
				<line class="st0" x1="518.6" y1="455.6" x2="498.8" y2="475.4"/>
			</g>
		</g>
		<g>
			<g>
				<polyline class="st0" points="499.7,493.3 557.2,493.3 576.2,474.2 576.3,417.2 				"/>
				<polyline class="st0" points="547.7,426.4 547.7,445.8 566.8,465 566.7,426.6 				"/>
				<polyline class="st0" points="509.1,465 528.5,465 547.7,484.1 509.3,484 				"/>
				<polyline class="st0" points="518.6,455.5 538.4,455.5 538.4,435.7 				"/>
				<line class="st0" x1="538.4" y1="455.5" x2="558.2" y2="475.3"/>
			</g>
			<g>
				<polyline class="st0" points="557.1,398 499.7,398 480.6,417.1 480.5,474.1 				"/>
				<polyline class="st0" points="509.2,464.9 509.2,445.5 490.1,426.3 490.1,464.7 				"/>
				<polyline class="st0" points="547.7,426.3 528.3,426.3 509.2,407.2 547.6,407.3 				"/>
				<polyline class="st0" points="538.2,435.8 518.4,435.9 518.4,455.6 				"/>
				<line class="st0" x1="518.4" y1="435.9" x2="498.6" y2="416"/>
			</g>
		</g>
	</g>
	<g>
		<g>
			<g>
				<g>
					<polyline class="st0" points="668.9,459.2 709.4,499.7 736.4,499.7 776.9,459.2 					"/>
					<polyline class="st0" points="695.9,445.7 709.4,459.2 709.4,486.2 682.4,459.2 					"/>
					<polyline class="st0" points="749.9,445.7 736.4,459.2 736.4,486.2 763.4,459.2 					"/>
					<g>
						<polyline class="st0" points="709.4,445.7 722.9,459.2 736.4,445.7 						"/>
						<line class="st0" x1="722.9" y1="459.2" x2="722.9" y2="486.2"/>
					</g>
				</g>
				<g>
					<polyline class="st0" points="776.9,432.2 736.4,391.7 709.4,391.7 668.9,432.2 					"/>
					<polyline class="st0" points="749.9,445.7 736.4,432.2 736.4,405.2 763.4,432.2 					"/>
					<polyline class="st0" points="695.9,445.7 709.4,432.2 709.4,405.2 682.4,432.2 					"/>
					<g>
						<polyline class="st0" points="736.4,445.7 722.9,432.2 709.4,445.7 						"/>
						<line class="st0" x1="722.9" y1="432.2" x2="722.9" y2="405.2"/>
					</g>
				</g>
			</g>
			<g>
				<g>
					<polyline class="st0" points="736.4,499.7 776.9,459.2 776.9,432.2 736.4,391.7 					"/>
					<polyline class="st0" points="722.9,472.7 736.4,459.2 763.4,459.2 736.4,486.2 					"/>
					<polyline class="st0" points="722.9,418.7 736.4,432.2 763.4,432.2 736.4,405.2 					"/>
					<g>
						<polyline class="st0" points="722.9,459.2 736.4,445.7 722.9,432.2 						"/>
						<line class="st0" x1="736.4" y1="445.7" x2="763.4" y2="445.7"/>
					</g>
				</g>
				<g>
					<polyline class="st0" points="709.4,391.7 668.9,432.2 668.9,459.2 709.4,499.7 					"/>
					<polyline class="st0" points="722.9,418.7 709.4,432.2 682.4,432.2 709.4,405.2 					"/>
					<polyline class="st0" points="722.9,472.7 709.4,459.2 682.4,459.2 709.4,486.2 					"/>
					<g>
						<polyline class="st0" points="722.9,432.2 709.4,445.7 722.9,459.2 						"/>
						<line class="st0" x1="709.4" y1="445.7" x2="682.4" y2="445.7"/>
					</g>
				</g>
			</g>
		</g>
		<g>
			<g>
				<g>
					<polyline class="st0" points="694.2,493.4 751.5,493.4 770.6,474.3 770.6,417 					"/>
					<polyline class="st0" points="703.8,464.8 722.9,464.8 742,483.8 703.8,483.8 					"/>
					<polyline class="st0" points="742,426.6 742,445.7 761.1,464.7 761.1,426.6 					"/>
					<g>
						<polyline class="st0" points="713.3,455.2 732.4,455.2 732.4,436.1 						"/>
						<line class="st0" x1="732.4" y1="455.2" x2="751.5" y2="474.3"/>
					</g>
				</g>
				<g>
					<polyline class="st0" points="751.5,397.9 694.2,397.9 675.2,417 675.2,474.3 					"/>
					<polyline class="st0" points="742,426.6 722.9,426.6 703.8,407.5 742,407.5 					"/>
					<polyline class="st0" points="703.8,464.8 703.8,445.7 684.7,426.6 684.7,464.7 					"/>
					<g>
						<polyline class="st0" points="732.4,436.1 713.3,436.1 713.3,455.2 						"/>
						<line class="st0" x1="713.3" y1="436.1" x2="694.2" y2="417"/>
					</g>
				</g>
			</g>
			<g>
				<g>
					<polyline class="st0" points="770.6,474.3 770.6,417 751.5,397.9 694.2,397.9 					"/>
					<polyline class="st0" points="742,464.8 742,445.7 761.1,426.6 761.1,464.8 					"/>
					<polyline class="st0" points="703.8,426.6 722.9,426.6 742,407.5 703.8,407.5 					"/>
					<g>
						<polyline class="st0" points="732.4,455.2 732.4,436.1 713.3,436.1 						"/>
						<line class="st0" x1="732.4" y1="436.1" x2="751.5" y2="417"/>
					</g>
				</g>
				<g>
					<polyline class="st0" points="675.1,417 675.1,474.3 694.2,493.4 751.5,493.4 					"/>
					<polyline class="st0" points="703.8,426.6 703.8,445.7 684.7,464.7 684.7,426.6 					"/>
					<polyline class="st0" points="742,464.8 722.9,464.7 703.8,483.8 742,483.8 					"/>
					<g>
						<polyline class="st0" points="713.3,436.1 713.3,455.2 732.4,455.2 						"/>
						<line class="st0" x1="713.3" y1="455.2" x2="694.2" y2="474.3"/>
					</g>
				</g>
			</g>
		</g>
	</g>
	<g>
		<g>
			<g>
				<g>
					<polyline class="st0" points="683.3,743.3 723.8,783.8 750.8,783.8 791.3,743.3 					"/>
					<polyline class="st0" points="710.3,729.8 723.8,743.3 723.8,770.3 696.8,743.3 					"/>
					<polyline class="st0" points="764.3,729.8 750.8,743.3 750.8,770.3 777.8,743.3 					"/>
					<g>
						<polyline class="st0" points="723.8,729.8 737.3,743.3 750.8,729.8 						"/>
						<line class="st0" x1="737.3" y1="743.3" x2="737.3" y2="770.3"/>
					</g>
				</g>
				<g>
					<polyline class="st0" points="791.3,716.3 750.8,675.8 723.8,675.8 683.3,716.3 					"/>
					<polyline class="st0" points="764.3,729.8 750.8,716.3 750.8,689.3 777.8,716.3 					"/>
					<polyline class="st0" points="710.3,729.8 723.8,716.3 723.8,689.3 696.8,716.3 					"/>
					<g>
						<polyline class="st0" points="750.8,729.8 737.3,716.3 723.8,729.8 						"/>
						<line class="st0" x1="737.3" y1="716.3" x2="737.3" y2="689.3"/>
					</g>
				</g>
			</g>
			<g>
				<g>
					<polyline class="st0" points="750.8,783.8 791.3,743.3 791.3,716.3 750.8,675.8 					"/>
					<polyline class="st0" points="737.3,756.8 750.8,743.3 777.8,743.3 750.8,770.3 					"/>
					<polyline class="st0" points="737.3,702.8 750.8,716.3 777.8,716.3 750.8,689.3 					"/>
					<g>
						<polyline class="st0" points="737.3,743.3 750.8,729.8 737.3,716.3 						"/>
						<line class="st0" x1="750.8" y1="729.8" x2="777.8" y2="729.8"/>
					</g>
				</g>
				<g>
					<polyline class="st0" points="723.8,675.8 683.3,716.3 683.3,743.3 723.8,783.8 					"/>
					<polyline class="st0" points="737.3,702.8 723.8,716.3 696.8,716.3 723.8,689.3 					"/>
					<polyline class="st0" points="737.3,756.8 723.8,743.3 696.8,743.3 723.8,770.3 					"/>
					<g>
						<polyline class="st0" points="737.3,716.3 723.8,729.8 737.3,743.3 						"/>
						<line class="st0" x1="723.8" y1="729.8" x2="696.8" y2="729.8"/>
					</g>
				</g>
			</g>
		</g>
		<g>
			<g>
				<g>
					<polyline class="st0" points="708.6,777.6 765.9,777.6 785,758.5 785,701.2 					"/>
					<polyline class="st0" points="718.2,748.9 737.3,748.9 756.3,768 718.2,768 					"/>
					<polyline class="st0" points="756.4,710.8 756.3,729.8 775.4,748.9 775.4,710.8 					"/>
					<g>
						<polyline class="st0" points="727.7,739.4 746.8,739.4 746.8,720.3 						"/>
						<line class="st0" x1="746.8" y1="739.4" x2="765.9" y2="758.5"/>
					</g>
				</g>
				<g>
					<polyline class="st0" points="765.9,682.1 708.6,682.1 689.5,701.2 689.5,758.5 					"/>
					<polyline class="st0" points="756.4,710.8 737.3,710.8 718.2,691.7 756.4,691.7 					"/>
					<polyline class="st0" points="718.2,748.9 718.2,729.8 699.1,710.8 699.1,748.9 					"/>
					<g>
						<polyline class="st0" points="746.8,720.3 727.7,720.3 727.7,739.4 						"/>
						<line class="st0" x1="727.7" y1="720.3" x2="708.6" y2="701.2"/>
					</g>
				</g>
			</g>
			<g>
				<g>
					<polyline class="st0" points="785,758.5 785,701.2 765.9,682.1 708.6,682.1 					"/>
					<polyline class="st0" points="756.4,748.9 756.4,729.8 775.4,710.8 775.4,748.9 					"/>
					<polyline class="st0" points="718.2,710.8 737.3,710.8 756.3,691.7 718.2,691.7 					"/>
					<g>
						<polyline class="st0" points="746.8,739.4 746.8,720.3 727.7,720.3 						"/>
						<line class="st0" x1="746.8" y1="720.3" x2="765.9" y2="701.2"/>
					</g>
				</g>
				<g>
					<polyline class="st0" points="689.5,701.2 689.5,758.5 708.6,777.6 765.9,777.6 					"/>
					<polyline class="st0" points="718.2,710.8 718.2,729.8 699.1,748.9 699.1,710.8 					"/>
					<polyline class="st0" points="756.4,748.9 737.3,748.9 718.2,768 756.3,768 					"/>
					<g>
						<polyline class="st0" points="727.7,720.3 727.7,739.4 746.8,739.4 						"/>
						<line class="st0" x1="727.7" y1="739.4" x2="708.6" y2="758.5"/>
					</g>
				</g>
			</g>
		</g>
	</g>
	<g>
		<g>
			<g>
				<g>
					<polyline class="st0" points="503.4,743.3 543.9,783.8 570.9,783.8 611.4,743.3 					"/>
					<polyline class="st0" points="530.4,729.8 543.9,743.3 543.9,770.3 516.9,743.3 					"/>
					<polyline class="st0" points="584.4,729.8 570.9,743.3 570.9,770.3 597.9,743.3 					"/>
					<g>
						<polyline class="st0" points="543.9,729.8 557.4,743.3 570.9,729.8 						"/>
						<line class="st0" x1="557.4" y1="743.3" x2="557.4" y2="770.3"/>
					</g>
				</g>
				<g>
					<polyline class="st0" points="611.4,716.3 570.9,675.8 543.9,675.8 503.4,716.3 					"/>
					<polyline class="st0" points="584.4,729.8 570.9,716.3 570.9,689.3 597.9,716.3 					"/>
					<polyline class="st0" points="530.4,729.8 543.9,716.3 543.9,689.3 516.9,716.3 					"/>
					<g>
						<polyline class="st0" points="570.9,729.8 557.4,716.3 543.9,729.8 						"/>
						<line class="st0" x1="557.4" y1="716.3" x2="557.4" y2="689.3"/>
					</g>
				</g>
			</g>
			<g class="st1">
				<g class="st2">
					<polyline class="st0" points="570.9,783.8 611.4,743.3 611.4,716.3 570.9,675.8 					"/>
					<polyline class="st0" points="557.4,756.8 570.9,743.3 597.9,743.3 570.9,770.3 					"/>
					<polyline class="st0" points="557.4,702.8 570.9,716.3 597.9,716.3 570.9,689.3 					"/>
					<g>
						<polyline class="st0" points="557.4,743.3 570.9,729.8 557.4,716.3 						"/>
						<line class="st0" x1="570.9" y1="729.8" x2="597.9" y2="729.8"/>
					</g>
				</g>
				<g class="st2">
					<polyline class="st0" points="543.9,675.8 503.4,716.3 503.4,743.3 543.9,783.8 					"/>
					<polyline class="st0" points="557.4,702.8 543.9,716.3 516.9,716.3 543.9,689.3 					"/>
					<polyline class="st0" points="557.4,756.8 543.9,743.3 516.9,743.3 543.9,770.3 					"/>
					<g>
						<polyline class="st0" points="557.4,716.3 543.9,729.8 557.4,743.3 						"/>
						<line class="st0" x1="543.9" y1="729.8" x2="516.9" y2="729.8"/>
					</g>
				</g>
			</g>
		</g>
		<g>
			<g>
				<g>
					<polyline class="st0" points="570.9,783.8 611.4,743.3 611.4,716.3 570.9,675.8 					"/>
					<polyline class="st0" points="557.4,756.8 570.9,743.3 597.9,743.3 570.9,770.3 					"/>
					<polyline class="st0" points="557.4,702.8 570.9,716.3 597.9,716.3 570.9,689.3 					"/>
					<g>
						<polyline class="st0" points="557.4,743.3 570.9,729.8 557.4,716.3 						"/>
						<line class="st0" x1="570.9" y1="729.8" x2="597.9" y2="729.8"/>
					</g>
				</g>
				<g>
					<polyline class="st0" points="543.9,675.8 503.4,716.3 503.4,743.3 543.9,783.8 					"/>
					<polyline class="st0" points="557.4,702.8 543.9,716.3 516.9,716.3 543.9,689.3 					"/>
					<polyline class="st0" points="557.4,756.8 543.9,743.3 516.9,743.3 543.9,770.3 					"/>
					<g>
						<polyline class="st0" points="557.4,716.3 543.9,729.8 557.4,743.3 						"/>
						<line class="st0" x1="543.9" y1="729.8" x2="516.9" y2="729.8"/>
					</g>
				</g>
			</g>
			<g class="st1">
				<g class="st2">
					<polyline class="st0" points="611.4,716.3 570.9,675.8 543.9,675.8 503.4,716.3 					"/>
					<polyline class="st0" points="584.4,729.8 570.9,716.3 570.9,689.3 597.9,716.3 					"/>
					<polyline class="st0" points="530.4,729.8 543.9,716.3 543.9,689.3 516.9,716.3 					"/>
					<g>
						<polyline class="st0" points="570.9,729.8 557.4,716.3 543.9,729.8 						"/>
						<line class="st0" x1="557.4" y1="716.3" x2="557.4" y2="689.3"/>
					</g>
				</g>
				<g class="st2">
					<polyline class="st0" points="503.4,743.3 543.9,783.8 570.9,783.8 611.4,743.3 					"/>
					<polyline class="st0" points="530.4,729.8 543.9,743.3 543.9,770.3 516.9,743.3 					"/>
					<polyline class="st0" points="584.4,729.8 570.9,743.3 570.9,770.3 597.9,743.3 					"/>
					<g>
						<polyline class="st0" points="543.9,729.8 557.4,743.3 570.9,729.8 						"/>
						<line class="st0" x1="557.4" y1="743.3" x2="557.4" y2="770.3"/>
					</g>
				</g>
			</g>
		</g>
	</g>
	<g>
		<g>
			<polyline class="st0" points="323.5,743.3 364,783.8 391,783.8 431.5,743.3 			"/>
			<polyline class="st0" points="350.5,729.9 364,743.3 364,770.3 337,743.4 			"/>
			<polyline class="st0" points="404.5,729.9 391,743.3 391,770.3 418,743.4 			"/>
			<g>
				<polyline class="st0" points="364,729.8 377.5,743.3 391,729.8 				"/>
				<line class="st0" x1="377.5" y1="743.3" x2="377.5" y2="770.4"/>
			</g>
		</g>
		<g>
			<polyline class="st0" points="431.5,716.4 391,675.9 364,675.9 323.5,716.4 			"/>
			<polyline class="st0" points="404.5,729.9 391,716.4 391,689.4 418,716.4 			"/>
			<polyline class="st0" points="350.5,729.9 364,716.4 364,689.4 337,716.4 			"/>
			<g>
				<polyline class="st0" points="391,729.9 377.5,716.4 364,729.9 				"/>
				<line class="st0" x1="377.5" y1="716.4" x2="377.5" y2="689.4"/>
			</g>
		</g>
	</g>
	<g>
		<polyline class="st0" points="143.6,743.3 184.1,783.8 211.1,783.8 251.6,743.3 		"/>
		<polyline class="st0" points="170.6,729.9 184.1,743.3 184.1,770.3 157.1,743.4 		"/>
		<polyline class="st0" points="224.6,729.9 211.1,743.3 211.1,770.3 238.1,743.4 		"/>
		<g>
			<polyline class="st0" points="184.1,729.8 197.6,743.3 211.1,729.8 			"/>
			<line class="st0" x1="197.6" y1="743.3" x2="197.6" y2="770.4"/>
		</g>
	</g>
	<g>
		<polyline class="st0" points="145.5,883.3 190.5,928.3 217.5,928.3 262.5,883.3 		"/>
		<polyline class="st0" points="177,874.3 190.5,887.8 190.5,914.8 163.5,887.8 		"/>
		<polyline class="st0" points="231,874.3 217.5,887.8 217.5,914.8 244.5,887.8 		"/>
		<g>
			<polyline class="st0" points="190.5,874.3 204,887.8 217.5,874.3 			"/>
			<line class="st0" x1="204" y1="887.8" x2="204" y2="914.8"/>
		</g>
	</g>
	<g>
		<polyline class="st0" points="-342.8,484.3 -297.8,529.3 -270.8,529.3 -225.8,484.3 		"/>
		<polyline class="st0" points="-311.3,475.3 -297.8,488.8 -297.8,515.8 -324.8,488.8 		"/>
		<polyline class="st0" points="-257.3,475.3 -270.8,488.8 -270.8,515.8 -243.8,488.8 		"/>
		<g>
			<polyline class="st0" points="-297.8,475.3 -284.3,488.8 -270.8,475.3 			"/>
			<line class="st0" x1="-284.3" y1="488.8" x2="-284.3" y2="515.8"/>
		</g>
	</g>
	<g>
		<g>
			<polyline class="st0" points="-342.8,589.2 -297.8,634.2 -270.8,634.2 -225.8,589.2 			"/>
			<polyline class="st0" points="-311.3,580.2 -297.8,593.7 -297.8,620.7 -324.8,593.7 			"/>
			<polyline class="st0" points="-257.3,580.2 -270.8,593.7 -270.8,620.7 -243.8,593.7 			"/>
			<g>
				<polyline class="st0" points="-297.8,580.2 -284.3,593.7 -270.8,580.2 				"/>
				<line class="st0" x1="-284.3" y1="593.7" x2="-284.3" y2="620.7"/>
			</g>
		</g>
		<g>
			<polyline class="st0" points="-225.8,625.2 -270.8,580.2 -297.8,580.2 -342.8,625.2 			"/>
			<polyline class="st0" points="-257.3,634.2 -270.8,620.7 -270.8,593.7 -243.8,620.7 			"/>
			<polyline class="st0" points="-311.3,634.2 -297.8,620.7 -297.8,593.7 -324.8,620.7 			"/>
			<g>
				<polyline class="st0" points="-270.8,634.2 -284.3,620.7 -297.8,634.2 				"/>
				<line class="st0" x1="-284.3" y1="620.7" x2="-284.3" y2="593.7"/>
			</g>
		</g>
	</g>
	<g>
		<g>
			<g>
				<polyline class="st0" points="-342.8,728.5 -297.8,773.5 -270.8,773.5 -225.8,728.5 				"/>
				<polyline class="st0" points="-311.3,719.5 -297.8,733 -297.8,760 -324.8,733 				"/>
				<polyline class="st0" points="-257.3,719.5 -270.8,733 -270.8,760 -243.8,733 				"/>
				<g>
					<polyline class="st0" points="-297.8,719.4 -284.3,733 -270.8,719.4 					"/>
					<line class="st0" x1="-284.3" y1="733" x2="-284.3" y2="760"/>
				</g>
			</g>
			<g>
				<polyline class="st0" points="-225.8,764.5 -270.8,719.4 -297.8,719.5 -342.8,764.4 				"/>
				<polyline class="st0" points="-257.3,773.4 -270.8,760 -270.8,733 -243.8,759.9 				"/>
				<polyline class="st0" points="-311.3,773.4 -297.8,760 -297.8,733 -324.8,759.9 				"/>
				<g>
					<polyline class="st0" points="-270.8,773.5 -284.3,760 -297.8,773.5 					"/>
					<line class="st0" x1="-284.3" y1="760" x2="-284.3" y2="732.9"/>
				</g>
			</g>
		</g>
		<g>
			<polyline class="st0" points="-302.3,805 -257.3,760 -257.3,733 -302.3,688 			"/>
			<polyline class="st0" points="-311.3,773.4 -297.8,759.9 -270.8,760 -297.8,786.9 			"/>
			<polyline class="st0" points="-311.3,719.4 -297.8,732.9 -270.8,732.9 -297.8,705.9 			"/>
			<g>
				<polyline class="st0" points="-311.3,759.9 -297.8,746.4 -311.3,732.9 				"/>
				<line class="st0" x1="-297.8" y1="746.4" x2="-270.8" y2="746.4"/>
			</g>
		</g>
		<g>
			<polyline class="st0" points="-266.3,688 -311.3,733 -311.3,760 -266.3,805 			"/>
			<polyline class="st0" points="-257.3,719.5 -270.8,733 -297.8,733 -270.8,706 			"/>
			<polyline class="st0" points="-257.3,773.5 -270.8,760 -297.8,760 -270.8,787 			"/>
			<g>
				<polyline class="st0" points="-257.3,733 -270.8,746.5 -257.3,760 				"/>
				<line class="st0" x1="-270.8" y1="746.5" x2="-297.8" y2="746.5"/>
			</g>
		</g>
	</g>
	<g>
		<g>
			<g>
				<g>
					<polyline class="st0" points="-342.8,881.7 -297.8,926.7 -270.8,926.7 -225.8,881.7 					"/>
					<polyline class="st0" points="-311.3,872.7 -297.8,886.2 -297.8,913.2 -324.8,886.2 					"/>
					<polyline class="st0" points="-257.3,872.7 -270.8,886.2 -270.8,913.2 -243.8,886.2 					"/>
					<g>
						<polyline class="st0" points="-297.8,872.7 -284.3,886.2 -270.8,872.7 						"/>
						<line class="st0" x1="-284.3" y1="886.2" x2="-284.3" y2="913.2"/>
					</g>
				</g>
				<g>
					<polyline class="st0" points="-225.8,917.7 -270.8,872.7 -297.8,872.7 -342.8,917.7 					"/>
					<polyline class="st0" points="-257.3,926.7 -270.8,913.2 -270.8,886.2 -243.8,913.2 					"/>
					<polyline class="st0" points="-311.3,926.7 -297.8,913.2 -297.8,886.2 -324.8,913.2 					"/>
					<g>
						<polyline class="st0" points="-270.8,926.7 -284.3,913.2 -297.8,926.7 						"/>
						<line class="st0" x1="-284.3" y1="913.2" x2="-284.3" y2="886.2"/>
					</g>
				</g>
			</g>
			<g>
				<polyline class="st0" points="-302.3,958.2 -257.3,913.2 -257.3,886.2 -302.3,841.2 				"/>
				<polyline class="st0" points="-311.3,926.7 -297.8,913.2 -270.8,913.2 -297.8,940.2 				"/>
				<polyline class="st0" points="-311.3,872.7 -297.8,886.2 -270.8,886.2 -297.8,859.2 				"/>
				<g>
					<polyline class="st0" points="-311.3,913.2 -297.8,899.7 -311.3,886.2 					"/>
					<line class="st0" x1="-297.8" y1="899.7" x2="-270.8" y2="899.7"/>
				</g>
			</g>
			<g>
				<polyline class="st0" points="-266.3,841.2 -311.3,886.2 -311.3,913.2 -266.3,958.2 				"/>
				<polyline class="st0" points="-257.3,872.7 -270.8,886.2 -297.8,886.2 -270.8,859.2 				"/>
				<polyline class="st0" points="-257.3,926.7 -270.8,913.2 -297.8,913.2 -270.8,940.2 				"/>
				<g>
					<polyline class="st0" points="-257.3,886.2 -270.8,899.7 -257.3,913.2 					"/>
					<line class="st0" x1="-270.8" y1="899.7" x2="-297.8" y2="899.7"/>
				</g>
			</g>
		</g>
		<g>
			<g>
				<g>
					<polyline class="st0" points="-338.4,928.4 -274.7,928.4 -255.6,909.3 -255.6,845.6 					"/>
					<polyline class="st0" points="-322.4,899.7 -303.4,899.7 -284.3,918.8 -322.4,918.8 					"/>
					<polyline class="st0" points="-284.3,861.5 -284.3,880.6 -265.2,899.7 -265.2,861.6 					"/>
					<g>
						<polyline class="st0" points="-312.9,890.2 -293.8,890.2 -293.8,871.1 						"/>
						<line class="st0" x1="-293.8" y1="890.2" x2="-274.7" y2="909.3"/>
					</g>
				</g>
				<g>
					<polyline class="st0" points="-230.2,871.1 -293.8,871.1 -312.9,890.2 -312.9,953.8 					"/>
					<polyline class="st0" points="-246.1,899.7 -265.2,899.7 -284.3,880.6 -246.1,880.6 					"/>
					<polyline class="st0" points="-284.3,937.9 -284.3,918.8 -303.4,899.7 -303.4,937.9 					"/>
					<g>
						<polyline class="st0" points="-255.6,909.3 -274.7,909.3 -274.7,928.4 						"/>
						<line class="st0" x1="-274.7" y1="909.3" x2="-293.8" y2="890.2"/>
					</g>
				</g>
			</g>
			<g>
				<polyline class="st0" points="-255.6,953.8 -255.6,890.2 -274.7,871.1 -338.4,871.1 				"/>
				<polyline class="st0" points="-284.3,937.9 -284.3,918.8 -265.2,899.7 -265.2,937.9 				"/>
				<polyline class="st0" points="-322.5,899.7 -303.4,899.7 -284.3,880.6 -322.5,880.6 				"/>
				<g>
					<polyline class="st0" points="-293.8,928.4 -293.8,909.3 -312.9,909.3 					"/>
					<line class="st0" x1="-293.8" y1="909.3" x2="-274.7" y2="890.2"/>
				</g>
			</g>
			<g>
				<polyline class="st0" points="-312.9,845.6 -312.9,909.3 -293.8,928.4 -230.2,928.4 				"/>
				<polyline class="st0" points="-284.3,861.6 -284.3,880.6 -303.4,899.7 -303.4,861.6 				"/>
				<polyline class="st0" points="-246.1,899.7 -265.2,899.7 -284.3,918.8 -246.1,918.8 				"/>
				<g>
					<polyline class="st0" points="-274.7,871.1 -274.7,890.2 -255.6,890.2 					"/>
					<line class="st0" x1="-274.7" y1="890.2" x2="-293.8" y2="909.3"/>
				</g>
			</g>
		</g>
	</g>
	<g>
		<g>
			<polyline class="st0" points="322.3,883.3 367.3,928.3 394.3,928.3 439.3,883.3 			"/>
			<polyline class="st0" points="353.8,874.3 367.3,887.8 367.3,914.8 340.3,887.8 			"/>
			<polyline class="st0" points="407.8,874.3 394.3,887.8 394.3,914.8 421.3,887.8 			"/>
			<g>
				<polyline class="st0" points="367.3,874.3 380.8,887.8 394.3,874.3 				"/>
				<line class="st0" x1="380.8" y1="887.8" x2="380.8" y2="914.8"/>
			</g>
		</g>
		<g>
			<polyline class="st0" points="439.3,865.3 394.3,820.3 367.3,820.3 322.3,865.3 			"/>
			<polyline class="st0" points="407.8,874.3 394.3,860.8 394.3,833.8 421.3,860.8 			"/>
			<polyline class="st0" points="353.8,874.3 367.3,860.8 367.3,833.8 340.3,860.8 			"/>
			<g>
				<polyline class="st0" points="394.3,874.3 380.8,860.8 367.3,874.3 				"/>
				<line class="st0" x1="380.8" y1="860.8" x2="380.8" y2="833.8"/>
			</g>
		</g>
	</g>
	<g>
		<g>
			<polyline class="st0" points="417.7,1153.2 462.7,1198.2 489.7,1198.2 534.7,1153.2 			"/>
			<polyline class="st0" points="449.2,1144.2 462.7,1157.7 462.7,1184.7 435.7,1157.7 			"/>
			<polyline class="st0" points="503.2,1144.2 489.7,1157.7 489.7,1184.7 516.7,1157.7 			"/>
			<g>
				<polyline class="st0" points="462.7,1144.2 476.2,1157.7 489.7,1144.2 				"/>
				<line class="st0" x1="476.2" y1="1157.7" x2="476.2" y2="1184.7"/>
			</g>
		</g>
		<g>
			<polyline class="st0" points="534.7,1135.2 489.7,1090.2 462.7,1090.2 417.7,1135.2 			"/>
			<polyline class="st0" points="503.2,1144.2 489.7,1130.7 489.7,1103.7 516.7,1130.7 			"/>
			<polyline class="st0" points="449.2,1144.2 462.7,1130.7 462.7,1103.7 435.7,1130.7 			"/>
			<g>
				<polyline class="st0" points="489.7,1144.2 476.2,1130.7 462.7,1144.2 				"/>
				<line class="st0" x1="476.2" y1="1130.7" x2="476.2" y2="1103.7"/>
			</g>
		</g>
	</g>
	<g>
		<g>
			<polyline class="st0" points="485.2,1202.7 530.2,1157.7 530.2,1130.7 485.2,1085.7 			"/>
			<polyline class="st0" points="476.2,1171.2 489.7,1157.7 516.7,1157.7 489.7,1184.7 			"/>
			<polyline class="st0" points="476.2,1117.2 489.7,1130.7 516.7,1130.7 489.7,1103.7 			"/>
			<g>
				<polyline class="st0" points="476.2,1157.7 489.7,1144.2 476.2,1130.7 				"/>
				<line class="st0" x1="489.7" y1="1144.2" x2="516.7" y2="1144.2"/>
			</g>
		</g>
		<g>
			<polyline class="st0" points="467.2,1085.7 422.2,1130.7 422.2,1157.7 467.2,1202.7 			"/>
			<polyline class="st0" points="476.2,1117.2 462.7,1130.7 435.7,1130.7 462.7,1103.7 			"/>
			<polyline class="st0" points="476.2,1171.2 462.7,1157.7 435.7,1157.7 462.7,1184.7 			"/>
			<g>
				<polyline class="st0" points="476.2,1130.7 462.7,1144.2 476.2,1157.7 				"/>
				<line class="st0" x1="462.7" y1="1144.2" x2="435.7" y2="1144.2"/>
			</g>
		</g>
	</g>
	<g>
		<g>
			<g>
				<polyline class="st0" points="499.1,878.8 544.1,923.8 571.1,923.8 616.1,878.8 				"/>
				<polyline class="st0" points="530.6,869.8 544.1,883.3 544.1,910.3 517.1,883.3 				"/>
				<polyline class="st0" points="584.6,869.8 571.1,883.3 571.1,910.3 598.1,883.3 				"/>
				<g>
					<polyline class="st0" points="544.1,869.8 557.6,883.3 571.1,869.8 					"/>
					<line class="st0" x1="557.6" y1="883.3" x2="557.6" y2="910.3"/>
				</g>
			</g>
			<g>
				<polyline class="st0" points="616.1,860.8 571.1,815.8 544.1,815.8 499.1,860.8 				"/>
				<polyline class="st0" points="584.6,869.8 571.1,856.3 571.1,829.3 598.1,856.3 				"/>
				<polyline class="st0" points="530.6,869.8 544.1,856.3 544.1,829.3 517.1,856.3 				"/>
				<g>
					<polyline class="st0" points="571.1,869.8 557.6,856.3 544.1,869.8 					"/>
					<line class="st0" x1="557.6" y1="856.3" x2="557.6" y2="829.3"/>
				</g>
			</g>
		</g>
		<g>
			<g>
				<polyline class="st0" points="566.6,928.3 611.6,883.3 611.6,856.3 566.6,811.3 				"/>
				<polyline class="st0" points="557.6,896.8 571.1,883.3 598.1,883.3 571.1,910.3 				"/>
				<polyline class="st0" points="557.6,842.8 571.1,856.3 598.1,856.3 571.1,829.3 				"/>
				<g>
					<polyline class="st0" points="557.6,883.3 571.1,869.8 557.6,856.3 					"/>
					<line class="st0" x1="571.1" y1="869.8" x2="598.1" y2="869.8"/>
				</g>
			</g>
			<g>
				<polyline class="st0" points="548.6,811.3 503.6,856.3 503.6,883.3 548.6,928.3 				"/>
				<polyline class="st0" points="557.6,842.8 544.1,856.3 517.1,856.3 544.1,829.3 				"/>
				<polyline class="st0" points="557.6,896.8 544.1,883.3 517.1,883.3 544.1,910.3 				"/>
				<g>
					<polyline class="st0" points="557.6,856.3 544.1,869.8 557.6,883.3 					"/>
					<line class="st0" x1="544.1" y1="869.8" x2="517.1" y2="869.8"/>
				</g>
			</g>
		</g>
	</g>
	<g>
		<g>
			<g>
				<g>
					<polyline class="st0" points="675.9,878.8 720.9,923.8 747.9,923.8 792.9,878.8 					"/>
					<polyline class="st0" points="707.4,869.8 720.9,883.3 720.9,910.3 693.9,883.3 					"/>
					<polyline class="st0" points="761.4,869.8 747.9,883.3 747.9,910.3 774.9,883.3 					"/>
					<g>
						<polyline class="st0" points="720.9,869.8 734.4,883.3 747.9,869.8 						"/>
						<line class="st0" x1="734.4" y1="883.3" x2="734.4" y2="910.3"/>
					</g>
				</g>
				<g>
					<polyline class="st0" points="792.9,860.8 747.9,815.8 720.9,815.8 675.9,860.8 					"/>
					<polyline class="st0" points="761.4,869.8 747.9,856.3 747.9,829.3 774.9,856.3 					"/>
					<polyline class="st0" points="707.4,869.8 720.9,856.3 720.9,829.3 693.9,856.3 					"/>
					<g>
						<polyline class="st0" points="747.9,869.8 734.4,856.3 720.9,869.8 						"/>
						<line class="st0" x1="734.4" y1="856.3" x2="734.4" y2="829.3"/>
					</g>
				</g>
			</g>
			<g>
				<g>
					<polyline class="st0" points="743.4,928.3 788.4,883.3 788.4,856.3 743.4,811.3 					"/>
					<polyline class="st0" points="734.4,896.8 747.9,883.3 774.9,883.3 747.9,910.3 					"/>
					<polyline class="st0" points="734.4,842.8 747.9,856.3 774.9,856.3 747.9,829.3 					"/>
					<g>
						<polyline class="st0" points="734.4,883.3 747.9,869.8 734.4,856.3 						"/>
						<line class="st0" x1="747.9" y1="869.8" x2="774.9" y2="869.8"/>
					</g>
				</g>
				<g>
					<polyline class="st0" points="725.4,811.3 680.4,856.3 680.4,883.3 725.4,928.3 					"/>
					<polyline class="st0" points="734.4,842.8 720.9,856.3 693.9,856.3 720.9,829.3 					"/>
					<polyline class="st0" points="734.4,896.8 720.9,883.3 693.9,883.3 720.9,910.3 					"/>
					<g>
						<polyline class="st0" points="734.4,856.3 720.9,869.8 734.4,883.3 						"/>
						<line class="st0" x1="720.9" y1="869.8" x2="693.9" y2="869.8"/>
					</g>
				</g>
			</g>
		</g>
		<g>
			<g>
				<g>
					<polyline class="st0" points="699.4,917.5 763,917.5 782.1,898.4 782.1,834.8 					"/>
					<polyline class="st0" points="715.3,888.9 734.4,888.9 753.5,908 715.3,908 					"/>
					<polyline class="st0" points="753.5,850.7 753.5,869.8 772.6,888.9 772.6,850.7 					"/>
					<g>
						<polyline class="st0" points="724.8,879.3 743.9,879.3 743.9,860.2 						"/>
						<line class="st0" x1="743.9" y1="879.3" x2="763" y2="898.4"/>
					</g>
				</g>
				<g>
					<polyline class="st0" points="769.4,822.1 705.7,822.1 686.6,841.2 686.6,904.8 					"/>
					<polyline class="st0" points="753.5,850.7 734.4,850.7 715.3,831.6 753.5,831.6 					"/>
					<polyline class="st0" points="715.3,888.9 715.3,869.8 696.2,850.7 696.2,888.9 					"/>
					<g>
						<polyline class="st0" points="743.9,860.3 724.8,860.3 724.8,879.3 						"/>
						<line class="st0" x1="724.8" y1="860.3" x2="705.7" y2="841.2"/>
					</g>
				</g>
			</g>
			<g>
				<g>
					<polyline class="st0" points="782.1,904.8 782.1,841.2 763,822.1 699.4,822.1 					"/>
					<polyline class="st0" points="753.5,888.9 753.5,869.8 772.6,850.7 772.6,888.9 					"/>
					<polyline class="st0" points="715.3,850.7 734.4,850.7 753.5,831.6 715.3,831.6 					"/>
					<g>
						<polyline class="st0" points="743.9,879.3 743.9,860.2 724.8,860.2 						"/>
						<line class="st0" x1="743.9" y1="860.2" x2="763" y2="841.2"/>
					</g>
				</g>
				<g>
					<polyline class="st0" points="686.6,834.8 686.6,898.4 705.7,917.5 769.4,917.5 					"/>
					<polyline class="st0" points="715.3,850.7 715.3,869.8 696.2,888.9 696.2,850.7 					"/>
					<polyline class="st0" points="753.5,888.9 734.4,888.9 715.3,908 753.5,908 					"/>
					<g>
						<polyline class="st0" points="724.8,860.3 724.8,879.3 743.9,879.3 						"/>
						<line class="st0" x1="724.8" y1="879.3" x2="705.7" y2="898.4"/>
					</g>
				</g>
			</g>
		</g>
	</g>
	<g>
		<g>
			<g>
				<g>
					<polyline class="st0" points="275.5,454.7 320.5,499.7 347.5,499.7 392.5,454.7 					"/>
					<polyline class="st0" points="307,445.7 320.5,459.2 320.5,486.2 293.5,459.2 					"/>
					<polyline class="st0" points="361,445.7 347.5,459.2 347.5,486.2 374.5,459.2 					"/>
					<g>
						<polyline class="st0" points="320.5,445.7 334,459.2 347.5,445.7 						"/>
						<line class="st0" x1="334" y1="459.2" x2="334" y2="486.2"/>
					</g>
				</g>
				<g>
					<polyline class="st0" points="392.5,436.7 347.5,391.7 320.5,391.7 275.5,436.7 					"/>
					<polyline class="st0" points="361,445.7 347.5,432.2 347.5,405.2 374.5,432.2 					"/>
					<polyline class="st0" points="307,445.7 320.5,432.2 320.5,405.2 293.5,432.2 					"/>
					<g>
						<polyline class="st0" points="347.5,445.7 334,432.2 320.5,445.7 						"/>
						<line class="st0" x1="334" y1="432.2" x2="334" y2="405.2"/>
					</g>
				</g>
			</g>
			<g>
				<g>
					<polyline class="st0" points="343,504.2 388,459.2 388,432.2 343,387.2 					"/>
					<polyline class="st0" points="334,472.7 347.5,459.2 374.5,459.2 347.5,486.2 					"/>
					<polyline class="st0" points="334,418.7 347.5,432.2 374.5,432.2 347.5,405.2 					"/>
					<g>
						<polyline class="st0" points="334,459.2 347.5,445.7 334,432.2 						"/>
						<line class="st0" x1="347.5" y1="445.7" x2="374.5" y2="445.7"/>
					</g>
				</g>
				<g>
					<polyline class="st0" points="325,387.2 280,432.2 280,459.2 325,504.2 					"/>
					<polyline class="st0" points="334,418.7 320.5,432.2 293.5,432.2 320.5,405.2 					"/>
					<polyline class="st0" points="334,472.7 320.5,459.2 293.5,459.2 320.5,486.2 					"/>
					<g>
						<polyline class="st0" points="334,432.2 320.5,445.7 334,459.2 						"/>
						<line class="st0" x1="320.5" y1="445.7" x2="293.5" y2="445.7"/>
					</g>
				</g>
			</g>
		</g>
		<g>
			<g>
				<g>
					<polyline class="st0" points="299,493.4 362.6,493.4 381.7,474.3 381.7,410.7 					"/>
					<polyline class="st0" points="314.9,464.7 334,464.7 353.1,483.8 314.9,483.8 					"/>
					<polyline class="st0" points="353.1,426.6 353.1,445.7 372.2,464.7 372.2,426.6 					"/>
					<g>
						<polyline class="st0" points="324.4,455.2 343.5,455.2 343.5,436.1 						"/>
						<line class="st0" x1="343.5" y1="455.2" x2="362.6" y2="474.3"/>
					</g>
				</g>
				<g>
					<polyline class="st0" points="369,397.9 305.3,397.9 286.2,417 286.2,480.7 					"/>
					<polyline class="st0" points="353.1,426.6 334,426.6 314.9,407.5 353.1,407.5 					"/>
					<polyline class="st0" points="314.9,464.8 314.9,445.7 295.8,426.6 295.8,464.8 					"/>
					<g>
						<polyline class="st0" points="343.5,436.1 324.4,436.1 324.4,455.2 						"/>
						<line class="st0" x1="324.4" y1="436.1" x2="305.3" y2="417"/>
					</g>
				</g>
			</g>
			<g>
				<g>
					<polyline class="st0" points="381.7,480.7 381.7,417 362.6,397.9 299,397.9 					"/>
					<polyline class="st0" points="353.1,464.7 353.1,445.7 372.2,426.6 372.2,464.7 					"/>
					<polyline class="st0" points="314.9,426.6 334,426.6 353.1,407.5 314.9,407.5 					"/>
					<g>
						<polyline class="st0" points="343.5,455.2 343.5,436.1 324.4,436.1 						"/>
						<line class="st0" x1="343.5" y1="436.1" x2="362.6" y2="417"/>
					</g>
				</g>
				<g>
					<polyline class="st0" points="286.2,410.7 286.2,474.3 305.3,493.4 369,493.4 					"/>
					<polyline class="st0" points="314.9,426.6 314.9,445.7 295.8,464.7 295.8,426.6 					"/>
					<polyline class="st0" points="353.1,464.8 334,464.8 314.9,483.8 353.1,483.8 					"/>
					<g>
						<polyline class="st0" points="324.4,436.1 324.4,455.2 343.5,455.2 						"/>
						<line class="st0" x1="324.4" y1="455.2" x2="305.3" y2="474.3"/>
					</g>
				</g>
			</g>
		</g>
	</g>
	<g>
		<g>
			<g>
				<g>
					<polyline class="st0" points="329,124.8 374,169.8 401,169.8 446,124.8 					"/>
					<polyline class="st0" points="360.5,115.8 374,129.3 374,156.3 347,129.3 					"/>
					<polyline class="st0" points="414.5,115.8 401,129.3 401,156.3 428,129.3 					"/>
					<g>
						<polyline class="st0" points="374,115.8 387.5,129.3 401,115.8 						"/>
						<line class="st0" x1="387.5" y1="129.3" x2="387.5" y2="156.3"/>
					</g>
				</g>
				<g>
					<polyline class="st0" points="446,106.8 401,61.8 374,61.8 329,106.8 					"/>
					<polyline class="st0" points="414.5,115.8 401,102.3 401,75.3 428,102.3 					"/>
					<polyline class="st0" points="360.5,115.8 374,102.3 374,75.3 347,102.3 					"/>
					<g>
						<polyline class="st0" points="401,115.8 387.5,102.3 374,115.8 						"/>
						<line class="st0" x1="387.5" y1="102.3" x2="387.5" y2="75.3"/>
					</g>
				</g>
			</g>
			<g>
				<g>
					<polyline class="st0" points="396.5,174.3 441.5,129.3 441.5,102.3 396.5,57.3 					"/>
					<polyline class="st0" points="387.5,142.8 401,129.3 428,129.3 401,156.2 					"/>
					<polyline class="st0" points="387.5,88.7 401,102.2 428,102.2 401,75.2 					"/>
					<g>
						<polyline class="st0" points="387.5,129.2 401,115.7 387.5,102.3 						"/>
						<line class="st0" x1="401" y1="115.7" x2="428" y2="115.7"/>
					</g>
				</g>
				<g>
					<polyline class="st0" points="378.5,57.3 333.5,102.3 333.5,129.3 378.5,174.3 					"/>
					<polyline class="st0" points="387.5,88.8 374,102.3 347,102.3 374,75.3 					"/>
					<polyline class="st0" points="387.5,142.8 374,129.3 347,129.3 374,156.3 					"/>
					<g>
						<polyline class="st0" points="387.5,102.3 374,115.8 387.5,129.3 						"/>
						<line class="st0" x1="374" y1="115.8" x2="347" y2="115.8"/>
					</g>
				</g>
			</g>
		</g>
		<g>
			<g>
				<g>
					<polyline class="st0" points="352.5,163.5 416.2,163.5 435.2,144.4 435.2,80.8 					"/>
					<polyline class="st0" points="368.4,134.8 387.5,134.8 406.6,153.9 368.4,153.9 					"/>
					<polyline class="st0" points="406.6,96.7 406.6,115.7 425.7,134.8 425.7,96.7 					"/>
					<g>
						<polyline class="st0" points="378,125.3 397.1,125.3 397.1,106.2 						"/>
						<line class="st0" x1="397.1" y1="125.3" x2="416.2" y2="144.4"/>
					</g>
				</g>
				<g>
					<polyline class="st0" points="422.5,68 358.9,68 339.8,87.1 339.8,150.8 					"/>
					<polyline class="st0" points="406.6,96.7 387.5,96.7 368.4,77.6 406.6,77.6 					"/>
					<polyline class="st0" points="368.4,134.8 368.4,115.8 349.3,96.7 349.3,134.8 					"/>
					<g>
						<polyline class="st0" points="397.1,106.2 378,106.2 378,125.3 						"/>
						<line class="st0" x1="378" y1="106.2" x2="358.9" y2="87.1"/>
					</g>
				</g>
			</g>
			<g>
				<g>
					<polyline class="st0" points="435.2,150.8 435.2,87.1 416.2,68 352.5,68 					"/>
					<polyline class="st0" points="406.6,134.8 406.6,115.8 425.7,96.7 425.7,134.8 					"/>
					<polyline class="st0" points="368.4,96.7 387.5,96.7 406.6,77.6 368.4,77.6 					"/>
					<g>
						<polyline class="st0" points="397.1,125.3 397.1,106.2 378,106.2 						"/>
						<line class="st0" x1="397.1" y1="106.2" x2="416.2" y2="87.1"/>
					</g>
				</g>
				<g>
					<polyline class="st0" points="339.8,80.8 339.8,144.4 358.9,163.5 422.5,163.5 					"/>
					<polyline class="st0" points="368.4,96.7 368.4,115.8 349.3,134.8 349.3,96.7 					"/>
					<polyline class="st0" points="406.6,134.8 387.5,134.8 368.4,153.9 406.6,153.9 					"/>
					<g>
						<polyline class="st0" points="378,106.2 378,125.3 397.1,125.3 						"/>
						<line class="st0" x1="378" y1="125.3" x2="358.9" y2="144.4"/>
					</g>
				</g>
			</g>
		</g>
	</g>
	<g>
		<g>
			<g>
				<g>
					<polyline class="st0" points="357.9,278 399.4,319.5 424.3,319.5 465.9,278 					"/>
					<polyline class="st0" points="387,269.7 399.4,282.1 399.4,307.1 374.5,282.1 					"/>
					<polyline class="st0" points="436.8,269.7 424.4,282.1 424.4,307.1 449.3,282.1 					"/>
					<g>
						<polyline class="st0" points="399.4,269.7 411.9,282.1 424.4,269.7 						"/>
						<line class="st0" x1="411.9" y1="282.1" x2="411.9" y2="307.1"/>
					</g>
				</g>
				<g>
					<polyline class="st0" points="465.9,261.4 424.3,219.8 399.4,219.8 357.9,261.4 					"/>
					<polyline class="st0" points="436.8,269.7 424.3,257.2 424.3,232.3 449.3,257.2 					"/>
					<polyline class="st0" points="387,269.7 399.4,257.2 399.4,232.3 374.5,257.2 					"/>
					<g>
						<polyline class="st0" points="424.3,269.7 411.9,257.2 399.4,269.7 						"/>
						<line class="st0" x1="411.9" y1="257.2" x2="411.9" y2="232.3"/>
					</g>
				</g>
			</g>
			<g>
				<g>
					<polyline class="st0" points="420.2,323.7 461.7,282.1 461.7,257.2 420.2,215.7 					"/>
					<polyline class="st0" points="411.9,294.6 424.3,282.1 449.3,282.1 424.3,307.1 					"/>
					<polyline class="st0" points="411.9,244.8 424.3,257.2 449.3,257.2 424.3,232.3 					"/>
					<g>
						<polyline class="st0" points="411.9,282.1 424.3,269.7 411.9,257.2 						"/>
						<line class="st0" x1="424.3" y1="269.7" x2="449.3" y2="269.7"/>
					</g>
				</g>
				<g>
					<polyline class="st0" points="403.6,215.7 362,257.2 362,282.1 403.6,323.7 					"/>
					<polyline class="st0" points="411.9,244.8 399.4,257.2 374.5,257.2 399.4,232.3 					"/>
					<polyline class="st0" points="411.9,294.6 399.4,282.1 374.5,282.2 399.4,307.1 					"/>
					<g>
						<polyline class="st0" points="411.9,257.2 399.4,269.7 411.9,282.1 						"/>
						<line class="st0" x1="399.4" y1="269.7" x2="374.5" y2="269.7"/>
					</g>
				</g>
			</g>
		</g>
		<g>
			<g>
				<g>
					<polyline class="st0" points="379.6,313.7 438.3,313.7 455.9,296.1 455.9,237.4 					"/>
					<polyline class="st0" points="394.3,287.3 411.9,287.3 429.5,304.9 394.3,304.9 					"/>
					<polyline class="st0" points="429.5,252.1 429.5,269.7 447.1,287.3 447.1,252.1 					"/>
					<g>
						<polyline class="st0" points="403.1,278.5 420.7,278.5 420.7,260.9 						"/>
						<line class="st0" x1="420.7" y1="278.5" x2="438.3" y2="296.1"/>
					</g>
				</g>
				<g>
					<polyline class="st0" points="444.2,225.6 385.5,225.6 367.8,243.2 367.8,302 					"/>
					<polyline class="st0" points="429.5,252.1 411.9,252.1 394.3,234.4 429.5,234.4 					"/>
					<polyline class="st0" points="394.3,287.3 394.3,269.7 376.6,252.1 376.6,287.3 					"/>
					<g>
						<polyline class="st0" points="420.7,260.9 403.1,260.9 403.1,278.5 						"/>
						<line class="st0" x1="403.1" y1="260.9" x2="385.4" y2="243.3"/>
					</g>
				</g>
			</g>
			<g>
				<g>
					<polyline class="st0" points="455.9,302 455.9,243.2 438.3,225.6 379.6,225.6 					"/>
					<polyline class="st0" points="429.5,287.3 429.5,269.7 447.1,252.1 447.1,287.3 					"/>
					<polyline class="st0" points="394.3,252.1 411.9,252.1 429.5,234.4 394.3,234.4 					"/>
					<g>
						<polyline class="st0" points="420.7,278.5 420.7,260.9 403.1,260.9 						"/>
						<line class="st0" x1="420.7" y1="260.9" x2="438.3" y2="243.2"/>
					</g>
				</g>
				<g>
					<polyline class="st0" points="367.8,237.4 367.8,296.1 385.5,313.7 444.2,313.7 					"/>
					<polyline class="st0" points="394.3,252.1 394.3,269.7 376.6,287.3 376.6,252.1 					"/>
					<polyline class="st0" points="429.5,287.3 411.9,287.3 394.3,304.9 429.5,304.9 					"/>
					<g>
						<polyline class="st0" points="403.1,260.9 403.1,278.5 420.7,278.5 						"/>
						<line class="st0" x1="403.1" y1="278.5" x2="385.5" y2="296.1"/>
					</g>
				</g>
			</g>
		</g>
	</g>
	<g>
		<g>
			<g>
				<g>
					<polyline class="st0" points="-486.3,194.5 -441.3,239.5 -414.3,239.5 -369.3,194.5 					"/>
					<polyline class="st0" points="-454.8,185.5 -441.3,199 -441.3,226 -468.3,199 					"/>
					<polyline class="st0" points="-400.8,185.5 -414.3,199 -414.3,226 -387.3,199 					"/>
					<g>
						<polyline class="st0" points="-441.3,185.5 -427.8,199 -414.3,185.5 						"/>
						<line class="st0" x1="-427.8" y1="199" x2="-427.8" y2="226"/>
					</g>
				</g>
				<g>
					<polyline class="st0" points="-369.3,176.5 -414.3,131.5 -441.3,131.5 -486.3,176.5 					"/>
					<polyline class="st0" points="-400.8,185.5 -414.3,172 -414.3,145 -387.3,172 					"/>
					<polyline class="st0" points="-454.8,185.5 -441.3,172 -441.3,145 -468.3,172 					"/>
					<g>
						<polyline class="st0" points="-414.3,185.5 -427.8,172 -441.3,185.5 						"/>
						<line class="st0" x1="-427.8" y1="172" x2="-427.8" y2="145"/>
					</g>
				</g>
			</g>
			<g>
				<g>
					<polyline class="st0" points="-418.8,244 -373.8,199 -373.8,172 -418.8,127 					"/>
					<polyline class="st0" points="-427.8,212.5 -414.3,199 -387.3,199 -414.3,226 					"/>
					<polyline class="st0" points="-427.8,158.5 -414.3,172 -387.3,172 -414.3,145 					"/>
					<g>
						<polyline class="st0" points="-427.8,199 -414.3,185.5 -427.8,172 						"/>
						<line class="st0" x1="-414.3" y1="185.5" x2="-387.3" y2="185.5"/>
					</g>
				</g>
				<g>
					<polyline class="st0" points="-436.8,127 -481.8,172 -481.8,199 -436.8,244 					"/>
					<polyline class="st0" points="-427.8,158.5 -441.3,172 -468.3,172 -441.3,145 					"/>
					<polyline class="st0" points="-427.8,212.5 -441.3,199 -468.3,199 -441.3,226 					"/>
					<g>
						<polyline class="st0" points="-427.8,172 -441.3,185.5 -427.8,199 						"/>
						<line class="st0" x1="-441.3" y1="185.5" x2="-468.3" y2="185.5"/>
					</g>
				</g>
			</g>
		</g>
		<g>
			<g>
				<g>
					<polyline class="st0" points="-462.8,233.2 -399.2,233.2 -380.1,214.1 -380.1,150.5 					"/>
					<polyline class="st0" points="-446.9,204.6 -427.8,204.6 -408.7,223.7 -446.9,223.7 					"/>
					<polyline class="st0" points="-408.7,166.4 -408.7,185.5 -389.6,204.6 -389.6,166.4 					"/>
					<g>
						<polyline class="st0" points="-437.4,195 -418.3,195 -418.3,176 						"/>
						<line class="st0" x1="-418.3" y1="195" x2="-399.2" y2="214.1"/>
					</g>
				</g>
				<g>
					<polyline class="st0" points="-392.8,137.8 -456.5,137.8 -475.5,156.9 -475.5,220.5 					"/>
					<polyline class="st0" points="-408.7,166.4 -427.8,166.4 -446.9,147.3 -408.7,147.3 					"/>
					<polyline class="st0" points="-446.9,204.6 -446.9,185.5 -466,166.4 -466,204.6 					"/>
					<g>
						<polyline class="st0" points="-418.3,176 -437.4,176 -437.4,195.1 						"/>
						<line class="st0" x1="-437.4" y1="176" x2="-456.5" y2="156.9"/>
					</g>
				</g>
			</g>
			<g>
				<g>
					<polyline class="st0" points="-380.1,220.5 -380.1,156.9 -399.2,137.8 -462.8,137.8 					"/>
					<polyline class="st0" points="-408.7,204.6 -408.7,185.5 -389.6,166.4 -389.6,204.6 					"/>
					<polyline class="st0" points="-446.9,166.4 -427.8,166.4 -408.7,147.3 -446.9,147.3 					"/>
					<g>
						<polyline class="st0" points="-418.3,195.1 -418.3,176 -437.4,176 						"/>
						<line class="st0" x1="-418.3" y1="176" x2="-399.2" y2="156.9"/>
					</g>
				</g>
				<g>
					<polyline class="st0" points="-475.5,150.5 -475.5,214.1 -456.5,233.2 -392.8,233.2 					"/>
					<polyline class="st0" points="-446.9,166.4 -446.9,185.5 -466,204.6 -466,166.4 					"/>
					<polyline class="st0" points="-408.7,204.6 -427.8,204.6 -446.9,223.7 -408.7,223.7 					"/>
					<g>
						<polyline class="st0" points="-437.4,176 -437.4,195.1 -418.3,195.1 						"/>
						<line class="st0" x1="-437.4" y1="195.1" x2="-456.5" y2="214.1"/>
					</g>
				</g>
			</g>
		</g>
	</g>
	<g>
		<g>
			<g>
				<g>
					<polyline class="st0" points="232.5,121.3 260.2,149 276.8,149 304.5,121.3 					"/>
					<polyline class="st0" points="251.9,115.8 260.2,124.1 260.2,140.7 243.5,124.1 					"/>
					<polyline class="st0" points="285.1,115.8 276.8,124.1 276.8,140.7 293.4,124.1 					"/>
					<g>
						<polyline class="st0" points="260.2,115.8 268.5,124.1 276.8,115.8 						"/>
						<line class="st0" x1="268.5" y1="124.1" x2="268.5" y2="140.7"/>
					</g>
				</g>
				<g>
					<polyline class="st0" points="304.5,110.2 276.8,82.5 260.2,82.5 232.5,110.2 					"/>
					<polyline class="st0" points="285.1,115.8 276.8,107.4 276.8,90.8 293.4,107.4 					"/>
					<polyline class="st0" points="251.8,115.8 260.2,107.4 260.2,90.8 243.5,107.4 					"/>
					<g>
						<polyline class="st0" points="276.8,115.8 268.5,107.4 260.2,115.8 						"/>
						<line class="st0" x1="268.5" y1="107.4" x2="268.5" y2="90.8"/>
					</g>
				</g>
			</g>
			<g>
				<g>
					<polyline class="st0" points="274,151.8 301.7,124.1 301.7,107.4 274,79.8 					"/>
					<polyline class="st0" points="268.5,132.4 276.8,124.1 293.4,124.1 276.8,140.7 					"/>
					<polyline class="st0" points="268.5,99.1 276.8,107.4 293.4,107.4 276.8,90.8 					"/>
					<g>
						<polyline class="st0" points="268.5,124.1 276.8,115.7 268.5,107.4 						"/>
						<line class="st0" x1="276.8" y1="115.7" x2="293.4" y2="115.7"/>
					</g>
				</g>
				<g>
					<polyline class="st0" points="262.9,79.8 235.2,107.4 235.2,124.1 262.9,151.8 					"/>
					<polyline class="st0" points="268.5,99.1 260.2,107.4 243.5,107.4 260.2,90.8 					"/>
					<polyline class="st0" points="268.5,132.4 260.2,124.1 243.5,124.1 260.2,140.7 					"/>
					<g>
						<polyline class="st0" points="268.5,107.4 260.2,115.8 268.5,124.1 						"/>
						<line class="st0" x1="260.2" y1="115.8" x2="243.5" y2="115.8"/>
					</g>
				</g>
			</g>
		</g>
		<g>
			<g>
				<g>
					<polyline class="st0" points="246.9,145.1 286.1,145.1 297.8,133.4 297.8,94.2 					"/>
					<polyline class="st0" points="256.7,127.5 268.5,127.5 280.2,139.3 256.7,139.2 					"/>
					<polyline class="st0" points="280.2,104 280.2,115.8 292,127.5 292,104 					"/>
					<g>
						<polyline class="st0" points="262.6,121.6 274.3,121.6 274.3,109.9 						"/>
						<line class="st0" x1="274.3" y1="121.6" x2="286.1" y2="133.4"/>
					</g>
				</g>
				<g>
					<polyline class="st0" points="290,86.4 250.8,86.4 239.1,98.1 239.1,137.3 					"/>
					<polyline class="st0" points="280.2,104 268.5,104 256.7,92.3 280.2,92.3 					"/>
					<polyline class="st0" points="256.7,127.5 256.7,115.8 245,104 245,127.5 					"/>
					<g>
						<polyline class="st0" points="274.3,109.9 262.6,109.9 262.6,121.6 						"/>
						<line class="st0" x1="262.6" y1="109.9" x2="250.8" y2="98.1"/>
					</g>
				</g>
			</g>
			<g>
				<g>
					<polyline class="st0" points="297.8,137.3 297.8,98.1 286.1,86.4 246.9,86.4 					"/>
					<polyline class="st0" points="280.2,127.5 280.2,115.8 292,104 292,127.5 					"/>
					<polyline class="st0" points="256.7,104 268.5,104 280.2,92.3 256.7,92.3 					"/>
					<g>
						<polyline class="st0" points="274.3,121.6 274.3,109.9 262.6,109.9 						"/>
						<line class="st0" x1="274.3" y1="109.9" x2="286.1" y2="98.1"/>
					</g>
				</g>
				<g>
					<polyline class="st0" points="239.1,94.2 239.1,133.4 250.8,145.1 290,145.1 					"/>
					<polyline class="st0" points="256.7,104 256.7,115.8 245,127.5 245,104 					"/>
					<polyline class="st0" points="280.2,127.5 268.5,127.5 256.7,139.3 280.2,139.3 					"/>
					<g>
						<polyline class="st0" points="262.6,109.9 262.6,121.6 274.3,121.6 						"/>
						<line class="st0" x1="262.6" y1="121.6" x2="250.8" y2="133.4"/>
					</g>
				</g>
			</g>
		</g>
	</g>
	<g>
		<g>
			<g>
				<g>
					<polyline class="st0" points="230.4,280.5 265,315.1 285.7,315.1 320.4,280.5 					"/>
					<polyline class="st0" points="254.6,273.6 265,283.9 265,304.7 244.2,283.9 					"/>
					<polyline class="st0" points="296.1,273.6 285.7,283.9 285.8,304.7 306.5,283.9 					"/>
					<g>
						<polyline class="st0" points="265,273.6 275.4,283.9 285.7,273.6 						"/>
						<line class="st0" x1="275.4" y1="283.9" x2="275.4" y2="304.7"/>
					</g>
				</g>
				<g>
					<polyline class="st0" points="320.4,266.6 285.7,232 265,232 230.4,266.6 					"/>
					<polyline class="st0" points="296.1,273.6 285.7,263.2 285.7,242.4 306.5,263.2 					"/>
					<polyline class="st0" points="254.6,273.6 265,263.2 265,242.4 244.2,263.2 					"/>
					<g>
						<polyline class="st0" points="285.7,273.6 275.4,263.2 265,273.6 						"/>
						<line class="st0" x1="275.4" y1="263.2" x2="275.4" y2="242.4"/>
					</g>
				</g>
			</g>
			<g>
				<g>
					<polyline class="st0" points="282.3,318.6 316.9,283.9 316.9,263.2 282.3,228.6 					"/>
					<polyline class="st0" points="275.4,294.3 285.7,283.9 306.5,283.9 285.7,304.7 					"/>
					<polyline class="st0" points="275.4,252.8 285.7,263.2 306.5,263.2 285.7,242.4 					"/>
					<g>
						<polyline class="st0" points="275.4,283.9 285.7,273.6 275.4,263.2 						"/>
						<line class="st0" x1="285.7" y1="273.6" x2="306.5" y2="273.6"/>
					</g>
				</g>
				<g>
					<polyline class="st0" points="268.4,228.6 233.8,263.2 233.8,283.9 268.4,318.6 					"/>
					<polyline class="st0" points="275.4,252.8 265,263.2 244.2,263.2 265,242.4 					"/>
					<polyline class="st0" points="275.4,294.3 265,283.9 244.2,283.9 265,304.7 					"/>
					<g>
						<polyline class="st0" points="275.4,263.2 265,273.6 275.4,283.9 						"/>
						<line class="st0" x1="265" y1="273.6" x2="244.2" y2="273.6"/>
					</g>
				</g>
			</g>
		</g>
		<g>
			<g>
				<g>
					<polyline class="st0" points="248.4,310.3 297.4,310.3 312.1,295.6 312.1,246.6 					"/>
					<polyline class="st0" points="260.7,288.2 275.4,288.2 290,302.9 260.7,302.9 					"/>
					<polyline class="st0" points="290.1,258.9 290.1,273.6 304.7,288.2 304.7,258.9 					"/>
					<g>
						<polyline class="st0" points="268,280.9 282.7,280.9 282.7,266.2 						"/>
						<line class="st0" x1="282.7" y1="280.9" x2="297.4" y2="295.6"/>
					</g>
				</g>
				<g>
					<polyline class="st0" points="302.3,236.8 253.3,236.8 238.6,251.5 238.6,300.5 					"/>
					<polyline class="st0" points="290,258.9 275.4,258.9 260.7,244.2 290,244.2 					"/>
					<polyline class="st0" points="260.7,288.2 260.7,273.6 246,258.9 246,288.2 					"/>
					<g>
						<polyline class="st0" points="282.7,266.2 268,266.2 268,280.9 						"/>
						<line class="st0" x1="268" y1="266.2" x2="253.3" y2="251.5"/>
					</g>
				</g>
			</g>
			<g>
				<g>
					<polyline class="st0" points="312.1,300.5 312.1,251.5 297.4,236.8 248.4,236.8 					"/>
					<polyline class="st0" points="290,288.2 290,273.6 304.7,258.9 304.7,288.2 					"/>
					<polyline class="st0" points="260.7,258.9 275.4,258.9 290,244.2 260.7,244.2 					"/>
					<g>
						<polyline class="st0" points="282.7,280.9 282.7,266.2 268,266.2 						"/>
						<line class="st0" x1="282.7" y1="266.2" x2="297.4" y2="251.5"/>
					</g>
				</g>
				<g>
					<polyline class="st0" points="238.6,246.6 238.6,295.6 253.3,310.3 302.3,310.3 					"/>
					<polyline class="st0" points="260.7,258.9 260.7,273.6 246,288.2 246,258.9 					"/>
					<polyline class="st0" points="290.1,288.2 275.4,288.2 260.7,302.9 290,302.9 					"/>
					<g>
						<polyline class="st0" points="268,266.2 268,280.9 282.7,280.9 						"/>
						<line class="st0" x1="268" y1="280.9" x2="253.3" y2="295.6"/>
					</g>
				</g>
			</g>
		</g>
	</g>
	<g>
		<g>
			<g>
				<g>
					<polyline class="st0" points="148.7,119.9 169.4,140.7 181.9,140.7 202.7,119.9 					"/>
					<polyline class="st0" points="163.2,115.8 169.4,122 169.4,134.4 157,122 					"/>
					<polyline class="st0" points="188.1,115.8 181.9,122 181.9,134.4 194.4,122 					"/>
					<g>
						<polyline class="st0" points="169.4,115.8 175.7,122 181.9,115.8 						"/>
						<line class="st0" x1="175.7" y1="122" x2="175.7" y2="134.4"/>
					</g>
				</g>
				<g>
					<polyline class="st0" points="202.7,111.6 181.9,90.8 169.4,90.8 148.7,111.6 					"/>
					<polyline class="st0" points="188.1,115.8 181.9,109.5 181.9,97.1 194.3,109.5 					"/>
					<polyline class="st0" points="163.2,115.8 169.4,109.5 169.4,97.1 157,109.5 					"/>
					<g>
						<polyline class="st0" points="181.9,115.8 175.7,109.5 169.4,115.8 						"/>
						<line class="st0" x1="175.7" y1="109.5" x2="175.7" y2="97.1"/>
					</g>
				</g>
			</g>
			<g>
				<g>
					<polyline class="st0" points="179.8,142.8 200.6,122 200.6,109.5 179.8,88.8 					"/>
					<polyline class="st0" points="175.7,128.2 181.9,122 194.3,122 181.9,134.4 					"/>
					<polyline class="st0" points="175.7,103.3 181.9,109.5 194.3,109.5 181.9,97.1 					"/>
					<g>
						<polyline class="st0" points="175.7,122 181.9,115.8 175.7,109.5 						"/>
						<line class="st0" x1="181.9" y1="115.8" x2="194.3" y2="115.8"/>
					</g>
				</g>
				<g>
					<polyline class="st0" points="171.5,88.8 150.7,109.5 150.7,122 171.5,142.8 					"/>
					<polyline class="st0" points="175.7,103.3 169.4,109.5 157,109.5 169.4,97.1 					"/>
					<polyline class="st0" points="175.7,128.2 169.4,122 157,122 169.4,134.4 					"/>
					<g>
						<polyline class="st0" points="175.7,109.5 169.4,115.8 175.7,122 						"/>
						<line class="st0" x1="169.4" y1="115.8" x2="157" y2="115.8"/>
					</g>
				</g>
			</g>
		</g>
		<g>
			<g>
				<g>
					<polyline class="st0" points="159.5,137.8 188.9,137.8 197.7,129 197.7,99.6 					"/>
					<polyline class="st0" points="166.8,124.6 175.7,124.6 184.5,133.4 166.8,133.4 					"/>
					<polyline class="st0" points="184.5,106.9 184.5,115.8 193.3,124.6 193.3,106.9 					"/>
					<g>
						<polyline class="st0" points="171.3,120.2 180.1,120.2 180.1,111.3 						"/>
						<line class="st0" x1="180.1" y1="120.2" x2="188.9" y2="129"/>
					</g>
				</g>
				<g>
					<polyline class="st0" points="191.8,93.7 162.4,93.7 153.6,102.5 153.6,131.9 					"/>
					<polyline class="st0" points="184.5,106.9 175.7,106.9 166.8,98.1 184.5,98.1 					"/>
					<polyline class="st0" points="166.8,124.6 166.8,115.8 158,106.9 158,124.6 					"/>
					<g>
						<polyline class="st0" points="180.1,111.3 171.2,111.3 171.3,120.2 						"/>
						<line class="st0" x1="171.2" y1="111.3" x2="162.4" y2="102.5"/>
					</g>
				</g>
			</g>
			<g>
				<g>
					<polyline class="st0" points="197.7,131.9 197.7,102.5 188.9,93.7 159.5,93.7 					"/>
					<polyline class="st0" points="184.5,124.6 184.5,115.8 193.3,106.9 193.3,124.6 					"/>
					<polyline class="st0" points="166.8,106.9 175.7,106.9 184.5,98.1 166.8,98.1 					"/>
					<g>
						<polyline class="st0" points="180.1,120.2 180.1,111.3 171.2,111.3 						"/>
						<line class="st0" x1="180.1" y1="111.3" x2="188.9" y2="102.5"/>
					</g>
				</g>
				<g>
					<polyline class="st0" points="153.6,99.6 153.6,129 162.4,137.8 191.8,137.8 					"/>
					<polyline class="st0" points="166.8,106.9 166.8,115.8 158,124.6 158,106.9 					"/>
					<polyline class="st0" points="184.5,124.6 175.7,124.6 166.8,133.4 184.5,133.4 					"/>
					<g>
						<polyline class="st0" points="171.3,111.3 171.3,120.2 180.1,120.2 						"/>
						<line class="st0" x1="171.3" y1="120.2" x2="162.4" y2="129"/>
					</g>
				</g>
			</g>
		</g>
	</g>
	<g>
		<g>
			<g>
				<g>
					<polyline class="st0" points="67.4,118.5 81.3,132.4 89.6,132.4 103.4,118.5 					"/>
					<polyline class="st0" points="77.1,115.8 81.3,119.9 81.3,128.2 72.9,119.9 					"/>
					<polyline class="st0" points="93.7,115.8 89.6,119.9 89.6,128.2 97.9,119.9 					"/>
					<g>
						<polyline class="st0" points="81.3,115.8 85.4,119.9 89.6,115.8 						"/>
						<line class="st0" x1="85.4" y1="119.9" x2="85.4" y2="128.2"/>
					</g>
				</g>
				<g>
					<polyline class="st0" points="103.4,113 89.6,99.1 81.3,99.1 67.4,113 					"/>
					<polyline class="st0" points="93.7,115.8 89.6,111.6 89.6,103.3 97.9,111.6 					"/>
					<polyline class="st0" points="77.1,115.8 81.3,111.6 81.3,103.3 72.9,111.6 					"/>
					<g>
						<polyline class="st0" points="89.6,115.8 85.4,111.6 81.3,115.8 						"/>
						<line class="st0" x1="85.4" y1="111.6" x2="85.4" y2="103.3"/>
					</g>
				</g>
			</g>
			<g>
				<g>
					<polyline class="st0" points="88.2,133.8 102,119.9 102,111.6 88.2,97.8 					"/>
					<polyline class="st0" points="85.4,124.1 89.6,119.9 97.9,119.9 89.6,128.2 					"/>
					<polyline class="st0" points="85.4,107.4 89.6,111.6 97.9,111.6 89.6,103.3 					"/>
					<g>
						<polyline class="st0" points="85.4,119.9 89.6,115.8 85.4,111.6 						"/>
						<line class="st0" x1="89.6" y1="115.8" x2="97.9" y2="115.8"/>
					</g>
				</g>
				<g>
					<polyline class="st0" points="82.6,97.8 68.8,111.6 68.8,119.9 82.6,133.8 					"/>
					<polyline class="st0" points="85.4,107.4 81.3,111.6 72.9,111.6 81.3,103.3 					"/>
					<polyline class="st0" points="85.4,124.1 81.3,119.9 72.9,119.9 81.3,128.2 					"/>
					<g>
						<polyline class="st0" points="85.4,111.6 81.3,115.8 85.4,119.9 						"/>
						<line class="st0" x1="81.3" y1="115.8" x2="72.9" y2="115.8"/>
					</g>
				</g>
			</g>
		</g>
		<g>
			<g>
				<g>
					<polyline class="st0" points="74.6,130.4 94.2,130.4 100.1,124.6 100.1,105 					"/>
					<polyline class="st0" points="79.5,121.6 85.4,121.6 91.3,127.5 79.5,127.5 					"/>
					<polyline class="st0" points="91.3,109.9 91.3,115.8 97.2,121.6 97.2,109.9 					"/>
					<g>
						<polyline class="st0" points="82.5,118.7 88.3,118.7 88.3,112.8 						"/>
						<line class="st0" x1="88.3" y1="118.7" x2="94.2" y2="124.6"/>
					</g>
				</g>
				<g>
					<polyline class="st0" points="96.2,101.1 76.6,101.1 70.7,106.9 70.7,126.5 					"/>
					<polyline class="st0" points="91.3,109.9 85.4,109.9 79.5,104 91.3,104 					"/>
					<polyline class="st0" points="79.5,121.6 79.5,115.8 73.7,109.9 73.7,121.6 					"/>
					<g>
						<polyline class="st0" points="88.3,112.8 82.5,112.8 82.5,118.7 						"/>
						<line class="st0" x1="82.5" y1="112.8" x2="76.6" y2="106.9"/>
					</g>
				</g>
			</g>
			<g>
				<g>
					<polyline class="st0" points="100.1,126.5 100.1,106.9 94.2,101.1 74.6,101.1 					"/>
					<polyline class="st0" points="91.3,121.6 91.3,115.8 97.2,109.9 97.2,121.6 					"/>
					<polyline class="st0" points="79.5,109.9 85.4,109.9 91.3,104 79.5,104 					"/>
					<g>
						<polyline class="st0" points="88.3,118.7 88.3,112.8 82.5,112.8 						"/>
						<line class="st0" x1="88.3" y1="112.8" x2="94.2" y2="106.9"/>
					</g>
				</g>
				<g>
					<polyline class="st0" points="70.7,105 70.7,124.6 76.6,130.4 96.2,130.4 					"/>
					<polyline class="st0" points="79.5,109.9 79.5,115.8 73.7,121.6 73.7,109.9 					"/>
					<polyline class="st0" points="91.3,121.6 85.4,121.6 79.5,127.5 91.3,127.5 					"/>
					<g>
						<polyline class="st0" points="82.5,112.8 82.5,118.7 88.3,118.7 						"/>
						<line class="st0" x1="82.5" y1="118.7" x2="76.6" y2="124.6"/>
					</g>
				</g>
			</g>
		</g>
	</g>
	<g>
		<g>
			<g>
				<g>
					<g>
						<polygon points="-252.5,238.9 -252.7,238.9 -296.4,195.2 -295.7,194.5 -252.3,237.9 -226.6,237.9 -183.2,194.5 -182.5,195.2 
							-226.2,238.9 						"/>
					</g>
					<g>
						<polygon points="-252,226.5 -279,199.6 -278.3,198.9 -253,224.2 -253,199.4 -265.9,186.5 -265.2,185.8 -252,199 						"/>
					</g>
					<g>
						<polygon points="-226.9,226.5 -226.9,199 -213.6,185.8 -213,186.5 -225.9,199.4 -225.9,224.2 -200.6,198.9 -199.9,199.6 
													"/>
					</g>
					<g>
						<g>
							<polygon points="-239.4,199.9 -252.8,186.5 -252.2,185.8 -239.4,198.5 -226.7,185.8 -226,186.5 							"/>
						</g>
						<g>
							<rect x="-239.9" y="199.2" width="1" height="26.1"/>
						</g>
					</g>
				</g>
				<g>
					<g>
						<polygon points="-183.2,177.8 -226.6,134.4 -252.3,134.4 -295.7,177.8 -296.4,177.1 -252.7,133.4 -226.2,133.4 -182.5,177.1 
													"/>
					</g>
					<g>
						<polygon points="-213.7,186.5 -226.9,173.3 -226.9,145.8 -199.9,172.8 -200.6,173.4 -225.9,148.1 -225.9,172.9 -213,185.8 
													"/>
					</g>
					<g>
						<polygon points="-265.2,186.5 -265.9,185.8 -253,172.9 -253,148.1 -278.3,173.4 -279,172.8 -252,145.8 -252,173.3 						"/>
					</g>
					<g>
						<g>
							<polygon points="-226.7,186.5 -239.4,173.8 -252.2,186.5 -252.8,185.8 -239.4,172.4 -226,185.8 							"/>
						</g>
						<g>
							<rect x="-239.9" y="147" width="1" height="26.1"/>
						</g>
					</g>
				</g>
			</g>
			<g>
				<g>
					<g>
						<polygon points="-230.4,243.1 -231.1,242.4 -187.7,199 -187.7,173.3 -231.1,129.9 -230.4,129.2 -186.7,172.9 -186.7,199.4 
													"/>
					</g>
					<g>
						<polygon points="-226,225.7 -226.7,225 -201.4,199.7 -226.2,199.7 -239.1,212.6 -239.8,211.9 -226.6,198.7 -199.1,198.7 
													"/>
					</g>
					<g>
						<polygon points="-226.6,173.6 -239.8,160.4 -239.1,159.7 -226.2,172.6 -201.4,172.6 -226.7,147.3 -226,146.6 -199.1,173.6 
													"/>
					</g>
					<g>
						<g>
							<polygon points="-239.1,199.6 -239.8,198.9 -227.1,186.2 -239.8,173.4 -239.1,172.8 -225.7,186.2 							"/>
						</g>
						<g>
							<rect x="-226.4" y="185.7" width="26.1" height="1"/>
						</g>
					</g>
				</g>
				<g>
					<g>
						<polygon points="-248.5,243.1 -292.2,199.4 -292.2,172.9 -248.5,129.2 -247.8,129.9 -291.2,173.3 -291.2,199 -247.8,242.4 
													"/>
					</g>
					<g>
						<polygon points="-252.3,173.6 -279.8,173.6 -252.8,146.6 -252.2,147.3 -277.5,172.6 -252.7,172.6 -239.8,159.7 -239.1,160.4 
													"/>
					</g>
					<g>
						<polygon points="-252.8,225.7 -279.8,198.7 -252.3,198.7 -239.1,212 -239.8,212.6 -252.7,199.7 -277.5,199.7 -252.2,225 
													"/>
					</g>
					<g>
						<g>
							<polygon points="-239.8,199.6 -253.2,186.2 -239.8,172.8 -239.1,173.4 -251.8,186.2 -239.1,198.9 							"/>
						</g>
						<g>
							<rect x="-278.6" y="185.7" width="26.1" height="1"/>
						</g>
					</g>
				</g>
			</g>
		</g>
		<g>
			<g>
				<g>
					<g>
						<polygon points="-211.5,232.8 -273.3,232.8 -273.3,231.9 -211.9,231.9 -193.7,213.7 -193.7,152.3 -192.8,152.3 -192.8,214.1 
													"/>
					</g>
					<g>
						<polygon points="-219.8,223.6 -257.9,223.6 -257.9,222.6 -222.1,222.6 -239.6,205.1 -257.9,205.1 -257.9,204.2 -239.2,204.2 
													"/>
					</g>
					<g>
						<polygon points="-202,205.8 -221.4,186.4 -221.4,167.7 -220.5,167.7 -220.5,186 -203,203.5 -203,167.7 -202,167.7 						"/>
					</g>
					<g>
						<g>
							<polygon points="-248.7,195.9 -248.7,194.9 -230.7,194.9 -230.7,176.9 -229.7,176.9 -229.7,195.9 							"/>
						</g>
						<g>
							<rect x="-221.4" y="191.6" transform="matrix(0.7071 -0.7071 0.7071 0.7071 -209.413 -96.3047)" width="1" height="26.1"/>
						</g>
					</g>
				</g>
				<g>
					<g>
						<polygon points="-285.1,220 -286.1,220 -286.1,158.3 -267.4,139.5 -205.6,139.5 -205.6,140.5 -267,140.5 -285.1,158.7 						
							"/>
					</g>
					<g>
						<polygon points="-239.6,168.2 -259.1,148.7 -221,148.7 -221,149.7 -256.7,149.7 -239.2,167.2 -221,167.2 -221,168.2 						"/>
					</g>
					<g>
						<polygon points="-257.4,204.6 -258.4,204.6 -258.4,186.4 -275.9,168.9 -275.9,204.6 -276.9,204.6 -276.9,166.5 -257.4,186 
													"/>
					</g>
					<g>
						<g>
							<polygon points="-249.2,195.4 -249.2,176.4 -230.2,176.4 -230.2,177.4 -248.2,177.4 -248.2,195.4 							"/>
						</g>
						<g>
							<rect x="-258.4" y="154.6" transform="matrix(0.7071 -0.7071 0.7071 0.7071 -194.118 -133.2588)" width="1" height="26.1"/>
						</g>
					</g>
				</g>
			</g>
			<g>
				<g>
					<g>
						<polygon points="-192.8,220 -193.7,220 -193.7,158.7 -211.9,140.5 -273.3,140.5 -273.3,139.5 -211.5,139.5 -192.8,158.2 
													"/>
					</g>
					<g>
						<polygon points="-221.4,204.6 -221.4,186 -202,166.5 -202,204.6 -203,204.6 -203,168.9 -220.5,186.4 -220.5,204.6 						"/>
					</g>
					<g>
						<polygon points="-239.2,168.2 -257.9,168.2 -257.9,167.2 -239.6,167.2 -222.1,149.7 -257.9,149.7 -257.9,148.7 -219.8,148.7 
													"/>
					</g>
					<g>
						<g>
							<polygon points="-230.7,195.4 -230.7,177.4 -248.7,177.4 -248.7,176.4 -229.7,176.4 -229.7,195.4 							"/>
						</g>
						<g>
							<rect x="-234" y="167.2" transform="matrix(0.7071 -0.7071 0.7071 0.7071 -183.2905 -107.1322)" width="26.1" height="1"/>
						</g>
					</g>
				</g>
				<g>
					<g>
						<polygon points="-205.6,232.8 -267.4,232.8 -286.1,214.1 -286.1,152.3 -285.1,152.3 -285.1,213.7 -267,231.9 -205.6,231.9 
													"/>
					</g>
					<g>
						<polygon points="-276.9,205.8 -276.9,167.7 -275.9,167.7 -275.9,203.5 -258.4,186 -258.4,167.7 -257.4,167.7 -257.4,186.4 
													"/>
					</g>
					<g>
						<polygon points="-259.1,223.6 -239.6,204.2 -221,204.2 -221,205.1 -239.2,205.1 -256.7,222.6 -221,222.6 -221,223.6 						"/>
					</g>
					<g>
						<g>
							<polygon points="-249.2,195.9 -249.2,176.9 -248.2,176.9 -248.2,194.9 -230.2,194.9 -230.2,195.9 							"/>
						</g>
						<g>
							<rect x="-271" y="204.2" transform="matrix(0.7071 -0.7071 0.7071 0.7071 -220.2444 -122.4314)" width="26.1" height="1"/>
						</g>
					</g>
				</g>
			</g>
		</g>
	</g>
	<g>
		<g>
			<g>
				<g>
					<g>
						<polygon points="863.2,62.7 863.4,62.7 908.3,107.5 907.6,108.2 863,63.7 836.6,63.7 792,108.2 791.3,107.5 836.2,62.7 						
							"/>
					</g>
					<g>
						<polygon points="862.7,75.4 890.4,103.1 889.7,103.8 863.7,77.8 863.7,103.2 877,116.5 876.3,117.2 862.7,103.6 						"/>
					</g>
					<g>
						<polygon points="836.9,75.4 836.9,103.6 823.3,117.2 822.6,116.5 835.9,103.2 835.9,77.8 809.9,103.8 809.2,103.1 						"/>
					</g>
					<g>
						<g>
							<polygon points="849.8,102.7 863.6,116.5 862.9,117.2 849.8,104.1 836.7,117.2 836,116.5 							"/>
						</g>
						<g>
							<rect x="849.3" y="76.6" width="1" height="26.8"/>
						</g>
					</g>
				</g>
				<g>
					<g>
						<polygon points="792,125.4 836.6,170 863,170 907.6,125.4 908.3,126.1 863.4,171 836.2,171 791.3,126.1 						"/>
					</g>
					<g>
						<polygon points="823.3,116.5 836.9,130 836.9,158.3 809.2,130.6 809.9,129.9 835.9,155.9 835.9,130.5 822.6,117.2 						"/>
					</g>
					<g>
						<polygon points="876.3,116.5 877,117.2 863.7,130.5 863.7,155.9 889.7,129.9 890.4,130.6 862.7,158.3 862.7,130 						"/>
					</g>
					<g>
						<g>
							<polygon points="836.7,116.5 849.8,129.5 862.9,116.5 863.6,117.2 849.8,131 836,117.2 							"/>
						</g>
						<g>
							<rect x="849.3" y="130.2" width="1" height="26.8"/>
						</g>
					</g>
				</g>
			</g>
			<g>
				<g>
					<g>
						<polygon points="840.5,58.3 841.2,59 796.6,103.6 796.6,130 841.2,174.6 840.5,175.3 795.6,130.5 795.6,103.2 						"/>
					</g>
					<g>
						<polygon points="836,76.2 836.7,76.9 810.7,102.9 836.2,102.9 849.5,89.6 850.2,90.3 836.6,103.9 808.3,103.9 						"/>
					</g>
					<g>
						<polygon points="836.6,129.8 850.2,143.3 849.5,144 836.2,130.8 810.7,130.8 836.7,156.7 836,157.4 808.3,129.8 						"/>
					</g>
					<g>
						<g>
							<polygon points="849.5,103.1 850.2,103.8 837.1,116.8 850.2,129.9 849.5,130.6 835.7,116.8 							"/>
						</g>
						<g>
							<rect x="809.5" y="116.3" width="26.8" height="1"/>
						</g>
					</g>
				</g>
				<g>
					<g>
						<polygon points="859.1,58.3 904,103.2 904,130.5 859.1,175.3 858.4,174.6 903,130 903,103.6 858.4,59 						"/>
					</g>
					<g>
						<polygon points="863,129.8 891.3,129.8 863.6,157.4 862.9,156.7 888.9,130.7 863.4,130.7 850.2,144 849.5,143.3 						"/>
					</g>
					<g>
						<polygon points="863.6,76.2 891.3,103.9 863,103.9 849.5,90.3 850.2,89.6 863.4,102.9 888.9,102.9 862.9,76.9 						"/>
					</g>
					<g>
						<g>
							<polygon points="850.2,103.1 863.9,116.8 850.2,130.6 849.5,129.9 862.5,116.8 849.5,103.8 							"/>
						</g>
						<g>
							<rect x="863.2" y="116.3" width="26.8" height="1"/>
						</g>
					</g>
				</g>
			</g>
		</g>
		<g>
			<g>
				<g>
					<g>
						<polygon points="821.1,68.9 884.6,68.9 884.6,69.9 821.5,69.9 802.9,88.6 802.9,151.6 801.9,151.6 801.9,88.2 						"/>
					</g>
					<g>
						<polygon points="829.6,78.4 868.8,78.4 868.8,79.4 832,79.4 850,97.4 868.8,97.4 868.8,98.4 849.6,98.4 						"/>
					</g>
					<g>
						<polygon points="811.3,96.7 831.3,116.6 831.3,135.8 830.3,135.8 830.3,117 812.3,99.1 812.3,135.8 811.4,135.8 						"/>
					</g>
					<g>
						<g>
							<polygon points="859.3,106.8 859.3,107.8 840.8,107.8 840.8,126.3 839.8,126.3 839.8,106.8 							"/>
						</g>
						<g>
							<rect x="830.3" y="84.4" transform="matrix(0.7071 -0.7071 0.7071 0.7071 174.1408 616.1344)" width="1" height="26.8"/>
						</g>
					</g>
				</g>
				<g>
					<g>
						<polygon points="896.8,82 897.7,82 897.7,145.5 878.5,164.8 815,164.8 815,163.8 878.1,163.8 896.8,145.1 						"/>
					</g>
					<g>
						<polygon points="850,135.3 870,155.3 830.8,155.3 830.8,154.3 867.6,154.3 849.6,136.3 830.8,136.3 830.8,135.3 						"/>
					</g>
					<g>
						<polygon points="868.3,97.9 869.3,97.9 869.3,116.6 887.3,134.6 887.3,97.9 888.3,97.9 888.3,137 868.3,117 						"/>
					</g>
					<g>
						<g>
							<polygon points="859.8,107.3 859.8,126.8 840.3,126.8 840.3,125.8 858.8,125.8 858.8,107.3 							"/>
						</g>
						<g>
							<rect x="868.3" y="122.4" transform="matrix(0.7071 -0.7071 0.7071 0.7071 158.4331 654.1002)" width="1" height="26.8"/>
						</g>
					</g>
				</g>
			</g>
			<g>
				<g>
					<g>
						<polygon points="801.9,82 802.9,82 802.9,145.1 821.5,163.8 884.6,163.8 884.6,164.8 821.1,164.8 801.9,145.5 						"/>
					</g>
					<g>
						<polygon points="831.3,97.9 831.3,117 811.4,137 811.4,97.9 812.3,97.9 812.3,134.6 830.3,116.6 830.3,97.9 						"/>
					</g>
					<g>
						<polygon points="849.6,135.3 868.8,135.3 868.8,136.3 850,136.3 832,154.3 868.8,154.3 868.8,155.3 829.6,155.3 						"/>
					</g>
					<g>
						<g>
							<polygon points="840.8,107.3 840.8,125.8 859.3,125.8 859.3,126.8 839.8,126.8 839.8,107.3 							"/>
						</g>
						<g>
							<rect x="817.4" y="135.3" transform="matrix(0.7071 -0.7071 0.7071 0.7071 147.3116 627.2642)" width="26.8" height="1"/>
						</g>
					</g>
				</g>
				<g>
					<g>
						<polygon points="815,68.9 878.5,68.9 897.7,88.2 897.7,151.6 896.7,151.6 896.8,88.6 878.1,69.9 815,69.9 						"/>
					</g>
					<g>
						<polygon points="888.3,96.7 888.3,135.8 887.3,135.8 887.3,99.1 869.3,117 869.3,135.8 868.3,135.8 868.3,116.6 						"/>
					</g>
					<g>
						<polygon points="870,78.4 850,98.3 830.8,98.3 830.8,97.4 849.6,97.4 867.6,79.4 830.8,79.4 830.8,78.4 						"/>
					</g>
					<g>
						<g>
							<polygon points="859.8,106.8 859.8,126.3 858.8,126.3 858.8,107.8 840.3,107.8 840.3,106.8 							"/>
						</g>
						<g>
							<rect x="855.4" y="97.4" transform="matrix(0.7071 -0.7071 0.7071 0.7071 185.2689 642.9788)" width="26.8" height="1"/>
						</g>
					</g>
				</g>
			</g>
		</g>
	</g>
	<g>
		<g>
			<g>
				<g>
					<g>
						<polygon points="719.5,79.3 719.7,79.3 750.7,110.4 750.2,110.9 719.4,80 701.1,80 670.2,110.9 669.7,110.4 700.8,79.3 						
							"/>
					</g>
					<g>
						<polygon points="719.2,88.1 738.3,107.3 737.9,107.8 719.9,89.8 719.9,107.4 729.1,116.6 728.6,117.1 719.2,107.7 						"/>
					</g>
					<g>
						<polygon points="701.3,88.1 701.3,107.7 691.9,117.1 691.4,116.6 700.6,107.4 700.6,89.8 682.6,107.8 682.1,107.3 						"/>
					</g>
					<g>
						<g>
							<polygon points="710.2,107.1 719.8,116.6 719.3,117.1 710.2,108 701.2,117.1 700.7,116.6 							"/>
						</g>
						<g>
							<rect x="709.9" y="89" width="0.7" height="18.6"/>
						</g>
					</g>
				</g>
				<g>
					<g>
						<polygon points="670.2,122.8 701.1,153.6 719.4,153.6 750.2,122.8 750.7,123.3 719.7,154.3 700.8,154.3 669.7,123.3 						"/>
					</g>
					<g>
						<polygon points="691.9,116.6 701.3,126 701.3,145.5 682.1,126.4 682.6,125.9 700.6,143.9 700.6,126.3 691.4,117.1 						"/>
					</g>
					<g>
						<polygon points="728.6,116.6 729.1,117.1 719.9,126.3 719.9,143.9 737.9,125.9 738.3,126.4 719.2,145.5 719.2,126 						"/>
					</g>
					<g>
						<g>
							<polygon points="701.2,116.6 710.2,125.6 719.3,116.6 719.8,117.1 710.2,126.6 700.7,117.1 							"/>
						</g>
						<g>
							<rect x="709.9" y="126.1" width="0.7" height="18.6"/>
						</g>
					</g>
				</g>
			</g>
			<g>
				<g>
					<g>
						<polygon points="703.8,76.3 704.3,76.8 673.4,107.7 673.4,126 704.3,156.8 703.8,157.3 672.7,126.3 672.7,107.4 						"/>
					</g>
					<g>
						<polygon points="700.7,88.7 701.2,89.2 683.2,107.2 700.8,107.2 710,98 710.5,98.5 701.1,107.9 681.5,107.9 						"/>
					</g>
					<g>
						<polygon points="701.1,125.8 710.5,135.2 710,135.7 700.8,126.5 683.2,126.5 701.2,144.5 700.7,144.9 681.5,125.8 						"/>
					</g>
					<g>
						<g>
							<polygon points="710,107.3 710.5,107.8 701.4,116.8 710.5,125.9 710,126.4 700.5,116.8 							"/>
						</g>
						<g>
							<rect x="682.4" y="116.5" width="18.6" height="0.7"/>
						</g>
					</g>
				</g>
				<g>
					<g>
						<polygon points="716.7,76.3 747.7,107.4 747.7,126.3 716.7,157.3 716.2,156.8 747,126 747,107.7 716.2,76.8 						"/>
					</g>
					<g>
						<polygon points="719.4,125.8 738.9,125.8 719.8,144.9 719.3,144.5 737.3,126.5 719.7,126.5 710.5,135.7 710,135.2 						"/>
					</g>
					<g>
						<polygon points="719.8,88.7 738.9,107.9 719.4,107.9 710,98.5 710.5,98 719.7,107.2 737.3,107.2 719.3,89.2 						"/>
					</g>
					<g>
						<g>
							<polygon points="710.5,107.3 720,116.8 710.5,126.4 710,125.9 719,116.8 710,107.8 							"/>
						</g>
						<g>
							<rect x="719.5" y="116.5" width="18.6" height="0.7"/>
						</g>
					</g>
				</g>
			</g>
		</g>
		<g>
			<g>
				<g>
					<g>
						<polygon points="690.4,83.6 734.3,83.6 734.3,84.3 690.7,84.3 677.7,97.3 677.7,140.9 677,140.9 677,97 						"/>
					</g>
					<g>
						<polygon points="696.3,90.2 723.4,90.2 723.4,90.9 697.9,90.9 710.4,103.3 723.4,103.3 723.4,104 710.1,104 						"/>
					</g>
					<g>
						<polygon points="683.6,102.9 697.4,116.7 697.4,130 696.7,130 696.7,117 684.3,104.5 684.3,130 683.6,130 						"/>
					</g>
					<g>
						<g>
							<polygon points="716.8,109.9 716.8,110.6 704,110.6 704,123.4 703.3,123.4 703.3,109.9 							"/>
						</g>
						<g>
							<rect x="696.7" y="94.4" transform="matrix(0.7071 -0.7071 0.7071 0.7071 130.8441 523.2811)" width="0.7" height="18.6"/>
						</g>
					</g>
				</g>
				<g>
					<g>
						<polygon points="742.7,92.7 743.4,92.7 743.4,136.7 730.1,150 686.1,150 686.1,149.3 729.8,149.3 742.7,136.4 						"/>
					</g>
					<g>
						<polygon points="710.4,129.6 724.2,143.5 697.1,143.5 697.1,142.8 722.5,142.8 710.1,130.3 697.1,130.3 697.1,129.6 						"/>
					</g>
					<g>
						<polygon points="723,103.7 723.7,103.7 723.7,116.7 736.2,129.1 736.2,103.7 736.9,103.7 736.9,130.8 723,117 						"/>
					</g>
					<g>
						<g>
							<polygon points="717.1,110.3 717.1,123.7 703.7,123.7 703.7,123.1 716.5,123.1 716.5,110.3 							"/>
						</g>
						<g>
							<rect x="723" y="120.7" transform="matrix(0.7071 -0.7071 0.7071 0.7071 119.9703 549.5666)" width="0.7" height="18.6"/>
						</g>
					</g>
				</g>
			</g>
			<g>
				<g>
					<g>
						<polygon points="677,92.7 677.7,92.7 677.7,136.4 690.7,149.3 734.3,149.3 734.3,150 690.4,150 677,136.7 						"/>
					</g>
					<g>
						<polygon points="697.4,103.7 697.4,117 683.6,130.8 683.6,103.7 684.3,103.7 684.3,129.1 696.7,116.7 696.7,103.7 						"/>
					</g>
					<g>
						<polygon points="710.1,129.6 723.4,129.6 723.4,130.3 710.4,130.3 697.9,142.8 723.4,142.8 723.4,143.5 696.3,143.5 						"/>
					</g>
					<g>
						<g>
							<polygon points="704,110.3 704,123.1 716.8,123.1 716.8,123.7 703.3,123.7 703.3,110.3 							"/>
						</g>
						<g>
							<rect x="687.8" y="129.6" transform="matrix(0.7071 -0.7071 0.7071 0.7071 112.2708 530.9878)" width="18.6" height="0.7"/>
						</g>
					</g>
				</g>
				<g>
					<g>
						<polygon points="686.1,83.6 730.1,83.6 743.4,97 743.4,140.9 742.7,140.9 742.7,97.3 729.8,84.3 686.1,84.3 						"/>
					</g>
					<g>
						<polygon points="736.9,102.9 736.8,130 736.2,130 736.2,104.5 723.7,117 723.7,130 723,130 723,116.7 						"/>
					</g>
					<g>
						<polygon points="724.2,90.2 710.4,104 697.1,104 697.1,103.3 710.1,103.3 722.5,90.9 697.1,90.9 697.1,90.2 						"/>
					</g>
					<g>
						<g>
							<polygon points="717.1,109.9 717.1,123.4 716.5,123.4 716.5,110.6 703.7,110.6 703.7,109.9 							"/>
						</g>
						<g>
							<rect x="714.1" y="103.3" transform="matrix(0.7071 -0.7071 0.7071 0.7071 138.5489 541.8671)" width="18.6" height="0.7"/>
						</g>
					</g>
				</g>
			</g>
		</g>
	</g>
	<g>
		<g>
			<g>
				<g>
					<g>
						<polygon points="622,86.2 622.1,86.2 646.3,110.4 645.9,110.7 621.9,86.7 607.7,86.7 583.7,110.7 583.3,110.3 607.4,86.2 
													"/>
					</g>
					<g>
						<polygon points="621.7,93 636.6,107.9 636.3,108.3 622.3,94.3 622.3,108 629.4,115.2 629,115.5 621.7,108.2 						"/>
					</g>
					<g>
						<polygon points="607.8,93 607.8,108.2 600.5,115.5 600.1,115.2 607.3,108 607.3,94.3 593.3,108.3 592.9,107.9 						"/>
					</g>
					<g>
						<g>
							<polygon points="614.8,107.8 622.2,115.2 621.8,115.5 614.8,108.5 607.7,115.5 607.4,115.2 							"/>
						</g>
						<g>
							<rect x="614.5" y="93.7" width="0.5" height="14.5"/>
						</g>
					</g>
				</g>
				<g>
					<g>
						<polygon points="583.7,120 607.7,144 621.9,144 645.9,120 646.3,120.4 622.1,144.5 607.4,144.5 583.3,120.4 						"/>
					</g>
					<g>
						<polygon points="600.5,115.2 607.8,122.5 607.8,137.7 592.9,122.8 593.3,122.4 607.3,136.4 607.3,122.7 600.1,115.5 						"/>
					</g>
					<g>
						<polygon points="629,115.2 629.4,115.5 622.3,122.7 622.3,136.4 636.3,122.4 636.6,122.8 621.7,137.7 621.7,122.5 						"/>
					</g>
					<g>
						<g>
							<polygon points="607.7,115.2 614.8,122.2 621.8,115.2 622.2,115.5 614.8,123 607.4,115.5 							"/>
						</g>
						<g>
							<rect x="614.5" y="122.6" width="0.5" height="14.5"/>
						</g>
					</g>
				</g>
			</g>
			<g>
				<g>
					<g>
						<polygon points="609.8,83.9 610.2,84.2 586.1,108.2 586.1,122.5 610.2,146.5 609.8,146.9 585.6,122.7 585.6,108 						"/>
					</g>
					<g>
						<polygon points="607.4,93.5 607.7,93.9 593.8,107.9 607.4,107.9 614.6,100.7 615,101.1 607.7,108.4 592.5,108.4 						"/>
					</g>
					<g>
						<polygon points="607.7,122.3 615,129.6 614.6,130 607.4,122.9 593.8,122.9 607.7,136.8 607.4,137.2 592.5,122.3 						"/>
					</g>
					<g>
						<g>
							<polygon points="614.6,107.9 615,108.3 607.9,115.4 615,122.4 614.6,122.8 607.2,115.4 							"/>
						</g>
						<g>
							<rect x="593.1" y="115.1" width="14.5" height="0.5"/>
						</g>
					</g>
				</g>
				<g>
					<g>
						<polygon points="619.8,83.9 644,108 644,122.7 619.8,146.9 619.4,146.5 643.4,122.5 643.4,108.2 619.4,84.2 						"/>
					</g>
					<g>
						<polygon points="621.9,122.3 637.1,122.3 622.2,137.2 621.8,136.8 635.8,122.8 622.1,122.8 615,130 614.6,129.6 						"/>
					</g>
					<g>
						<polygon points="622.2,93.5 637.1,108.4 621.9,108.4 614.6,101.1 615,100.7 622.1,107.9 635.8,107.9 621.8,93.9 						"/>
					</g>
					<g>
						<g>
							<polygon points="615,107.9 622.4,115.4 615,122.8 614.6,122.4 621.6,115.4 614.6,108.3 							"/>
						</g>
						<g>
							<rect x="622" y="115.1" width="14.5" height="0.5"/>
						</g>
					</g>
				</g>
			</g>
		</g>
		<g>
			<g>
				<g>
					<g>
						<polygon points="599.3,89.5 633.5,89.5 633.5,90.1 599.6,90.1 589.5,100.1 589.5,134.1 589,134.1 589,99.9 						"/>
					</g>
					<g>
						<polygon points="603.9,94.7 625,94.7 625,95.2 605.2,95.2 614.9,104.9 625,104.9 625,105.4 614.7,105.4 						"/>
					</g>
					<g>
						<polygon points="594.1,104.5 604.8,115.2 604.8,125.6 604.3,125.6 604.3,115.5 594.6,105.8 594.6,125.6 594.1,125.6 						"/>
					</g>
					<g>
						<g>
							<polygon points="619.9,110 619.9,110.5 609.9,110.5 609.9,120.5 609.4,120.5 609.4,110 							"/>
						</g>
						<g>
							<rect x="604.3" y="97.9" transform="matrix(0.7071 -0.7071 0.7071 0.7071 102.7231 458.2779)" width="0.5" height="14.5"/>
						</g>
					</g>
				</g>
				<g>
					<g>
						<polygon points="640.1,96.6 640.6,96.6 640.6,130.8 630.2,141.2 596,141.2 596,140.6 630,140.6 640.1,130.6 						"/>
					</g>
					<g>
						<polygon points="614.9,125.3 625.6,136.1 604.6,136.1 604.6,135.5 624.4,135.5 614.7,125.8 604.6,125.8 604.6,125.3 						"/>
					</g>
					<g>
						<polygon points="624.7,105.1 625.3,105.1 625.3,115.2 635,124.9 635,105.1 635.5,105.1 635.5,126.2 624.7,115.5 						"/>
					</g>
					<g>
						<g>
							<polygon points="620.2,110.2 620.2,120.7 609.7,120.7 609.7,120.2 619.6,120.2 619.6,110.2 							"/>
						</g>
						<g>
							<rect x="624.7" y="118.3" transform="matrix(0.7071 -0.7071 0.7071 0.7071 94.266 478.7229)" width="0.5" height="14.5"/>
						</g>
					</g>
				</g>
			</g>
			<g>
				<g>
					<g>
						<polygon points="589,96.6 589.5,96.6 589.5,130.6 599.6,140.6 633.5,140.6 633.5,141.2 599.3,141.2 589,130.8 						"/>
					</g>
					<g>
						<polygon points="604.8,105.1 604.8,115.5 594.1,126.2 594.1,105.1 594.6,105.1 594.6,124.9 604.3,115.2 604.3,105.1 						"/>
					</g>
					<g>
						<polygon points="614.7,125.3 625,125.3 625,125.8 614.9,125.8 605.2,135.5 625,135.5 625,136.1 603.9,136.1 						"/>
					</g>
					<g>
						<g>
							<polygon points="609.9,110.2 609.9,120.2 619.9,120.2 619.9,120.7 609.4,120.7 609.4,110.2 							"/>
						</g>
						<g>
							<rect x="597.3" y="125.3" transform="matrix(0.7071 -0.7071 0.7071 0.7071 88.2775 464.2728)" width="14.5" height="0.5"/>
						</g>
					</g>
				</g>
				<g>
					<g>
						<polygon points="596,89.5 630.2,89.5 640.6,99.9 640.6,134.1 640.1,134.1 640.1,100.1 630,90.1 596,90.1 						"/>
					</g>
					<g>
						<polygon points="635.5,104.5 635.5,125.6 635,125.6 635,105.8 625.3,115.5 625.3,125.6 624.7,125.6 624.7,115.2 						"/>
					</g>
					<g>
						<polygon points="625.6,94.6 614.9,105.4 604.6,105.4 604.6,104.9 614.7,104.9 624.4,95.2 604.6,95.2 604.6,94.6 						"/>
					</g>
					<g>
						<g>
							<polygon points="620.2,110 620.2,120.5 619.6,120.5 619.6,110.5 609.7,110.5 609.7,110 							"/>
						</g>
						<g>
							<rect x="617.8" y="104.9" transform="matrix(0.7071 -0.7071 0.7071 0.7071 108.7161 472.7345)" width="14.5" height="0.5"/>
						</g>
					</g>
				</g>
			</g>
		</g>
	</g>
	<g>
		<g>
			<g>
				<g>
					<g>
						<polygon points="540.2,97.6 540.3,97.6 557.6,114.9 557.3,115.1 540.2,98 530,98 512.8,115.1 512.6,114.9 529.8,97.6 						
							"/>
					</g>
					<g>
						<polygon points="540,102.5 550.7,113.1 550.4,113.4 540.4,103.4 540.4,113.2 545.5,118.3 545.3,118.6 540,113.4 						"/>
					</g>
					<g>
						<polygon points="530.1,102.5 530.1,113.4 524.9,118.6 524.6,118.3 529.7,113.2 529.7,103.4 519.7,113.4 519.5,113.1 						"/>
					</g>
					<g>
						<g>
							<polygon points="535.1,113 540.4,118.3 540.1,118.6 535.1,113.5 530,118.6 529.8,118.3 							"/>
						</g>
						<g>
							<rect x="534.9" y="103" width="0.4" height="10.3"/>
						</g>
					</g>
				</g>
				<g>
					<g>
						<polygon points="512.8,121.7 530,138.9 540.2,138.9 557.3,121.7 557.6,122 540.3,139.3 529.8,139.3 512.6,122 						"/>
					</g>
					<g>
						<polygon points="524.9,118.3 530.1,123.5 530.1,134.4 519.5,123.7 519.7,123.5 529.7,133.5 529.7,123.7 524.6,118.6 						"/>
					</g>
					<g>
						<polygon points="545.3,118.3 545.5,118.6 540.4,123.7 540.4,133.5 550.4,123.5 550.7,123.7 540,134.4 540,123.5 						"/>
					</g>
					<g>
						<g>
							<polygon points="530,118.3 535.1,123.3 540.1,118.3 540.4,118.6 535.1,123.9 529.8,118.6 							"/>
						</g>
						<g>
							<rect x="534.9" y="123.6" width="0.4" height="10.3"/>
						</g>
					</g>
				</g>
			</g>
			<g>
				<g>
					<g>
						<polygon points="531.5,95.9 531.8,96.2 514.6,113.4 514.6,123.5 531.8,140.7 531.5,140.9 514.2,123.7 514.2,113.2 						"/>
					</g>
					<g>
						<polygon points="529.8,102.8 530,103.1 520,113.1 529.8,113.1 534.9,108 535.2,108.2 530,113.5 519.1,113.5 						"/>
					</g>
					<g>
						<polygon points="530,123.4 535.2,128.6 534.9,128.9 529.8,123.8 520,123.8 530,133.8 529.8,134.1 519.1,123.4 						"/>
					</g>
					<g>
						<g>
							<polygon points="534.9,113.1 535.2,113.4 530.2,118.4 535.2,123.5 534.9,123.7 529.6,118.4 							"/>
						</g>
						<g>
							<rect x="519.6" y="118.2" width="10.3" height="0.4"/>
						</g>
					</g>
				</g>
				<g>
					<g>
						<polygon points="538.6,95.9 555.9,113.2 555.9,123.7 538.6,140.9 538.4,140.7 555.5,123.5 555.5,113.4 538.4,96.2 						"/>
					</g>
					<g>
						<polygon points="540.2,123.4 551,123.4 540.4,134.1 540.1,133.8 550.1,123.8 540.3,123.8 535.2,128.9 534.9,128.6 						"/>
					</g>
					<g>
						<polygon points="540.4,102.8 551,113.5 540.2,113.5 534.9,108.2 535.2,108 540.3,113.1 550.1,113.1 540.1,103.1 						"/>
					</g>
					<g>
						<g>
							<polygon points="535.2,113.1 540.5,118.4 535.2,123.7 534.9,123.5 540,118.4 534.9,113.4 							"/>
						</g>
						<g>
							<rect x="540.2" y="118.2" width="10.3" height="0.4"/>
						</g>
					</g>
				</g>
			</g>
		</g>
		<g>
			<g>
				<g>
					<g>
						<polygon points="524,100 548.5,100 548.5,100.4 524.2,100.4 517,107.6 517,131.8 516.6,131.8 516.6,107.4 						"/>
					</g>
					<g>
						<polygon points="527.3,103.6 542.4,103.6 542.4,104 528.2,104 535.1,110.9 542.4,110.9 542.4,111.3 535,111.3 						"/>
					</g>
					<g>
						<polygon points="520.3,110.7 528,118.4 528,125.7 527.6,125.7 527.6,118.5 520.7,111.6 520.7,125.7 520.3,125.7 						"/>
					</g>
					<g>
						<g>
							<polygon points="538.7,114.6 538.7,115 531.6,115 531.6,122.1 531.2,122.1 531.2,114.6 							"/>
						</g>
						<g>
							<rect x="527.6" y="106" transform="matrix(0.7071 -0.7071 0.7071 0.7071 75.9908 405.7348)" width="0.4" height="10.3"/>
						</g>
					</g>
				</g>
				<g>
					<g>
						<polygon points="553.1,105.1 553.5,105.1 553.5,129.5 546.1,136.9 521.7,136.9 521.7,136.5 545.9,136.5 553.1,129.3 						"/>
					</g>
					<g>
						<polygon points="535.1,125.5 542.8,133.2 527.8,133.2 527.8,132.8 541.9,132.8 535,125.9 527.8,125.9 527.8,125.5 						"/>
					</g>
					<g>
						<polygon points="542.2,111.1 542.6,111.1 542.6,118.4 549.5,125.3 549.5,111.1 549.9,111.1 549.9,126.2 542.2,118.5 						"/>
					</g>
					<g>
						<g>
							<polygon points="538.9,114.8 538.9,122.3 531.4,122.3 531.4,121.9 538.5,121.9 538.5,114.8 							"/>
						</g>
						<g>
							<rect x="542.2" y="120.6" transform="matrix(0.7071 -0.7071 0.7071 0.7071 69.9506 420.3396)" width="0.4" height="10.3"/>
						</g>
					</g>
				</g>
			</g>
			<g>
				<g>
					<g>
						<polygon points="516.6,105.1 517,105.1 517,129.3 524.2,136.5 548.5,136.5 548.5,136.9 524,136.9 516.6,129.5 						"/>
					</g>
					<g>
						<polygon points="528,111.1 528,118.5 520.3,126.2 520.3,111.1 520.7,111.1 520.7,125.3 527.6,118.4 527.6,111.1 						"/>
					</g>
					<g>
						<polygon points="535,125.5 542.4,125.5 542.4,125.9 535.1,125.9 528.2,132.8 542.4,132.8 542.4,133.2 527.3,133.2 						"/>
					</g>
					<g>
						<g>
							<polygon points="531.6,114.8 531.6,121.9 538.7,121.9 538.7,122.3 531.2,122.3 531.2,114.8 							"/>
						</g>
						<g>
							<rect x="522.6" y="125.5" transform="matrix(0.7071 -0.7071 0.7071 0.7071 65.6731 410.018)" width="10.3" height="0.4"/>
						</g>
					</g>
				</g>
				<g>
					<g>
						<polygon points="521.7,100 546.1,100 553.5,107.4 553.5,131.8 553.1,131.8 553.1,107.6 545.9,100.4 521.7,100.4 						"/>
					</g>
					<g>
						<polygon points="549.9,110.7 549.9,125.7 549.5,125.7 549.5,111.6 542.6,118.5 542.6,125.7 542.2,125.7 542.2,118.4 						"/>
					</g>
					<g>
						<polygon points="542.8,103.6 535.1,111.3 527.8,111.3 527.8,110.9 535,110.9 541.9,104 527.8,104 527.8,103.6 						"/>
					</g>
					<g>
						<g>
							<polygon points="538.9,114.6 538.9,122.1 538.5,122.1 538.5,115 531.4,115 531.4,114.6 							"/>
						</g>
						<g>
							<rect x="537.2" y="110.9" transform="matrix(0.7071 -0.7071 0.7071 0.7071 80.272 416.0621)" width="10.3" height="0.4"/>
						</g>
					</g>
				</g>
			</g>
		</g>
	</g>
	<text transform="matrix(1 0 0 1 -448.6259 90.0714)" style="font-family:'MyriadPro-Regular'; font-size:12px;">grouped</text>
	<text transform="matrix(1 0 0 1 -262.6248 88.7137)" style="font-family:'MyriadPro-Regular'; font-size:12px;">expanded</text>
</g>
<g id="Layer_2">
	<g>
		<polyline class="st0" points="128.6,1151 173.6,1196 200.6,1196 245.6,1151 		"/>
		<polyline class="st0" points="160.1,1142 173.6,1155.5 173.6,1182.5 146.6,1155.5 		"/>
		<polyline class="st0" points="214.1,1142 200.6,1155.5 200.6,1182.5 227.6,1155.5 		"/>
		<g>
			<polyline class="st0" points="173.6,1142 187.1,1155.5 200.6,1142 			"/>
			<line class="st0" x1="187.1" y1="1155.5" x2="187.1" y2="1182.5"/>
		</g>
	</g>
</g>
</svg>
