<?xml version="1.0" encoding="utf-8"?>
<!-- Generator: Adobe Illustrator 19.2.0, SVG Export Plug-In . SVG Version: 6.00 Build 0)  -->
<svg version="1.1" id="Layer_1" xmlns="http://www.w3.org/2000/svg" xmlns:xlink="http://www.w3.org/1999/xlink" x="0px" y="0px"
	 viewBox="0 0 144 144" style="enable-background:new 0 0 144 144;" xml:space="preserve">
<style type="text/css">
	.st0{fill:#010101;}
</style>
<g>
	<g>
		<g>
			<g>
				<g>
					<polygon class="st0" points="55.5,138.5 55.3,138.5 0.1,83.4 1,82.6 55.8,137.3 88.2,137.3 143,82.6 143.9,83.4 88.7,138.5 
											"/>
				</g>
				<g>
					<polygon class="st0" points="56.1,122.9 22.1,88.9 23,88.1 54.9,120 54.9,88.7 38.6,72.4 39.5,71.6 56.1,88.2 					"/>
				</g>
				<g>
					<polygon class="st0" points="87.9,122.9 87.9,88.2 104.5,71.6 105.4,72.4 89.1,88.7 89.1,120 121,88.1 121.9,88.9 					"/>
				</g>
				<g>
					<g>
						<polygon class="st0" points="72,89.3 55.1,72.4 56,71.6 72,87.6 88.1,71.6 88.9,72.4 						"/>
					</g>
					<g>
						<rect x="71.4" y="88.5" class="st0" width="1.2" height="33"/>
					</g>
				</g>
			</g>
			<g>
				<g>
					<polygon class="st0" points="143,61.4 88.2,6.7 55.8,6.7 1,61.4 0.1,60.6 55.3,5.5 88.7,5.5 143.9,60.6 					"/>
				</g>
				<g>
					<polygon class="st0" points="104.5,72.4 87.9,55.8 87.9,21.1 121.9,55.1 121,55.9 89.1,24 89.1,55.3 105.4,71.6 					"/>
				</g>
				<g>
					<polygon class="st0" points="39.5,72.4 38.6,71.6 54.9,55.3 54.9,24 23,55.9 22.1,55.1 56.1,21.1 56.1,55.8 					"/>
				</g>
				<g>
					<g>
						<polygon class="st0" points="88,72.4 72,56.4 55.9,72.4 55.1,71.6 72,54.7 88.9,71.6 						"/>
					</g>
					<g>
						<rect x="71.4" y="22.6" class="st0" width="1.2" height="33"/>
					</g>
				</g>
			</g>
		</g>
		<g>
			<g>
				<g>
					<polygon class="st0" points="83.4,143.9 82.6,143 137.3,88.2 137.3,55.8 82.6,1 83.4,0.1 138.5,55.3 138.5,88.7 					"/>
				</g>
				<g>
					<polygon class="st0" points="88.9,121.9 88.1,121 120,89.1 88.7,89.1 72.4,105.4 71.6,104.5 88.2,87.9 122.9,87.9 					"/>
				</g>
				<g>
					<polygon class="st0" points="88.2,56.1 71.6,39.5 72.4,38.6 88.7,54.9 120,54.9 88.1,23 88.9,22.1 122.9,56.1 					"/>
				</g>
				<g>
					<g>
						<polygon class="st0" points="72.4,88.9 71.6,88 87.6,72 71.6,55.9 72.4,55.1 89.3,72 						"/>
					</g>
					<g>
						<rect x="88.5" y="71.4" class="st0" width="33" height="1.2"/>
					</g>
				</g>
			</g>
			<g>
				<g>
					<polygon class="st0" points="60.6,143.9 5.5,88.7 5.5,55.3 60.6,0.1 61.4,1 6.7,55.8 6.7,88.2 61.4,143 					"/>
				</g>
				<g>
					<polygon class="st0" points="55.8,56.1 21.1,56.1 55.1,22.1 55.9,23 24,54.9 55.3,54.9 71.6,38.6 72.4,39.5 					"/>
				</g>
				<g>
					<polygon class="st0" points="55.1,121.9 21.1,87.9 55.8,87.9 72.4,104.5 71.6,105.4 55.3,89.1 24,89.1 55.9,121 					"/>
				</g>
				<g>
					<g>
						<polygon class="st0" points="71.6,88.9 54.7,72 71.6,55.1 72.4,56 56.4,72 72.4,88.1 						"/>
					</g>
					<g>
						<rect x="22.6" y="71.4" class="st0" width="33" height="1.2"/>
					</g>
				</g>
			</g>
		</g>
	</g>
	<g>
		<g>
			<g>
				<g>
					<polygon class="st0" points="107.2,130.9 29.3,130.9 29.3,129.7 106.7,129.7 129.7,106.7 129.7,29.3 130.9,29.3 130.9,107.2 
											"/>
				</g>
				<g>
					<polygon class="st0" points="96.8,119.2 48.7,119.2 48.7,118 93.8,118 71.7,95.9 48.7,95.9 48.7,94.7 72.3,94.7 					"/>
				</g>
				<g>
					<polygon class="st0" points="119.2,96.8 94.7,72.2 94.7,48.7 95.9,48.7 95.9,71.7 118,93.8 118,48.7 119.2,48.7 					"/>
				</g>
				<g>
					<g>
						<polygon class="st0" points="60.3,84.3 60.3,83 83,83 83,60.3 84.3,60.3 84.3,84.3 						"/>
					</g>
					<g>
						
							<rect x="94.7" y="78.8" transform="matrix(0.7071 -0.7071 0.7071 0.7071 -39.4737 95.3085)" class="st0" width="1.2" height="33"/>
					</g>
				</g>
			</g>
			<g>
				<g>
					<polygon class="st0" points="14.3,114.7 13.1,114.7 13.1,36.8 36.8,13.1 114.7,13.1 114.7,14.3 37.3,14.3 14.3,37.3 					"/>
				</g>
				<g>
					<polygon class="st0" points="71.7,49.3 47.2,24.8 95.3,24.8 95.3,26 50.2,26 72.3,48.1 95.3,48.1 95.3,49.3 					"/>
				</g>
				<g>
					<polygon class="st0" points="49.3,95.3 48.1,95.3 48.1,72.3 26,50.2 26,95.3 24.8,95.3 24.8,47.2 49.3,71.8 					"/>
				</g>
				<g>
					<g>
						<polygon class="st0" points="59.7,83.7 59.7,59.7 83.7,59.7 83.7,61 61,61 61,83.7 						"/>
					</g>
					<g>
						
							<rect x="48.1" y="32.2" transform="matrix(0.7071 -0.7071 0.7071 0.7071 -20.1729 48.69)" class="st0" width="1.2" height="33"/>
					</g>
				</g>
			</g>
		</g>
		<g>
			<g>
				<g>
					<polygon class="st0" points="130.9,114.7 129.7,114.7 129.7,37.3 106.7,14.3 29.3,14.3 29.3,13.1 107.2,13.1 130.9,36.8 					
						"/>
				</g>
				<g>
					<polygon class="st0" points="94.7,95.3 94.7,71.7 119.2,47.2 119.2,95.3 118,95.3 118,50.2 95.9,72.3 95.9,95.3 					"/>
				</g>
				<g>
					<polygon class="st0" points="72.2,49.3 48.7,49.3 48.7,48.1 71.7,48.1 93.8,26 48.7,26 48.7,24.8 96.8,24.8 					"/>
				</g>
				<g>
					<g>
						<polygon class="st0" points="83,83.7 83,61 60.3,61 60.3,59.7 84.3,59.7 84.3,83.7 						"/>
					</g>
					<g>
						
							<rect x="78.8" y="48.1" transform="matrix(0.7071 -0.7071 0.7071 0.7071 -6.5133 81.6506)" class="st0" width="33" height="1.2"/>
					</g>
				</g>
			</g>
			<g>
				<g>
					<polygon class="st0" points="114.7,130.9 36.8,130.9 13.1,107.2 13.1,29.3 14.3,29.3 14.3,106.7 37.3,129.7 114.7,129.7 					
						"/>
				</g>
				<g>
					<polygon class="st0" points="24.8,96.8 24.8,48.7 26,48.7 26,93.8 48.1,71.7 48.1,48.7 49.3,48.7 49.3,72.3 					"/>
				</g>
				<g>
					<polygon class="st0" points="47.2,119.2 71.8,94.7 95.3,94.7 95.3,95.9 72.3,95.9 50.2,118 95.3,118 95.3,119.2 					"/>
				</g>
				<g>
					<g>
						<polygon class="st0" points="59.7,84.3 59.7,60.3 61,60.3 61,83 83.7,83 83.7,84.3 						"/>
					</g>
					<g>
						
							<rect x="32.2" y="94.7" transform="matrix(0.7071 -0.7071 0.7071 0.7071 -53.1334 62.3496)" class="st0" width="33" height="1.2"/>
					</g>
				</g>
			</g>
		</g>
	</g>
</g>
</svg>
