<?xml version="1.0" encoding="utf-8"?>
<!-- Generator: Adobe Illustrator 19.2.0, SVG Export Plug-In . SVG Version: 6.00 Build 0)  -->
<svg version="1.1" id="Layer_1" xmlns="http://www.w3.org/2000/svg" xmlns:xlink="http://www.w3.org/1999/xlink" x="0px" y="0px"
	 viewBox="0 0 2500 1000" style="enable-background:new 0 0 2500 1000;" xml:space="preserve">
<style type="text/css">
	.st0{display:none;}
	.st1{display:inline;fill:none;}
	.st2{enable-background:new    ;}
	.st3{display:none;fill:#333333;}
</style>
<g class="st0">
	<rect x="-73.2" y="397" class="st1" width="890.9" height="237.2"/>
</g>
<g class="st2">
	<path d="M878.2,630H743.5V370h134.7V630z M838.2,462c-0.3-0.8-0.5-2.2-0.8-3.8c-0.3-1.8-1-2.6-1.9-2.6c-0.8,0-1.9,1.1-3.3,3.1
		c-1.4,2.2-2.3,3.9-3.1,5.6c0,0.4,0,2.3,0,5.7s0.1,7.6,0.3,12.4c0.3,4.9,0.3,10.1,0.3,15.5s-0.1,10.7-0.3,15.9
		c-0.3,5.2-0.4,9.5-0.4,13.5c-0.1,3.8-0.4,6.3-1,7.5c-1.1,4.1-1.8,6.9-1.8,8.6c-0.1,1.6-1.8,3-5.2,3.9c-1.4,0.5-2.7,1-4.1,1
		c-1.2,0.1-2.4,0.3-3.4,0.5c-1,0.3-1.9,0.4-2.6,0.4l2.6-2.2c-1.2-0.3-2.4-0.7-3.4-1.1c-2-0.3-3.8-0.8-5.6-1.8
		c-1.4-0.7-3.3-1.8-5.6-3.1c-2.3-1.4-3.9-3.9-4.9-7.8c-0.7-3.7-1.1-6.7-1-9.1s0.4-4.1,1-5.2c0.1-0.5,0.8-1.1,1.9-1.5
		c0.7-0.1,1.4-0.3,2.2-0.3l-1.5-3.4l-2.3,1.2c-0.5,0.5-1.1,1.1-1.8,1.5c-0.5,0.4-1,0.8-1.1,1.2c-0.4,0.5-1.1,1.1-2.2,1.5
		c-1,0.4-1.9,1.4-2.7,2.7c-0.8,1.4-1.4,3.3-1.8,5.6c-0.3,2.4,0.3,5.4,1.8,9.1c2.2,7.8,5.7,13.3,10.9,16.7c5.2,3.4,10.1,5,14.8,5
		s9.7-2,14.6-6.1c4.9-4.1,8-9.4,9.3-16.1c0.4-3.4,0.7-9.1,1-17.3c0.3-8,0.4-16.3,0.5-24.9C838,484.6,838.2,473.7,838.2,462z
		 M799.8,526.3c0-0.5,0.1,0.4,0.3,2.9c0.3,2.4,0.7,4.4,1.4,5.4c0.5,1.4,1.5,2.6,2.7,3.7c1.2,1,2.3,1.5,3.1,1.5
		c0.5,0,1.2-0.3,2.2-0.7c0.5-0.4,1-0.8,1.2-1.2c-0.5,0-1.2-0.1-2.2-0.4c-1.2-0.4-2.2-1.1-2.7-1.9c-1-0.8-2.3-2-3.8-3.7
		C800.6,530.1,799.8,528.4,799.8,526.3z M842.4,451.1c0.1-0.8-0.4-1.1-1.5-0.7s-1.9,1-2.3,1.8c-0.5,0.8-0.1,1.1,1.2,0.5
		C841,452.2,842,451.6,842.4,451.1z M844,469.6c-0.1,11.2-0.1,21.1-0.1,29.8v31c0,0.7-0.1,1.9-0.4,3.7c-0.3,1.8-0.7,3-1.1,3.7
		c-0.7,1.2-1.1,2-1.1,2.3v0.8c0.3-1.1,0.7-2.2,1.2-3.1c1-2.3,1.6-4.8,1.9-7.6c0.3-1.5,0.4-5.7,0.3-12.4c-0.1-6.7-0.3-13.5-0.3-20.3
		C844.1,489.2,844,479.8,844,469.6z M844,457.9c0-0.5,0-0.8-0.1-1c0-0.1,0-0.3,0-0.8l-0.7-0.3c0,0.5,0.3,1.1,0.7,1.5
		c0,0.5,0,1,0.1,1C844,458.4,844,458.3,844,457.9z"/>
	<path d="M1005.8,630H871.4V370h134.4V630z M953.7,455.3c-3.4-3.3-6.3-5.6-8.7-6.9c-2.4-1.4-3-0.8-1.9,1.4c0,0.4-1.5,0.7-4.6,0.7
		c-3,0-6.8,0.4-11.3,1.2s-9,2.3-13.5,4.6c-4.5,2.2-8,5.7-10.5,10.5c-2.9,4.8-5,10.9-6.7,18c-1.6,7.2-2.3,14.6-2.2,22
		c0.3,7.5,1.5,14.7,3.9,21.5c2.4,6.8,6.3,12.5,11.7,17c5.7,4.4,11.3,7.3,16.9,9c5.6,1.5,10.6,1.9,15.4,1.2c4.6-0.8,8.8-2.6,12.4-5.4
		c3.5-2.9,6.3-6,8.3-9.5c1.8-3.7,3.3-7.9,4.9-12.7c1.5-4.8,2.7-9.5,3.7-14.4c0.8-4.9,1.2-9.7,1.1-14.3s-0.7-8.7-1.5-12.4
		C966.6,472.7,960.9,462.2,953.7,455.3z M938.3,462c3.9,0.4,7.5,1.9,10.5,4.6c3,2.6,5.6,5.9,7.8,9.5c2.2,3.8,3.8,7.9,4.9,12.4
		c1.1,4.5,1.8,9,1.8,13.5c0,4.4-0.5,9-1.8,13.9s-3,9.3-5.2,13.2c-2.3,3.9-4.9,7.1-7.9,9.7c-3,2.6-6.1,3.8-9.4,3.8
		c-3.4,0-7.1-0.7-11.2-2.2c-4.1-1.5-7.8-3.9-11.3-7.5s-6.4-8-8.6-13.6c-2.3-5.6-3.1-12.5-2.6-20.7c0.3-8.2,2-14.8,5.2-19.7
		c3.1-4.9,6.7-8.7,10.5-11.3c3.8-2.6,7.3-4.4,10.9-5C935.3,461.8,937.5,461.7,938.3,462z M928,469.7c-2.2,1.1-4.2,2.6-6.1,4.2
		c-1.9,1.5-3.7,3.5-5.3,6c-1.8,2.4-3,5.2-4.1,8.3c-2,6.5-2.4,13.5-1.5,20.7c1,7.3,2.4,13.1,4.5,17.3c1.1,2.2,2.6,3.9,4.2,5.6
		c1.8,1.5,3.4,2.7,5.2,3.7c1.8,0.8,3.4,1.5,4.8,1.9s2.3,0.5,2.7,0.3c0.4-0.7-0.1-1.8-1.6-3.1s-3.1-2.9-4.8-4.4
		c-0.8-0.7-1.9-1.5-3.1-2.6c-1.2-1-2.4-2.4-3.7-4.2c-1.2-1.9-2.3-4.4-3.1-7.6c-1-3.1-1.5-7.5-1.6-12.9c-0.7-5.2-0.4-9.8,1-14
		s3-7.8,5-10.5C922.7,475.3,925.2,472.3,928,469.7z M959.1,449.2c-3.3-1.9-6.1-3.4-8.6-4.6c-2.4-1.2-4.8-2.2-6.7-2.7
		c-2.3-0.7-4.4-1.1-6.4-1.1l7.9,2.6c0.4,0.1,1.9,1,4.4,2.4c2.4,1.5,5.2,3.3,8,5.4c2.9,2.2,5.7,4.5,8.3,7.2c2.6,2.7,4.5,5.6,5.6,8.6
		s2.2,6.4,3.1,10.3c1,3.9,1.8,8,2.3,12.2c0.7,4.2,1.1,8.4,1.4,12.4c0.3,4.1,0.1,7.6-0.4,10.7c-1,6.5-2.3,12.4-4.1,17.7
		c-1.8,5.3-5.4,10.7-11.2,16.6c-3,2.9-6,5.2-9,7.1c-3,1.9-5.9,3.4-8.4,4.6c-3.1,1.4-6,2.4-8.7,3.1c4.8-1.2,9.4-2.9,13.9-4.9
		c3.7-1.8,7.5-3.9,11.4-6.9c3.9-2.9,7.1-6.5,9.5-10.7c2.4-4.2,4.2-9,5.4-14.1c1.2-5.2,2-10.2,2.7-15c0.5-4.8,0.8-9.1,0.7-12.9
		c-0.1-3.8-0.1-6.8-0.3-8.7c-0.4-1.4-1.1-3.8-2.2-7.3c-1-3.5-2.3-7.2-4.1-11.3c-1.8-4.1-3.8-7.9-6.3-11.7
		C964.8,454.2,962.1,451.2,959.1,449.2z M987.4,518.7c-0.5,0.5-0.8,1-0.8,1.2c0,0.7,0.1,1.2,0.3,1.8c0.1,0.4,0.5,0.8,1.2,1.1
		L987.4,518.7z"/>
	<path d="M1130.8,630H996.1V370h134.7V630z M1096.8,442.5c-1,0-2.3,0.5-3.9,1.8c-1.6,1.1-3,2.7-4.1,4.6c-0.5,1-1,3.8-1.1,8.6
		c-0.1,4.8-0.1,10.1,0.1,16.1c0.3,6,0.4,11.8,0.7,17.7c0.3,5.9,0.1,10.1-0.3,12.8c0,3.1,0,6.5-0.1,10.2c-0.1,3.7-0.5,7.2-1.4,10.5
		c-0.8,3.3-2.4,6.1-4.6,8.6c-2.3,2.4-5.7,4.1-10.2,5c-4.5,0.7-7.9,1.1-10.2,1.2c-2.3,0.1-3.9,0-5.2-0.4c-1.1-0.4-1.8-1-2-1.5
		c-0.3-0.5-0.7-1.1-1.4-1.8c-1.2-1-1.9-1.6-1.9-2s-0.4-0.4-1.1-0.3c-0.8,0.4-1.9,0-3.1-1.2s-2.6-2.6-3.9-3.8
		c-1.1-1.2-1.8-2.3-1.8-3.1c-0.1-0.8-0.1-1.5-0.1-2.2c0.1-0.4,0.4-1,0.8-1.5c0.4-0.5,0.3-1.8-0.4-3.7c-0.3-1.9-0.7-3.9-1.2-6.4
		c-0.5-2.4-0.8-5.2-0.8-8c0-1.5-0.1-4.6-0.3-9.3s-0.3-9.4-0.3-14.4c0-5,0-9.5,0-13.5c0-3.9,0.1-6.3,0.4-6.8c0.3-0.7,0.8-2.3,1.8-4.6
		c1-2.4,1-4.4,0.1-6c-1.8-4.1-3.8-6-6.4-5.6c-1.1,0.3-2.7,1.1-4.6,2.2c-1.9,1.2-3.3,2.6-4.1,4.1c-0.7,1.4-0.5,3.8,0.5,7.3
		s1.6,7.1,1.6,11c0,1.1,0,3.5,0,7.2c0,3.7,0,7.8,0,12.4c0,4.5,0,9.4,0.1,14.4c0.1,5.2,0.3,10.1,0.7,14.8s1.1,8.8,1.8,12.4
		c0.8,3.5,1.6,5.7,2.4,6.7c1.5,1.5,3.7,3.4,6.4,5.6c2.7,2.2,5.9,3.9,9.5,5.6c3.7,1.5,7.5,2.6,11.7,2.9c4.2,0.4,8.6-0.3,13.1-2
		c9-3.5,15.5-6.8,19.6-9.9c4.1-3,6.3-6,6.5-8.6c0-2.7-0.3-5.3-0.8-7.9c-0.5-2.6-1-4.2-1.1-4.9c0-0.3,0-2.6,0-7.1c0-4.4,0-9.3,0-14.4
		c0-5.3,0-10.2,0-15s0-7.8,0-8.8c0.5-2.2,1.1-5.2,1.8-9c0.5-3.9,1.1-6.5,1.8-8c0.1-1.5-0.4-3.8-1.6-6.9
		C1099,444.3,1097.8,442.7,1096.8,442.5z M1045.8,508.1c-0.7,5.4-0.5,9.1,0.4,11.3c0.4,1.4,1,2.3,1.5,2.7c0-4.6,0.1-9.1,0.3-13.5
		c0-3.4,0.1-6.9,0.3-10.6c0.1-3.7,0.3-6.4,0.3-8.3c0-2.2-0.1-5.4-0.3-9.9c-0.1-4.5-0.4-9.1-0.7-14.1c-0.5-5.9-1.1-12-1.8-18.2
		c0,0.3,0.1,3.1,0.3,8.6c0.1,5.4,0.3,11.6,0.4,18.5c0.1,6.9,0.1,13.6,0,20C1046.3,500.9,1046.1,505.4,1045.8,508.1z M1106.2,455.2
		v32.5c0,4.2,0,8.4,0,12.4s-0.1,7.6-0.3,10.9c-0.1,3.1-0.3,6-0.3,8.2c-0.1,2.3-0.1,3.5-0.1,3.8c-0.4,1-0.8,2.6-1.1,4.8s-1,4.6-2,7.2
		c-1.1,2.6-2.6,5.2-4.5,7.8s-4.5,4.8-7.8,6.5c-3.5,2-6.9,3.5-10.1,4.6c-3.1,1.1-6,2-8.4,2.9c-2.7,1-5.4,1.8-8,2.3
		c6-0.5,11.4-1.9,16.6-3.8c4.5-1.8,9.1-4.1,13.6-7.2c4.5-3.1,8-7.6,10.5-13.5c1.2-4.4,2-11,2.3-19.9c0.3-8.8,0.4-17.7,0.4-26.3
		C1107,478.2,1106.7,467,1106.2,455.2z"/>
	<path d="M1256.4,630H1122V370h134.4V630z M1156.4,448.9c-1.1,0.7-1.9,2.6-2.3,5.6s-0.7,5.6-0.7,7.6c0,1,0,4.4,0,9.9
		c0,5.6,0.1,11.6,0.3,18c0.1,6.4,0.3,12.2,0.3,17.8c0,5.4,0,8.6,0,9.5c0,0.7-0.1,2.6-0.3,5.6c-0.1,3-0.3,6.1-0.3,9.5
		s0.1,6.7,0.3,9.8c0.1,3.1,0.5,5.3,1.1,6.4c1,1.9,1.5,2.9,1.5,3c0,0.1,0.8,0.5,2.6,1.1c1.8,0.4,3.4,0,5-1.4s2.6-3,2.9-4.8
		c0.1-1.8-0.3-3.8-1.4-6.1c-1.1-2.4-1.6-4.2-1.6-5.3c0-0.8,0.1-2.2,0.3-3.8c0.3-1.8,0.4-3.5,0.5-5.4c0.1-1.9,0.3-3.7,0.4-5.2
		c0.1-1.5,0.3-2.7,0.3-3.4c-0.3-1.4-0.5-3.1-0.7-5.3c-0.1-2.2,0.3-3.5,1.1-4.2c0.8-0.4,3.1-0.7,6.9-0.7c3.8,0,6.5-0.3,8.2-0.8
		c2.2-0.3,4.1-0.8,5.9-1.8c1.8-0.8,3.7-0.8,5.9,0.3c1,0.5,2.2,2,3.4,4.6c1.2,2.4,2.6,5.3,3.9,8.4c1.4,3.1,2.7,6.1,3.9,9.1
		s2.3,5.3,3,7.1c0.7,1.9,1.5,3.9,2.6,6.5c1,2.4,2.2,4.8,3.4,6.9s2.6,3.8,3.9,5.2s2.7,1.6,3.9,1c2.7-1.2,4.2-2.6,4.6-3.9
		c0.4-1.4,0.4-3.1-0.3-5.2c-0.3-0.7-1.1-1.9-2.2-3.7c-1.2-1.8-2.6-3.8-4.1-6s-3.1-4.4-4.6-6.5s-2.6-4.4-3.3-6.5
		c-2.9-7.8-4.2-12.2-4.2-13.5c0-0.8-0.1-1.4-0.3-1.6c-0.3-0.3,0-0.5,0.5-1c0.1-0.4,1.2-1.4,3.3-2.9c2-1.5,4.2-3.7,6.4-6.4
		c2.2-2.7,4.2-5.7,6-8.7c1.8-3,2.4-6.1,2.2-9.3c-0.1-6-1.4-10.9-3.7-14.8c-2.3-3.9-4.8-6.9-7.1-8.7c-2.2-2.2-3.9-3.7-5.6-4.6
		c-1.6-1-3.1-1.5-4.6-1.6c-1.1-0.5-1.5-1-1.2-1.2c0.3-0.3-0.1-0.1-1.2,0.3c-0.4,0.4-2,0.7-4.8,0.7c-2.7,0.1-5.7,0.1-8.7,0.1
		s-6.1,0-9.4,0.1c-3.1,0.1-5.3,0.1-6.5,0.1c-2.6,0-5.6,0-9,0C1159,448.5,1156.9,448.6,1156.4,448.9z M1167.8,514.9
		c0,0.4,0.1,1.9,0.3,4.2c0.3,2.4,0.4,5.2,0.7,8.2c0.3,3,0.4,6,0.7,8.6c0.3,2.7,0.4,4.5,0.4,5.6c0.1,2.2,0.1,3.7,0.1,4.6
		c-0.1,1-0.5,2-1.6,3.1c-1.1,1.2-1.8,2-1.8,2.2c0,0.1-0.4,0.3-1.2,0.3c-0.8,0-2-0.3-3.4-0.7c-1.1-0.4-1.9-0.8-2.3-1.1
		c1.1,1.1,2.2,2.2,3.1,3.1c2.4,1.8,4.1,2,4.9,0.8c0.5-0.8,1.2-2.3,1.8-4.5c0.7-2.2,1.2-4.5,1.6-7.2c0.4-2.7,0.8-5.4,1.2-8
		c0.4-2.7,0.7-5,0.7-7.1c-0.3-1.9-0.4-3.5-0.3-5c0.1-1.5,0.3-2.9,0.3-3.9c0-1.2,0.3-2.4,0.7-3.4l1.9,1.1c2.2,1,3.8,1.4,4.9,1.2
		c1.4-0.1,1.6-0.8,0.5-2.2c-1.1-1.2-2.2-1.9-3.3-1.9c-1.5,0-3-0.4-4.4-1.2c-1.4-0.8-2.7-1.5-4.1-2c-1.1-0.4-1.6,0.1-1.6,1.6
		C1167.8,513.1,1167.8,514.2,1167.8,514.9z M1198.3,460.9c2.9,0,5.9,1,9,2.7c1.8,1,3,2.6,4.1,4.8c1,2.2,1.6,4.6,1.9,7.1
		c0.5,2.6,0.1,5.2-1.2,7.9c-1.4,2.7-3.1,4.9-5.2,6.5c-1.9,1.8-4.2,2.9-7.1,3.3c-2.9,0.5-6,0.7-9.3,0.5c-1.4,0-3.1-0.3-5.2-0.7
		c-2-0.4-3.9-0.8-5.9-1.1c-1.9-0.3-3.4-0.5-4.8-0.8c-1.4-0.3-2.2-0.4-2.7-0.4c-0.3,0-1.5,0.5-3.8,1.5c-2.3,1-3.7,1.1-4.2,0.3
		c-0.5-0.5-0.5-1.8,0-3.7c0.5-1.9,1.1-3.1,1.5-3.8c0.5-0.8,0.7-1.5,0.5-1.9c-0.3-0.4-0.4-1.4-0.5-2.7c0-0.7-0.1-1.8-0.3-3.3
		c-0.3-1.5-0.4-3-0.5-4.6c-0.1-1.6-0.3-3.1-0.4-4.4c-0.1-1.2-0.3-2-0.3-2.2c0-1.5,0.1-2.7,0.4-3.4c0.7-0.8,2.2-0.8,4.5,0
		c1,0.5,1.8,0.7,2.2,0.5c0.5-0.3,1.5-0.3,2.9-0.3c1.1,0,2.3-0.1,3.7-0.3c1.4-0.3,2.7-0.3,3.9-0.3c1.1,0,3.3,0.1,6.3,0.3
		c3,0.3,5,0.1,6.1-0.3c0.4-0.5,1-0.8,1.5-1C1195.9,461.2,1196.9,461,1198.3,460.9z M1168.8,468.9c-0.5,0.5-0.4,1.4,0.3,2.4
		c0.8,1.1,1.2,1.9,1.2,2.7c0,0.5,0.4,1.2,1.2,2.2l0.4,0.4c-0.5-0.8-1-1.8-1.2-2.7c-1-1.8-1-2.9,0-3.7c0.8-0.3,2.3-0.4,4.2-0.4h3
		l-4.6-0.8c-1.1-0.3-2.2-0.4-3.1-0.4C1169.2,468.5,1168.8,468.6,1168.8,468.9z M1170.3,480.5c0,0.8-0.3,1.8-0.8,2.6
		c-0.1,0.5-0.3,1-0.3,1.2l2.7,1.9l11.3,0.7c-1.9-0.1-3.5-0.5-5.2-1.1c-1.1-0.4-2.3-0.8-3.7-1.2c-1.2-0.4-2.2-1-2.6-1.5l-1.2-1.9
		L1170.3,480.5z M1205.1,442.1c3.7,2.2,7.1,4.2,10.2,6.4c2.7,2.2,5.2,4.5,7.6,7.1c2.3,2.6,3.8,5.6,4.6,8.8
		c1.2,6.4,1.5,12.9,0.7,19.7c-0.8,6.8-2.7,11.3-5.6,13.7c-2.7,2.2-5,4.1-6.9,6c-1.9,1.9-2.9,3-2.9,3.7c0,0.5,0.5,2.2,1.8,4.6
		c1.1,2.6,2.6,5.4,4.5,8.6c1.9,3.5,3.9,7.5,6.4,12c-1.9-4.2-3.4-8-4.5-11.4c-1.2-3.1-2.3-6-3-8.6c-0.7-2.6-1-4.4-0.8-5
		c0.1-0.4,1-1.5,2.6-3.3c1.5-1.8,3.3-3.9,5-6.5c1.8-2.6,3.3-5.4,4.5-8.8c1.2-3.3,1.8-6.7,1.6-10.1c-0.4-3.5-0.7-6.8-1-9.8
		c-0.3-3-1.1-6-2.6-8.8s-3.9-5.7-7.3-8.6C1216.4,448.6,1211.5,445.5,1205.1,442.1z M1223.6,555.7c-0.3,0.7,0.3,0.8,1.8,0.3
		c1.4-0.5,2.7-1.9,4.1-4.1c1-1.9,1.5-3.7,1.5-5.6c0-1-0.1-1.9-0.3-2.6l-0.8,4.6c-0.3,1.1-0.5,2.2-1,3.1c-0.4,1-1,1.8-1.6,2.3
		c-1.2,0.7-2,1.1-2.4,1.1C1224.4,555.2,1224,555.3,1223.6,555.7z"/>
	<path d="M1384.7,630h-134.8V370h134.8V630z M1292.7,547.7c0.3-1.1-0.1-2.6-1.2-4.2c-1.1-1.8-1.9-3.1-2.2-4.2c0-0.7,0-2.7-0.1-6
		c-0.1-3.3-0.1-6.9-0.3-11.2c-0.1-4.2-0.3-8.2-0.3-12.1c0-3.9,0-7.1,0-9.5c0.3-4.1,0.5-7.3,1-9.8c0.4-2.4,0.4-4.2,0.1-5.3
		c-0.3-0.4-1,0.3-1.9,2.2c-0.5,1-1.2,1.9-1.9,2.7c-0.1-2.2-0.4-4.2-0.7-6.4c-0.1-1.8-0.1-3.4-0.1-5c0.1-1.6,0.3-2.7,0.7-3.1
		c1.2-0.8,2.3-1.6,3.1-2.4c0.8-0.8,1.6-0.8,2.7-0.1c0.1,0.1,1.1,1.6,2.9,4.6c1.8,2.9,3.9,6.4,6.4,10.5c2.4,4.1,5.2,8.4,8,13.2
		c2.9,4.8,5.4,9.3,7.9,13.5c2.4,4.2,4.5,7.8,6.3,10.5c1.8,2.7,2.9,4.5,3.1,5.2l7.5,9.9c0.1,0.1,0.4,1,0.7,2.2
		c0.4,1.4,0.7,2.9,1.1,4.4c0.4,1.5,0.8,3.1,1.2,4.6c0.5,1.5,1.1,2.3,1.8,2.7c0.5,0.4,1.6,0.7,3.1,1s3,0.3,4.4,0
		c1.4-0.3,2.7-0.5,4.1-1.2c1.2-0.5,2-1.5,2.2-3c0.5-2.7,0.3-6-0.8-9.9c-1.1-3.9-1.8-10.5-1.8-19.9c0-4.4,0.1-9.4,0.3-15.1
		c0.3-5.7,0.3-11.3,0.3-16.9c0-5.6,0-10.5,0.1-14.8s0.1-7.3,0.3-9c0.4-3.5,1-6.3,1.6-8.3c0.7-2,0.8-3.5,0.5-4.5
		c-0.4-0.5-0.7-1.2-0.7-2.2c-0.1-0.8-0.3-1.8-0.7-2.7c-0.5-1-1-2-1.1-3c-0.8,1.1-1.6,2.2-2.3,3.1c-1.5,2.4-2.7,3.9-3.7,4.5
		c-0.8,0.3-1.9,0.8-3.1,1.5s-1.9,1.6-2,2.7c0,1.4,0.5,3.9,1.6,7.5c1.1,3.5,1.4,6.9,1,9.9c0,1.2,0,4.2-0.1,8.8
		c-0.1,4.6-0.3,9.5-0.5,14.8c-0.3,5.3-0.5,10.2-0.7,14.7c-0.1,4.5-0.3,7.3-0.3,8.6c-0.5,2-1,4.2-1.2,6.8c-0.3,2.6-1.1,4.2-2.3,5.2
		c-1,1-2.2,1.4-3.5,1.2c-1.4-0.3-2.6-1.4-3.5-3.3c-1.1-1.9-2-3.4-2.7-4.8c-0.7-1.4-1.2-2.9-1.5-4.4c-0.4-1.5-0.7-3-1-4.2
		c-0.3-1.2,0.1-2,1-2.3c0.5-0.3,1-0.4,1.1-0.4c0.1,0,0.5-0.3,1.2-0.7c0.5,0,1-0.1,1.1-0.3c-2-2.3-3.8-4.5-5.6-6.5
		c-3.7-4.2-6.1-7.5-7.2-9.5c-0.7-1-1.9-3.1-3.5-6.5s-3.4-7.1-5.2-10.9c-1.8-3.8-3.5-7.5-5.2-10.9c-1.6-3.4-2.7-5.4-3.1-6.1
		c-1.2-1.5-2.6-4.1-3.9-7.5c-1.4-3.4-2.4-5.4-3.3-6.1c-0.7-0.5-1.1-1.4-1.1-2.4c0-1.1,0-1.8,0-2.2c0-0.5-0.1-0.4-0.3,0.3
		c-0.3,0.8-0.7,1.6-1.4,2.4c-0.8,0.7-2.6,1.8-5.2,3c-2.6,1.2-4.1,2.6-4.5,3.8c0,0.8,0.1,1.9,0.5,3.3c0.4,1.4,0.8,2.7,1.5,4.1
		s1.2,2.7,1.6,4.1c0.4,1.2,0.7,2,0.7,2.3c0.3,1.4,0,3.7-0.7,6.5c-0.8,3-1.2,5.3-1.2,7.1c0,2-0.3,4.1-0.8,6.3
		c-0.5,2.2-0.8,4.1-0.8,5.6c0,0.7-0.1,3.5-0.3,8.6c-0.3,5-0.3,10.6-0.3,16.7s0,11.8,0,17.3c0,5.4,0.3,8.8,0.7,10.2
		c1.8,5.4,3.8,7.9,6.4,7.6c1.1-0.5,2.3-1.6,3.7-3.3C1291.6,549.6,1292.4,548.4,1292.7,547.7z M1290.7,555.7c-0.3,0.3-0.4,1-0.3,1.8
		c0.1,1,0.3,1.2,0.4,0.7c0-0.4,0.3-1,1-1.6c0.7-0.7,1.2-1.4,1.6-2.2c0.8-0.8,1.8-1.9,2.6-3.1l-1.9,1.9
		C1292.4,554.1,1291.4,554.9,1290.7,555.7z M1328.8,502.9c-1.8-3.4-3.4-6.9-5.2-10.5c-1.5-3.1-3.1-6.3-4.8-9.4
		c-1.6-3.1-3.1-5.7-4.4-7.9c-1.2-2.2-2.7-4.6-4.1-7.6c-1.5-2.9-3-5.7-4.5-8.4c-1.5-2.7-2.9-5.2-4.1-7.2c-1.2-2.2-2.4-3.5-3.4-4.1
		s-1.9-1.1-2.6-1.6s-1.5-1-2.3-1.4c-1-0.5-1.9-1-2.6-1.1c2.9,3.3,5.6,6.8,8.3,10.6c2.6,3.5,5.3,7.8,8.3,12.5c3,4.8,6,9.9,9,15.4
		c3,5.7,5.3,9.8,6.9,12.5c1.6,2.7,2.7,4.6,3.3,6C1327.8,502.4,1328.6,502.9,1328.8,502.9z M1296.8,548.1v-17.4c0-4.5,0-8.7,0-12.5
		s0.1-6,0.4-6.5c0-0.5-0.3-1.8-0.7-3.7c-0.4-1.9-0.8-3.8-1.1-5.7c-0.8-2.2-1.5-4.5-2.2-7.1c0.5,9.4,1.1,17.8,1.8,25.6
		c0.3,3.3,0.4,6.5,0.5,9.9c0.1,3.4,0.3,6.3,0.5,8.7s0.4,4.5,0.5,6.1C1296.8,546.9,1296.8,547.8,1296.8,548.1z M1299.8,518.3l2.2-1.8
		l-0.4-1.8L1299.8,518.3z M1342.4,561.3h1.5c0.3,0,1.2-0.3,2.7-0.8c0.5,0,1.1-0.1,1.8-0.5c0.5-0.4,1.2-0.8,2.2-1.4
		c1-0.5,1.9-1.2,2.6-1.9L1342.4,561.3z M1355.6,540.6v-0.8c0-0.1,0.1-0.4,0.3-0.8c0.1-0.4,0.3-1,0.3-1.5c0-0.4,0.3-1,0.8-1.8
		c0.5-0.7,0.8-1.5,0.8-2.3v-39.6c0-11.6,0.1-24.6,0.3-39.2c-0.5,0.8-1,2.7-1.2,5.4c-0.3,2.7-0.4,6.1-0.7,10.2s-0.4,8.6-0.4,13.7
		s0,10.3,0,15.8v40.8H1355.6z M1356.4,544.8v4.6c0.3-0.1,0.4-0.7,0.4-1.5c0-0.5,0-1.1,0-1.5C1356.8,546.2,1356.7,545.6,1356.4,544.8
		z"/>
	<path d="M1507.4,630h-134.3V370h134.3V630z M1405.8,555.3c0.8,0.3,1.8,0.8,2.9,1.5c1.1,0.7,2.2,0.1,3.3-1.9c1.1-1.8,2-3.8,2.9-6.5
		c0.8-2.6,1.2-4.5,1.4-5.6c0.4-1.4,0.4-2.7,0.1-3.7c-0.4-1.1,0-1.8,1.2-2s2.2,0.3,2.9,1.5c0.7,1.2,1.8,1.9,3.5,1.9
		c1.5,0,3.3-0.4,5.3-1.2s5.3-1.2,9.8-1.2c4.6,0,8,0.3,10.1,0.7c2,0.4,3.9,0.1,5.6-0.8c1.8-0.8,3.4-1.9,5-3c1.6-1.1,2.9-1.4,3.5-0.8
		c0.1,0.1,0.5,0.8,1.4,2s1.5,2.4,2.2,3.7c0.7,1.2,1.2,2.6,1.9,3.9c0.7,1.4,1,2.4,1,3.1c0.4,1.4,1.1,3.3,1.9,5.6
		c0.8,2.3,2.6,3.5,5.3,3.8c2.9,0.5,4.8,0.4,5.6-0.4c1-0.8,1.5-2.4,1.8-4.6c0.7-1.9,0.1-3.5-1.8-5.2c-1.9-1.6-3.1-3.4-3.8-5.2
		c-0.4-0.8-1.4-3-2.7-6.4c-1.4-3.4-2.9-7.1-4.6-11.2c-1.8-4.1-3.3-8-4.8-12.1c-1.5-4.1-2.7-7.1-3.5-9.3c-0.7-2.4-1.8-5.4-3.3-9
		c-1.5-3.7-3-7.2-4.5-10.6c-1.5-3.5-2.9-6.7-4.1-9.5s-1.9-4.8-2.2-5.6c-0.4-0.7-0.7-1.9-0.8-3.7c-0.1-1.8-0.4-3.5-0.8-5.3
		c-0.4-1.9-1-3.7-1.4-5.3c-0.5-1.8-1.2-3-2-3.8c-0.8-0.7-1.8-0.7-2.7,0s-1.9,1.6-2.7,2.7s-1.6,2.2-2.2,3.4c-0.7,1.2-1.1,2.2-1.4,3.1
		c-0.1,1.8,0.1,3.1,0.7,4.5c0.5,1.2,0.8,2.4,0.8,3.4c0,0.8-0.4,1.9-1.2,3.1c-0.8,1.2-1.5,2.6-2.2,4.1c-0.5,1.2-1,2.6-1.2,3.7
		c-0.3,1.2-0.3,2.3-0.3,3.3c0,1.1-1.2,4.2-3.8,9.1c-2.6,5-4.8,10.2-6.5,15.5c-1.8,5-2.6,8.4-2.7,10.2c-0.1,1.9-0.4,3.5-0.8,4.9
		c-0.1,1.1-0.5,2.9-1.4,5.3c-0.8,2.4-1.8,4.6-3.1,6.5c-0.5,1.4-1.5,3.3-2.9,5.6c-1.4,2.3-2.6,4.8-3.7,7.3c-1.1,2.6-1.9,5-2.2,7.1
		C1404,553.8,1404.4,555,1405.8,555.3z M1422.1,546.2c-0.5,1.4-1,2.6-1.2,3.7c-1,2.4-1.9,4.1-2.6,4.9c-0.5,0.4-1.1,0.8-1.5,1.2
		c-0.4,0.4-0.7,0.8-0.8,1.4c-0.4,0.4-0.7,0.8-0.7,1.2c1.9-1.5,3.1-2.9,4.1-4.1C1421.4,551.5,1422.4,548.8,1422.1,546.2z
		 M1458.7,511.1c1.2,2.4,2,4.9,2.4,7.3s0.3,4.8-0.3,6.7c-0.1,0.8-0.7,1.4-1.8,1.5c-1,0.1-2.2,0.1-3.7-0.3c-1.5-0.3-3-0.7-4.6-1.1
		s-3-0.7-3.9-0.7c-4.2,0-7.2-0.4-8.7-1.1c-0.5-0.5-1.5-0.5-2.7,0.1c-1.2,0.7-3.3,1.4-6,2.2c-2.9,1-4.8,1.4-5.7,1.2c-1-0.3-2-0.5-3-1
		c-0.5-0.1-0.7-0.7-0.3-1.8c0.4-1.1,1.1-2.2,1.9-3.5c0.8-1.2,1.8-2.7,2.6-4.1c0.8-1.5,1.4-2.9,1.8-4.1c0.3-1.2,1-3.4,2-6.3
		c1.1-2.9,2.2-5.9,3.4-9c1.2-3,2.2-5.7,3.1-8c0.8-2.3,1.2-3.5,1.2-3.7c0-0.5-0.4-1.1-1.2-1.6c-0.8-0.5-1.5-1-2.2-1.4
		c-0.4-0.1-0.1-0.7,0.8-1.8c1-1,1.9-2,2.7-3.1c1-1.4,1.6-2.6,1.9-3.4c0.3-0.8,1.1-1.1,2.3-0.7c0.5,0.3,1.8,2.2,3.4,5.6
		c1.8,3.4,3.5,7.3,5.6,11.7c2,4.4,3.9,8.6,5.6,12.7C1457.2,507.6,1458.3,510.1,1458.7,511.1z M1423.6,544.4l29.5-1.1
		c-1.8-0.4-4.1-0.5-7.2-0.5c-3.1,0.1-6.4,0.3-9.8,0.5C1432,543.6,1427.8,543.9,1423.6,544.4z M1432.6,513.8l1.5-3.4
		c0.5-1.1,1.1-2.2,1.5-3.1c0.4-1,0.7-1.8,0.8-2.3c0.8-1.1,1.4-2.6,1.5-4.2c0.1-1.1,0.4-2.4,0.8-3.8c-0.7,0.5-1.5,1.8-2.2,3.7
		c-0.8,1.9-1.4,3.9-1.8,6.1C1433.8,509.2,1433.1,511.6,1432.6,513.8z M1443.5,521.4c-0.3-1-0.7-2-1.2-3.1c-0.5-1.1-1.4-1.5-2.3-1.2
		c-0.7,0.3-1.5,0.4-2.6,0.4h-1.8L1443.5,521.4z M1485.4,534.2c0.4,0.5,0.3-0.1-0.4-2.2c-0.7-2-1.8-4.6-3.1-8
		c-1.4-3.4-3-7.6-4.9-12.4c-1.9-4.9-3.8-9.9-5.9-15c-4.8-12.1-10.5-25.7-17-41.1c5.6,14.4,10.5,27.3,14.8,38.8
		c2.2,5.2,4.1,9.9,6,14.7c1.9,4.6,3.5,8.8,4.9,12.4c1.4,3.7,2.6,6.7,3.4,9C1484,532.9,1484.7,534.1,1485.4,534.2z"/>
	<path d="M1631.1,630h-134.4V370h134.4V630z M1540.6,447.7c-2-0.7-3.8-0.4-5.4,1c-1.6,1.4-2.7,2.6-3.1,3.5c-0.5,1.2-0.4,2.7,0.3,4.2
		c0.8,1.5,1.2,2.6,1.2,3.1c0,0.1,0,2.2-0.1,6.1c-0.1,3.9-0.3,8.2-0.4,12.9c-0.3,4.8-0.3,9.4-0.3,13.9c0,4.5,0,7.5,0,9
		c0,1.4,0.1,4.6,0.4,9.8c0.3,5.2,0.7,10.5,1.1,15.9c0.4,5.4,0.8,10.6,1.2,15.1c0.4,4.5,0.5,7.2,0.7,7.9c0.4,1.1,1.8,2,3.8,2.9
		c2.2,0.8,3.5,1.2,4.1,1.2c0.3,0,2.7,0.1,7.5,0.3c4.6,0.1,9.8,0.3,15.5,0.3c5.7,0.1,10.9,0.3,15.5,0.4c4.6,0.3,7.2,0.3,7.6,0.3
		c1,0,1.9,0.3,2.7,0.7c0.8,0.4,2,0.7,3.4,0.7c1.1,0,2.7-0.4,4.6-1.4c1.9-1,3.1-2.6,3.5-5c0.5-2.4,0.3-4.8-1.1-7.1
		c-1.2-2.3-2.9-3.4-4.6-3.4c-1.9,0-4.6,0.5-8.6,1.5c-3.8,1-6.5,1.5-8,1.5h-32c-0.8,0-2,0-3.7,0.1c-1.6,0.1-2.4-0.3-2.4-1
		c0-0.5-0.1-2.7-0.5-6.5c-0.4-3.8-0.5-6.4-0.5-8c0-0.1,0-1.2,0-3.4c0-2.2-0.1-4.9-0.3-8.2c-0.1-3.3-0.3-6.9-0.3-10.7
		c0-3.8,0-7.6,0-11.4v-32.5c1.5-1,2.2-3.3,1.8-6.8C1544,451,1542.8,448.6,1540.6,447.7z M1549.6,454.1c-0.1,14.4-0.3,27.5-0.3,38.9
		c0,4.9,0,9.8,0,14.4c0,4.6,0,8.7,0.1,12.4c0.1,3.7,0.3,6.7,0.4,9c0.3,2.3,0.4,3.5,0.5,3.5l1.2,0.4L1549.6,454.1z M1591.6,561.3
		l-30.5-0.4c1,0.7,3.1,1.1,6.4,1.1c3.3,0,6.8,0,10.5,0C1582.4,562,1586.9,561.7,1591.6,561.3z M1608.5,549.6c-0.4,1.5-1,2.9-1.8,3.8
		c-0.5,1-1.2,1.9-1.8,2.7c-0.7,0.8-1.4,1.5-2,1.9c-1,0.4-2.3,0.7-4.1,0.7c-0.8,0-1.5-0.1-2.2-0.4c2.2,1,3.9,1.4,5.6,1.2
		c1.1-0.3,2.3-1.1,3.7-2.2C1607.3,556.1,1608.1,553.5,1608.5,549.6z"/>
	<path class="st3" d="M1756.5,423.6c0,22.9-30.2,29.3-48.8,29.3c-18.6,0-33.7-18.5-33.7-41.5c0-23,7.2-41.4,25.9-41.4
		C1710.5,370,1756.5,412.3,1756.5,423.6z"/>
	<path d="M1756.5,630h-134.7V370h78c9.8,0,56.3,0,56.3,0s0.4,39.6,0.4,53.6V630z M1716.1,479.5c1.5-0.5,2.9-2,3.9-4.6
		c1.1-2.4,1.1-5,0.1-7.8c-0.3-1.1-1.2-2.7-2.7-4.9c-1.5-2.2-3.3-4.2-5.4-6.4c-2.2-2.2-4.5-4.1-7.1-6s-5.6-3-9-3.7
		c-3-0.5-6.9-0.5-12,0c-5,0.5-9.8,1.9-14.4,3.9c-4.6,2-8.6,5-12,8.7c-3.4,3.8-5,8.3-5,13.7c0,5.9,0.8,10.5,2.3,13.9
		c1.5,3.4,3.4,6.1,5.6,8.2c2.2,2,4.5,3.4,7.1,4.1s4.8,1.4,6.8,1.9c2.2,0.4,4.8,1,8,1.4c3.1,0.5,6.4,1.1,9.8,1.8
		c3.3,0.7,6.4,1.4,9,2.2c2.7,0.8,4.6,1.6,6,2.7c2.3,2,3.9,5,4.9,9c1,4.1,0.8,7.2-0.4,9.7c-1,2.4-3.5,5.3-7.5,8.6
		c-3.9,3.3-9.4,4.9-16.3,4.9c-3.4,0-6.1-0.1-8.3-0.5s-3.8-0.8-5.2-1.5c-1.2-0.7-2.3-1.5-3.1-2.6c-0.8-1.1-1.9-2.2-3-3.3
		c-2-2.4-3.4-4.1-4.1-5c-0.8-1-1.2-2-1.2-3.3c0-1.1,0.4-2,1.2-2.9c0.8-0.8,1-1.8,0.3-2.9c-0.5-1.4-1.2-2.2-1.9-2.2
		c-0.7-0.1-1.2-0.4-1.5-1c-0.7-0.4-1.2-1-1.8-1.8c-0.4-0.7-0.5-1.6-0.4-2.7c0-1,0.3-1.9,0.8-2.7c0.1-0.5,0.3-1,0.3-1.2
		c-0.5,0.3-1.2,0.5-1.9,0.7c-1.4,0.5-2.2,1.4-2.2,2.3c-0.3,0.7-0.1,1.4,0.4,1.9c0.1,0.3,0.3,0.5,0.3,0.7c-1.2-0.4-2.6-0.4-3.8,0
		c-0.8,0.5-1.8,1.4-2.7,2.3c-1,1-1.4,2.6-1.4,4.9c0,2.2,0.5,4.6,1.5,7.6c1,2.9,2.4,5.9,4.6,8.7c2,2.9,4.4,5.4,6.9,7.8
		c2.6,2.3,5.4,4.1,8.7,5.6c3.1,1.5,6.7,2.6,10.6,2.9c3.9,0.4,7.9,0.4,11.6,0c3.8-0.4,7.2-1.1,10.5-2.3s5.9-2.6,7.9-4.1
		c3.7-3.3,6.9-7.3,9.7-12.1c2.7-4.8,3.8-9.8,3.3-14.8c-0.4-5.3-2-9.7-4.6-13.5c-2.7-3.7-4.9-6.5-6.5-8.6c-2-2-3.7-3.4-5-4.4
		c-1.4-1-2.3-1.2-2.9-1c-0.1,0.4-0.3,1.1-0.3,1.9c0,0.1,0.1,0.3,0.3,0.4c-1.5,0.3-2.9,0.3-4.1,0c-2.4,0-4.9-0.4-7.5-1.2
		c-2-0.7-4.9-1.4-8.6-1.9c-3.8-0.5-6.8-1.5-9.3-2.7c-2.6-1.1-3.7-1.8-3.4-1.8s-0.3-0.1-1.8-0.4c-0.8-0.3-2.4-1.5-4.9-3.7
		c-2.4-2.2-3.7-4.6-3.7-7.6c0-1.5,0.7-3,2.2-4.4c1.4-1.4,3-2.6,4.9-3.8c1.9-1.2,3.8-2.3,5.7-3.1c2-1,3.7-1.5,4.9-1.6
		c2.4-0.5,5.7-1,9.9-1.2c4.2-0.3,7.1,0.3,8.8,1.5c2,1,3.9,2.6,5.9,4.6c1.9,2.2,3.3,3.9,3.9,5.3c0.5,1.1,0.8,2.3,0.7,3.4
		c-0.1,1.1,0.5,2.3,1.9,3.4c1,1,2.3,1.5,3.8,1.5C1715,480.2,1715.6,480.1,1716.1,479.5z M1671.5,508.9c-1.4-0.1-3.5-0.7-6.3-1.8
		c-2.7-1-4.5-1.5-5.2-1.5c-0.5,0-0.4,0.4,0.5,1.1c1,0.7,1.8,1.5,2.4,2.6c1,1.1,2.3,3.8,3.9,8c1.6,4.2,3.3,7.3,5,9.1
		c1.1,1,2.4,1.6,4.1,1.9c1.5,0.3,3.1,0.4,4.9,0.4h6.4c-1.2-0.4-2.4-0.7-3.7-0.7c-1,0-2,0-3,0s-1.8-0.1-2.3-0.3c-1-0.1-2-0.4-3.3-1
		c-1.2-0.5-2.2-1.1-3.1-1.6c-0.7-0.5-1.5-2-2.3-4.5c-0.8-2.4-1.5-4.4-1.9-5.7c-0.5-1.1-1.2-2.3-2.2-3.7c-0.3-0.8-0.7-1.4-1.1-1.5
		c0.5,0.1,1.4,0.4,2.3,0.8c0.5,0.1,1.2,0.3,2,0.3s1.4,0,1.6,0c0.7,0,1.5,0.1,2.3,0.3c0.8,0.1,1.9,0.3,3,0.3h4.2
		c-1.2-0.3-2.4-0.7-3.4-1.2c-1-0.1-2-0.4-3.1-0.7C1672.4,509.5,1671.8,509.2,1671.5,508.9z M1698.4,484.3l-2.7-1.5
		c-1.5-0.7-3.1-1.2-4.6-1.8c-0.4,0-1.5-0.1-3.1-0.5c-1.8-0.4-3.5-0.7-5.6-1.2c-2-0.4-3.9-1.1-5.6-1.8c-1.6-0.8-2.7-1.5-3.1-2.2
		c-1.2-2-1-3.7,0.8-5c1.9-1.4,3.8-2,6-2h8.6c-1.4-0.1-2.9-0.4-4.5-0.8c-1.1-0.1-2.4-0.3-4.1-0.3c-1.5-0.1-2.9-0.1-3.8-0.1
		c-2.3,0.1-4.5,1.2-6.8,3.4s-2.9,4.5-1.9,7.2c0.5,1.5,1.6,2.7,3.1,3.5c1.5,0.8,3.1,1.4,4.8,1.8c1.8,0.4,3.4,0.5,5,0.7
		c1.6,0.1,2.9,0.1,3.7,0.1c0.5,0.3,1.6,0.4,3.1,0.4s3.1,0,4.9,0C1694.6,484,1696.7,484.1,1698.4,484.3z M1716.5,492.3
		c-0.8,0.3-0.5,0.8,1.1,1.8l2.3,1.5c2.3,3,4.1,6,5.6,9.1c1.2,2.7,2.3,6,3.1,9.7c0.8,3.8,0.8,7.6,0.1,11.4c-1.8,8-4.1,13.7-7.3,16.9
		c-3.1,3.1-6.7,5.9-10.3,8c-3.8,2.2-7.9,3.9-12.1,5.4c-4.2,1.5-7.8,2.2-10.5,2.2s-5.4-0.1-8.4-0.3c-2.9-0.3-4.1-0.1-3.5,0.3
		c0.1,0,1.6,0.1,4.5,0.5c2.9,0.4,6.1,0.4,9.9,0.1c3.8-0.3,8-1,12.4-2.2c4.5-1.1,8.6-3,12.4-5.7c3.7-2.7,6.5-6,8.7-9.8
		c2.2-3.8,3.7-7.6,4.6-11.4s1.5-7.3,1.8-10.6c0.3-3.3,0.1-5.7-0.3-7.5c-0.3-1.5-1.1-3.5-2.3-6c-1.2-2.4-2.7-4.6-4.2-6.5
		c-1.5-2-3-3.7-4.4-5.2C1718.3,492.4,1717.3,491.9,1716.5,492.3z M1717.6,482.5c0,1,0.4,1.8,1.2,2.4c0.8,0.7,1.5,0.7,2.2,0.1
		c0.4-0.5,1.5-1.8,3.1-3.4c1.6-1.8,2.4-3.5,2.4-5.6c0-0.7,0-1.8-0.1-3.1c-0.1-1.4-0.1-2.7-0.3-4.1c-0.4-1.2-0.8-2.7-1.1-4.2
		c0.3,0,0.7-0.1,1.1-0.4l1.1-1.1c0-0.4-0.5-0.8-1.8-1.2l-1.5-0.8c-0.1-0.1-0.4-0.5-0.7-1.1c-0.5-0.5-0.7-1.1-0.4-1.8
		c0.3-0.5-0.8-2.3-3.1-5.4c-2.4-3-4.5-5.2-6.4-6.3c-2.2-1.2-5.3-2.9-9.5-4.6s-6.9-2.7-8-2.7h-3.7c-0.7,0-1.1-0.1-1.2-0.3
		c4.4,1.5,8.6,3,12.4,4.2c3.3,1.4,6.3,3,9.1,4.6c2.9,1.8,4.9,3.4,6.1,4.9c1,1.8,1.8,3,2.2,4.1c0.5,1,1.1,1.9,1.6,2.7
		c0.4,0.8,0.7,1.5,0.7,1.9l0.4,2.2l0.8,1.8c0.5,2.2,1,4.1,1.2,5.7c0.4,1.5,0.4,3.1,0.1,4.8c-0.4,1.6-1,2.9-1.8,3.5
		c-1.4,1-2.4,1.6-3.1,1.8c-0.7,0.1-1.2,0.5-1.8,1L1717.6,482.5z"/>
</g>
</svg>
