<?xml version="1.0" encoding="utf-8"?>
<!-- Generator: Adobe Illustrator 19.2.0, SVG Export Plug-In . SVG Version: 6.00 Build 0)  -->
<svg version="1.1" id="Layer_1" xmlns="http://www.w3.org/2000/svg" xmlns:xlink="http://www.w3.org/1999/xlink" x="0px" y="0px"
	 viewBox="0 0 500 200" style="enable-background:new 0 0 500 200;" xml:space="preserve">
<style type="text/css">
	.st0{enable-background:new    ;}
</style>
<g>
	<g>
		<g>
			<path d="M227.2,79.8l31.7,38l7.4-7.4l-14.8-17.6L266.8,80c3.5-2.8,6.3-6,8.1-9.3s3-6.7,3.5-10.2c0.5-3.5,0-6.9-1.2-10.4
				c-1.2-3.5-3-6.9-5.8-10.2c-2.5-3-5.3-5.3-8.8-6.7c-3.2-1.6-6.9-2.5-10.4-2.8c-3.7-0.2-7.4,0.2-11.1,1.6c-3.7,1.2-7.2,3-10.2,5.8
				c-3.2,2.8-6,5.8-7.6,9.5c-1.9,3.5-3,7.2-3.2,10.9s0,7.4,1.4,11.3C222.3,73,224.4,76.6,227.2,79.8z M232.3,51.4
				c1.2-2.3,3-4.2,5.1-6c2.1-1.9,4.4-3,6.9-3.9c2.3-0.7,4.9-1.2,7.2-0.9s4.6,0.7,6.7,1.9c2.1,0.9,3.9,2.5,5.6,4.4
				c3.5,4.2,4.9,8.3,4.6,13c-0.5,4.6-3,8.8-7.6,12.7l-15.3,12.7l-9.7-11.8c-1.9-2.3-3.2-4.9-4.2-7.4c-0.9-2.5-1.2-5.1-0.9-7.4
				C230.2,56.1,230.9,53.7,232.3,51.4z"/>
		</g>
		<g>
			<polygon points="295.2,144.9 288,136.3 275.5,121.5 268.1,129.1 283.1,146.9 289.4,154.6 299.1,166.4 313.2,166.2 			"/>
		</g>
		<g>
			<path d="M279.7,151.1c-3,3-6.3,5.1-10.2,6.5c-3.7,1.4-7.6,2.1-11.8,1.9c-3.9-0.2-8.1-1.2-12-2.8c-3.9-1.6-7.4-3.9-10.7-7.2
				c-3-3-5.1-6-6.7-10c-1.6-3.9-2.5-7.9-2.8-11.8c-0.2-3.9,0.5-7.9,1.9-11.8c0.7-2.1,2.1-4.2,3.5-5.8c1.2-1.2,2.1-2.1,3.5-3.5
				l-5.6-6.7c-1.4,1.2-4.2,3.9-5.3,5.1c-2.3,3-3,3.9-5.1,8.6c-1.9,4.9-2.5,9-2.3,14.1c0.2,5.3,1.2,10.4,3.2,15.5
				c2.1,5.1,4.9,9,8.8,13.2c4.2,4.2,8.8,7.2,13.9,9.3c5.1,2.1,9.7,3.7,15.1,3.7c5.3,0,10.9-1.2,15.7-3.2c4.9-1.9,9.5-4.9,13.4-8.8
				c0.5-0.5,0.9-0.9,1.4-1.4l-6.3-7.4C280.8,149.7,280.3,150.4,279.7,151.1z"/>
		</g>
		<g>
			<path d="M260.4,119.9l-5.8,5.8l6.3,7.4l5.8-6l7.4-7.6l7.4-7.6c2.3,2.8,4.2,6,5.3,9.3s1.9,6.7,1.6,10.2c0,0.5,0,0.9,0,1.4l7.9,9.3
				c1.4-3.9,2.1-8.1,2.1-12.3c-0.2-4.9-1.4-10-3.5-14.8c-2.3-4.9-5.6-9.5-10-13.9l-3-3L268.1,112L260.4,119.9z"/>
		</g>
	</g>
	<g>
		<g class="st0">
			<path d="M0,106.5c0.3,0,0.4-0.1,0.5-0.1c0.5,0,1.3,0,2.5,0.1c0.6,0,1,0,1.2,0c0.3,0,1,0,2.1-0.1l3.8-0.2c1-0.1,2.1-0.1,3.5-0.1
				c2.3,0,4.2,0.3,5.6,1c1.4,0.7,2.4,1.7,3.2,3.1c0.7,1.4,1.1,2.8,1.1,4.2c0,2.3-0.8,4.3-2.4,6c-1.6,1.7-3.8,2.5-6.6,2.5
				c-0.8,0-1.4-0.1-1.9-0.2c-0.5-0.2-1.1-0.5-1.8-0.9c-0.3-0.2-0.5-0.4-0.5-0.6c0.1-0.1,0.1-0.2,0.2-0.2c0.2,0,0.4,0,0.6,0.1
				c0.5,0.2,1.1,0.3,1.9,0.3c1.2,0,2.3-0.3,3.3-0.9c1-0.6,1.8-1.4,2.4-2.5c0.5-1.1,0.8-2.2,0.8-3.4c0-1.2-0.3-2.3-0.8-3.4
				c-0.6-1.1-1.3-2-2.2-2.6c-0.5-0.4-1.3-0.7-2.4-0.9s-1.9-0.4-2.5-0.4c-1.8,0-2.9,0.1-3.3,0.4l0,0.3l0.1,2.5l0,0.4c0,0.4,0,1,0,1.8
				c0,3,0,4.9,0.1,5.6v1.2l0.3,10.1c0,0.1,0,0.4-0.1,0.8c0,0.4-0.1,0.7-0.1,1c0,0.7,0.1,1.3,0.2,1.6c0.4,0.1,1.4,0.3,3.1,0.7
				c0.8,0.2,1.2,0.3,1.3,0.3c0.1,0,0.2,0.1,0.3,0.3c-0.1,0.2-0.1,0.4-0.2,0.4c-0.1,0.1-0.3,0.1-0.6,0.1c-0.2,0-0.6,0-1.2-0.1
				c-1.3-0.1-2.3-0.2-3-0.2l-3.9,0.2l-2.3-0.1c-0.1,0-0.6,0-1.3,0l0-0.6l2.9-0.6c0.5-0.1,0.8-0.3,0.9-0.4c0.1-0.2,0.2-0.6,0.2-1.2
				c0-0.1,0-0.4,0-0.9c0-0.3,0-0.7,0-1.3c0-1.7-0.1-5.5-0.2-11.2c-0.1-2.7-0.1-5.4-0.1-8.1v-0.4c0-1.1-0.2-1.7-0.5-2
				c-0.5-0.5-1.9-0.9-4.1-1.2c-0.1-0.2-0.1-0.3-0.1-0.4C-0.1,106.8-0.1,106.7,0,106.5z"/>
		</g>
		<g class="st0">
			<path d="M26,134.2c2.2-0.3,3.4-0.4,3.6-0.5c0.2-0.1,0.4-0.3,0.5-0.7v-0.2c0-0.4,0.1-1.7,0.2-4c0-0.7,0-1.3,0-1.9l-0.1-2.6l0-3
				l0-5.6l0-4c0-1.7-0.1-2.7-0.4-3.1c-0.3-0.4-1-0.6-2.1-0.8c-1.1-0.2-1.8-0.3-1.9-0.3c-0.1-0.1-0.2-0.2-0.2-0.4
				c0-0.1,0-0.2,0.1-0.4c0.1-0.1,0.5-0.2,1-0.2c0.1,0,0.3,0,0.6-0.1c0.3,0,0.6-0.1,0.9-0.1h1.8l5.8-0.1c3.3,0,5.6,0.2,6.9,0.7
				c1.3,0.5,2.4,1.3,3.2,2.5c0.8,1.2,1.2,2.5,1.2,3.9c0,2.7-1.4,4.8-4.3,6.2c-0.5,0.3-0.9,0.5-1.2,0.7c0.5,1.1,1.2,2.3,2.1,3.8
				l2.8,4.8c1.1,1.8,1.9,2.9,2.3,3.3c0.4,0.5,1,0.8,1.6,1.1c0.6,0.3,1.6,0.6,3.1,0.8c0,0.1,0,0.3,0,0.4c0,0.1,0,0.2,0,0.3
				c-2,0-4.4,0-7.1,0c-0.2,0-0.5,0-0.8,0c-1.1-2-2.3-4.2-3.7-6.7l-3.3-6c-0.4-0.6-0.8-1-1.1-1.2c-0.3-0.2-0.7-0.2-1.1-0.2l-1.9,0
				l-0.6,0c0,0.5-0.1,1.4-0.1,2.9v7.6c0,0.3,0,0.7,0.2,1.2c0.1,0.3,0.3,0.5,0.6,0.7c0.3,0.2,1.1,0.4,2.5,0.8l0.9,0.2
				c0.1,0.1,0.2,0.3,0.2,0.6c-0.4,0.1-0.7,0.1-0.8,0.1c-1.3,0-2.3,0-2.8,0c-0.3,0-0.5,0-0.7,0l-3,0l-2.9,0c-0.1,0-0.8,0-2,0.1
				l-0.4-0.1l0-0.2C25.7,134.5,25.8,134.4,26,134.2z M34.2,119.7c0.4,0,0.7,0,0.9,0c1.1,0,2.3-0.1,3.7-0.4c1-0.2,1.8-0.5,2.4-0.9
				c0.6-0.4,1.1-1.1,1.5-1.9c0.4-0.9,0.6-1.7,0.6-2.7c0-1-0.3-2.1-1-3.2c-0.5-0.9-1.3-1.6-2.5-2.2c-1.2-0.6-2.6-0.9-4.2-0.9
				c-0.4,0-0.9,0-1.6,0.1c-0.1,0.8-0.1,1.4-0.1,1.8l0.1,4.1l0,1.7C34.1,116.4,34.2,117.9,34.2,119.7z"/>
		</g>
		<g class="st0">
			<path d="M53.4,120.7c0-1.5,0.2-2.9,0.5-4c0.4-1.2,1-2.5,1.8-3.8c0.9-1.4,1.9-2.5,3.1-3.5c1.2-0.9,2.9-1.7,5-2.5
				c1.5-0.5,3.4-0.7,5.7-0.7c1.6,0,3.1,0.2,4.6,0.6c1.5,0.4,2.8,1,4.1,1.7c1.2,0.7,2.4,1.9,3.6,3.4c0.8,1.1,1.5,2.2,1.9,3.4
				c0.6,1.6,0.8,3.3,0.8,5c0,2-0.2,3.6-0.6,4.9c-0.4,1.3-1,2.6-1.9,3.8c-0.7,1-1.9,2.1-3.6,3.4c-1.1,0.9-2.5,1.6-4.2,2.1
				c-1.7,0.5-3.5,0.8-5.4,0.8c-2,0-3.7-0.2-5.3-0.7c-1.5-0.5-2.8-1-3.9-1.7c-1-0.7-2.1-1.6-3.2-2.9c-1.1-1.3-1.9-2.7-2.5-4.3
				C53.7,124.2,53.4,122.5,53.4,120.7z M68.8,134.5c1.2,0,2.5-0.2,3.9-0.5c1.3-0.3,2.5-0.9,3.6-1.7c1-0.8,1.8-1.7,2.4-2.8
				c0.6-1,1.1-2.3,1.4-4c0.4-1.6,0.5-3.2,0.5-4.8c0-2-0.3-4-0.9-6c-0.5-1.5-1.2-2.8-2.2-4c-1-1.2-2.3-2.1-3.8-2.7
				c-1.5-0.6-3-1-4.7-1c-1.3,0-2.7,0.2-4,0.7c-1.3,0.4-2.3,1-3.2,1.7s-1.6,1.7-2.3,2.9c-0.7,1.3-1.3,2.7-1.6,4.2
				c-0.4,1.5-0.6,2.9-0.6,4c0,1.2,0.2,2.6,0.6,4.2c0.4,1.6,0.9,2.9,1.5,4c0.6,1.1,1.4,2.2,2.4,3s2,1.6,3.2,2
				C66.2,134.3,67.5,134.5,68.8,134.5z"/>
		</g>
		<g class="st0">
			<path d="M113,107.7c0.2,1.1,0.3,2.3,0.3,3.5c0,0.2,0,0.6,0,1c-0.2,0-0.4,0.1-0.5,0.1c-0.1,0-0.2,0-0.4,0c-0.6-1.7-1.6-3.1-3-4
				s-3.1-1.4-5.2-1.4c-1.1,0-2,0.1-2.8,0.4c-1.3,0.5-2.5,1.1-3.5,1.9c-1,0.8-1.9,1.8-2.6,2.9c-0.7,1.1-1.2,2.5-1.7,4.1
				c-0.4,1.6-0.6,3.2-0.6,4.9c0,3.2,0.5,5.8,1.4,7.9c1,2.1,2.3,3.5,4,4.4c1.7,0.9,3.4,1.3,5.1,1.3l1,0c1.2-0.1,2-0.3,2.4-0.4
				c1.1-0.3,2-0.7,2.7-1.1c0.7-0.4,1.4-1,2.1-1.8c0.7-0.8,1.2-1.7,1.7-2.7l0.3-0.1c0.1,0,0.2,0,0.3,0.1c0,0.4,0,0.6,0,0.7
				c-0.6,2.5-1.1,4.2-1.4,5.1c-0.2,0.1-0.5,0.1-0.9,0.3c-1.7,0.6-4,0.9-7,0.9c-2.3,0-4.1-0.2-5.3-0.5c-1.2-0.3-2.4-0.8-3.8-1.5
				c-1.4-0.7-2.6-1.6-3.6-2.7c-1-1.1-1.9-2.5-2.5-4.2c-0.6-1.7-1-3.5-1-5.5c0-1.9,0.3-3.5,0.8-5c0.5-1.4,1.3-2.8,2.3-4.3
				c1.1-1.5,2.3-2.7,3.7-3.6c1.4-1,3-1.6,4.8-2c1.2-0.3,3-0.4,5.2-0.4c1.6,0,3.2,0.2,4.6,0.7C111.6,106.8,112.5,107.3,113,107.7z"/>
			<path d="M116.4,109.8l0.9-3.4c0.1-0.4,0.1-0.7,0.2-0.9c0.1-0.1,0.2-0.2,0.4-0.2c0.3,0,0.6,0.3,0.9,1c0.3,0.5,0.5,0.8,0.6,0.9
				c0.2,0.1,0.4,0.2,0.7,0.3l0.2,0l1,0.1l5.2,0.1l6.2,0h1.8l3.4-0.1c0.1,0,0.3,0,0.6,0c1,0.1,1.6,0.1,1.9,0.1c0.2,0,0.4-0.1,0.5-0.2
				c0-0.1,0.3-0.5,0.7-1.5c0.2-0.4,0.4-0.6,0.7-0.6c0.1,0,0.3,0,0.4,0.1c0.1,0.3,0.1,0.6,0.1,0.8l0,0.9l0,1.9c0,0.5,0,1.9-0.1,4.4
				c0,0.2,0,0.3-0.1,0.4c-0.2,0.1-0.3,0.2-0.4,0.2s-0.2-0.1-0.3-0.2c-0.1-0.1-0.2-0.5-0.3-1c-0.3-1.3-0.7-2.3-1.1-2.8
				c-0.3-0.4-0.7-0.6-1.3-0.8c-0.6-0.2-1.9-0.2-4-0.2c-1.7,0-2.9,0-3.8,0c0,0.6,0,1.1,0,1.6l0.2,13.8c0,0.5,0,1.6-0.1,3.1l0,3l0,1.6
				c0,0.5,0.1,0.9,0.3,1.1c0.2,0.2,0.7,0.4,1.4,0.6c1.4,0.3,2.3,0.5,2.7,0.6c0.3,0,0.5,0.1,0.7,0.2v0.7l-3.2-0.1c-1.7,0-3,0-3.9-0.1
				l-3.2,0.2l-2.4,0.1c-0.7,0-1.1,0-1.2,0l-0.3-0.1c0-0.3,0.1-0.6,0.2-0.7c0.1-0.1,0.4-0.2,0.8-0.2c0.6-0.1,1.4-0.2,2.2-0.5
				c0.8-0.2,1.4-0.5,1.7-0.7c0.1-0.1,0.3-0.4,0.3-0.7c0.1-0.7,0.2-1.9,0.2-3.8v-3.8l-0.1-8.2l-0.1-1.8l0-5.9c-0.9,0-2.1,0-3.6,0
				c-2.1,0-3.4,0.1-3.9,0.4c-0.7,0.4-1.8,1.6-3.2,3.5c-0.5,0.7-0.9,1.1-1.2,1.1l-0.2,0c-0.1-0.1-0.1-0.2-0.1-0.2
				c0-0.2,0.1-0.7,0.4-1.6C116.2,110.9,116.4,110.2,116.4,109.8z"/>
		</g>
		<g class="st0">
			<path d="M146.5,134.5c0.1-0.1,0.3-0.2,0.4-0.2c0.3-0.1,0.7-0.1,1.3-0.2c1.4-0.1,2.3-0.2,2.7-0.4c0.2-0.3,0.3-0.7,0.3-1.2l0-1.6
				l0-5.7l0-2.7l0-5.6l-0.1-6.3c0-1.5-0.1-2.4-0.3-2.6c-0.3-0.3-1.1-0.4-2.4-0.5c-0.6,0-1.1-0.1-1.5-0.1c-0.2-0.1-0.3-0.2-0.3-0.4
				c0-0.1,0-0.3,0.1-0.4c0.1-0.1,0.3-0.1,0.4-0.1c0.2,0,0.5,0,0.8,0c0.9,0.1,1.8,0.1,2.7,0.1l1.6,0l3.9,0.1c2,0,3.5,0,4.6-0.1
				c1.1,0,1.8-0.1,2.2-0.1c0.3,0,1.2,0,2.5,0.1l3.2,0l0.4,0.1l1.8-0.1l0.2,0.1c0.1,0.1,0.1,0.2,0.2,0.4c0,0.2,0,0.5-0.1,1
				c-0.1,0.4-0.1,0.7-0.1,0.8c0,1.5,0.1,2.8,0.2,3.9c0,0.1-0.1,0.1-0.1,0.2c-0.2,0-0.3,0-0.4-0.1c-0.2-0.3-0.4-0.8-0.7-1.5
				c-0.3-0.7-0.7-1.5-1.2-2.5c-0.4-0.6-0.7-1-0.9-1.1c-0.2-0.1-0.6-0.2-1.3-0.2c-0.1,0-0.8,0-2,0c-0.3,0-0.6,0-1,0l-6.3,0.1h-0.6
				c-0.8,0-1.3,0.1-1.5,0.3c-0.3,0.4-0.4,1.4-0.4,3.1c0,0.2,0,2,0.1,5.3v3.1c0.2,0,0.3,0.1,0.5,0.1h0.4c0.3,0,0.6,0,1.1,0
				c0.8,0,1.3,0,1.6,0c0.2,0,0.3,0,0.5,0c1.6-0.1,3.7-0.1,6.2-0.1c0.8-0.1,1.2-0.3,1.4-0.5c0.2-0.3,0.4-1,0.5-2.1
				c0.1-1.1,0.4-1.8,0.7-1.9c0.2,0,0.4,0,0.5,0.1c0,0.1,0,0.2,0,0.3c0,0.1,0,0.3,0,0.5c-0.1,0.5-0.1,2.3-0.1,5.2
				c0,0.8,0,1.6,0.1,2.6c0.1,0.9,0.1,1.5,0.1,1.5c0,0.1,0,0.3-0.1,0.5c-0.1,0.1-0.2,0.1-0.3,0.1h-0.2c-0.2-0.4-0.5-1.1-0.7-1.9
				c-0.4-1.5-0.8-2.4-1.2-2.8c-0.4-0.4-1.1-0.6-2.1-0.6c-0.2,0-0.6,0-1.1,0c-0.5,0-1.4,0-2.4,0h-1.4c-2.1,0-3.4,0-4,0.1l0,0.7l0,4.1
				l0,2.6l0,2.5c0,1.5,0.1,2.4,0.3,2.6c0.3,0.3,0.8,0.5,1.6,0.5l1.4,0c0.1,0,0.6,0,1.4,0c0.8,0,1.8,0,3,0c2.9,0,4.8-0.1,5.7-0.4
				s1.7-0.7,2.3-1.3c0.6-0.6,1.4-2,2.3-4c0.3-0.6,0.6-0.9,0.8-0.9c0.1,0,0.3,0.1,0.4,0.2c-0.4,1.5-0.7,2.4-0.7,2.9
				c-0.2,1-0.3,2.1-0.3,3.2c0,0.5-0.1,0.9-0.4,1.2h-0.5l-6.2,0.1l-2.8,0l-6.7,0.1h-2.7c-0.3,0-0.7,0-1,0c-2.7,0.1-4.6,0.2-5.9,0.2
				c-0.2,0-0.4,0-0.5-0.1c-0.1-0.1-0.1-0.2-0.1-0.3L146.5,134.5z"/>
		</g>
		<g class="st0">
			<path d="M177.5,134.2c2.2-0.3,3.4-0.4,3.6-0.5c0.2-0.1,0.4-0.3,0.5-0.7v-0.2c0-0.4,0.1-1.7,0.2-4c0-0.7,0-1.3,0-1.9l-0.1-2.6l0-3
				l0-5.6l0-4c0-1.7-0.1-2.7-0.4-3.1c-0.3-0.4-1-0.6-2.1-0.8c-1.1-0.2-1.8-0.3-1.9-0.3c-0.1-0.1-0.2-0.2-0.2-0.4
				c0-0.1,0-0.2,0.1-0.4c0.1-0.1,0.5-0.2,1-0.2c0.1,0,0.3,0,0.6-0.1c0.3,0,0.6-0.1,0.9-0.1h1.8l5.8-0.1c3.3,0,5.6,0.2,6.9,0.7
				c1.3,0.5,2.4,1.3,3.2,2.5c0.8,1.2,1.2,2.5,1.2,3.9c0,2.7-1.4,4.8-4.3,6.2c-0.5,0.3-0.9,0.5-1.2,0.7c0.5,1.1,1.2,2.3,2.1,3.8
				l2.8,4.8c1.1,1.8,1.9,2.9,2.3,3.3c0.4,0.5,1,0.8,1.6,1.1c0.6,0.3,1.6,0.6,3.1,0.8c0,0.1,0,0.3,0,0.4c0,0.1,0,0.2,0,0.3
				c-2,0-4.4,0-7.1,0c-0.2,0-0.5,0-0.8,0c-1.1-2-2.3-4.2-3.7-6.7l-3.3-6c-0.4-0.6-0.8-1-1.1-1.2c-0.3-0.2-0.7-0.2-1.1-0.2l-1.9,0
				l-0.6,0c0,0.5-0.1,1.4-0.1,2.9v7.6c0,0.3,0,0.7,0.2,1.2c0.1,0.3,0.3,0.5,0.6,0.7c0.3,0.2,1.1,0.4,2.5,0.8l0.9,0.2
				c0.1,0.1,0.2,0.3,0.2,0.6c-0.4,0.1-0.7,0.1-0.8,0.1c-1.3,0-2.3,0-2.8,0c-0.3,0-0.5,0-0.7,0l-3,0l-2.9,0c-0.1,0-0.8,0-2,0.1
				l-0.4-0.1l0-0.2C177.2,134.5,177.3,134.4,177.5,134.2z M185.7,119.7c0.4,0,0.7,0,0.9,0c1.1,0,2.3-0.1,3.7-0.4
				c1-0.2,1.8-0.5,2.4-0.9c0.6-0.4,1.1-1.1,1.5-1.9c0.4-0.9,0.6-1.7,0.6-2.7c0-1-0.3-2.1-1-3.2c-0.5-0.9-1.3-1.6-2.5-2.2
				c-1.2-0.6-2.6-0.9-4.2-0.9c-0.4,0-0.9,0-1.6,0.1c-0.1,0.8-0.1,1.4-0.1,1.8l0.1,4.1l0,1.7C185.7,116.4,185.7,117.9,185.7,119.7z"
				/>
		</g>
	</g>
	<g>
		<g class="st0">
			<path d="M338.4,104.4l0.2,3.4c0.1,1,0.1,1.7,0.1,2.1l-0.6,0.1c-1-2.2-2.2-3.9-3.7-5.1c-1.5-1.1-3.3-1.7-5.4-1.7
				c-2.6,0-4.6,0.3-6.1,1c-2.1,0.9-3.9,2.5-5.4,4.7c-1.5,2.2-2.2,4.9-2.2,8.1c0,1.8,0.3,3.5,0.8,4.9c0.5,1.5,1.3,2.8,2.3,4.1
				c1,1.3,2.2,2.3,3.5,3.3c0.9,0.6,1.9,1.1,3.2,1.4c0.7,0.2,1.7,0.2,3.1,0.2c0.9,0,1.9-0.1,3-0.4c1.1-0.3,1.9-0.6,2.4-1
				c0.5-0.4,0.9-0.9,1.1-1.4c0.2-0.5,0.3-1.6,0.3-3.1c0-2.6-0.2-4.1-0.5-4.5c-0.3-0.4-1.4-0.7-3.2-0.8l-0.9-0.1l-0.6,0
				c-0.1,0-0.2,0-0.4-0.1l-0.3-0.6c0-0.1,0.1-0.2,0.2-0.3c0.8-0.1,2.4-0.2,5-0.2c0.6,0,1.5,0,2.8,0l2.3,0.1l2.1,0c0.4,0,0.9,0,1.4,0
				c0.1,0,0.2,0,0.2,0.1c0,0,0,0.1,0,0.2c0,0.2,0,0.4-0.1,0.6c-0.6,0.1-1.1,0.2-1.4,0.2l-1.4,0c-0.5,0-0.9,0.2-1.2,0.5
				c-0.1,0.2-0.2,0.7-0.2,1.7l0,2.9c0,2-0.1,3.3-0.2,3.8c-0.1,0.3-0.3,0.6-0.6,0.9c-0.3,0.3-0.9,0.6-1.8,0.9c-1.3,0.5-2.5,0.9-3.5,1
				c-2,0.3-3.8,0.5-5.7,0.5c-2.9,0-5.3-0.4-7.2-1.1c-1.9-0.7-3.5-1.8-4.8-3.1c-1.4-1.3-2.3-2.7-2.9-4c-0.9-2-1.3-4-1.3-6.1
				c0-2.6,0.7-5.1,2.1-7.6c1.4-2.5,3.6-4.5,6.6-6.1c2.1-1.1,5.1-1.6,8.8-1.6c2.5,0,4.6,0.2,6.3,0.7
				C336.2,103.3,337.5,103.8,338.4,104.4z"/>
		</g>
		<g class="st0">
			<path d="M341.9,130.7c0.2-0.1,0.4-0.2,0.6-0.2h0.5c0.1,0,0.3,0,0.5,0c1.1-0.1,1.8-0.2,2-0.3c0.5-0.3,1-0.8,1.3-1.5
				c0.8-1.5,1.6-3.6,2.6-6.4c0.5-1.3,0.7-2.1,0.9-2.4c0.4-0.9,0.7-1.8,1.1-2.8l2.1-5.8c0.3-0.9,1.1-3,2.4-6.3
				c0.3-0.8,0.7-1.9,1.1-3.3l0.7,0l0.8,0c0.6,1.3,1.2,2.6,1.7,4.1c0.3,0.8,0.7,1.9,1.3,3.4l3.4,9.1l1.8,5c0.9,2.8,1.6,4.5,1.9,5.2
				c0.3,0.6,0.6,1.1,0.8,1.3c0.1,0.1,0.4,0.1,0.8,0.3c0.5,0.1,0.8,0.2,1,0.3c0.7,0.2,1.2,0.4,1.4,0.5c0.1,0.2,0.1,0.3,0.1,0.4
				c0,0.1,0,0.2-0.1,0.3c-0.5,0-0.8,0-1,0c-0.8,0-2.1,0-4-0.1l-2.2,0l-2.7,0c-0.2,0-0.4,0-0.5,0c-0.2,0-0.3,0-0.5,0h-0.5
				c-0.2,0-0.3-0.1-0.4-0.1c0-0.2,0-0.4,0.1-0.6c0.2-0.1,0.3-0.1,0.5-0.2l2.3-0.2c0.6,0,1.1-0.1,1.4-0.2c0.1-0.3,0.1-0.5,0.1-0.6
				c0-0.3-0.2-1-0.6-2.1c-0.3-0.7-0.5-1.4-0.7-2.1c-0.2-0.7-1-2.9-2.4-6.6c-0.6-0.1-1.1-0.2-1.6-0.2l-4.8,0l-1.4,0
				c-0.5,0-1.1,0-1.7,0.1c-0.2,0.4-0.3,0.8-0.4,1l-2,6.1c-0.8,2.3-1.2,3.6-1.2,3.8c0,0.1,0.1,0.4,0.2,0.7c0.3,0.1,0.7,0.2,1.2,0.2
				l3,0.3c0.2,0.1,0.2,0.3,0.2,0.4c0,0.1,0,0.2-0.1,0.3c-0.7,0-1.2,0-1.5,0c-1.2,0-2.6,0-4.1-0.1c-0.7,0-1.2,0-1.6,0
				c-0.3,0-0.9,0-1.6,0c-0.5,0-0.9,0-1.1,0c-0.4,0-0.8,0-1.4-0.1v-0.1C341.8,131,341.8,130.8,341.9,130.7z M352.5,117.3
				c1.6,0.1,3.4,0.1,5.4,0.1c1.2,0,2.2,0,3-0.1c-0.1-0.6-0.3-1.1-0.5-1.6c-1-2.6-1.5-4-1.6-4.3l-2-5.1l-0.2-0.4
				c-0.1,0.2-0.4,0.9-1,2.3c-0.9,2.3-1.6,4.1-2,5.4c-0.2,0.6-0.4,1.2-0.6,1.7c-0.2,0.6-0.3,1-0.4,1.2s-0.1,0.5-0.2,0.7L352.5,117.3z
				"/>
		</g>
		<g class="st0">
			<path d="M375.5,130.8c0.5-0.3,1.3-0.5,2.5-0.7c0.9,0,1.5-0.1,1.7-0.2c0.1-0.1,0.2-0.2,0.3-0.3c0.2-0.5,0.4-2,0.5-4.4
				c0.1-3.2,0.4-7.4,0.7-12.6c0.2-4,0.4-6.5,0.4-7.5v-0.6c-1.1-0.2-2.8-0.5-5.1-0.7c-0.1-0.2-0.2-0.4-0.2-0.5c0-0.1,0.1-0.2,0.2-0.4
				c0.3-0.1,0.4-0.1,0.6-0.1c0.1,0,0.4,0,0.8,0.1c0.7,0.1,1.7,0.2,3,0.2c0.4,0,1.1,0,2.1-0.1c0.7,0,1.1-0.1,1.2-0.1
				c0.2,0,0.5,0,0.8,0.1c0.2,0.2,0.3,0.3,0.3,0.4l0.9,2.1l6.3,13.9l2.6,5.8c2.1-4.1,3.6-7.7,4.8-10.9c0.1-0.2,0.2-0.5,0.3-0.6
				c0.1-0.3,0.3-0.5,0.4-0.8c0.1-0.3,0.6-1.5,1.4-3.6c0.3-0.8,0.6-1.5,0.8-2.1c0.8-2.4,1.3-3.7,1.5-4.1c0.3-0.1,0.5-0.2,0.7-0.2
				c0.2,0,0.5,0,0.9,0.1c0.8,0,2.2,0.1,4.1,0.1c1.2,0,2.1,0,2.9,0c0,0.2,0,0.3,0,0.4c0,0.1,0,0.2-0.1,0.4c-0.5,0.3-1,0.4-1.7,0.4
				c-1.3,0.1-2.2,0.2-2.5,0.3c-0.4,0.1-0.6,0.3-0.7,0.5c-0.1,0.2-0.2,0.9-0.3,2l0,1l0,1.1c0,2.2,0.1,6,0.2,11.2l0,4.4l0,2.8
				c0,1.1,0.1,1.7,0.2,1.9c0.1,0.2,0.4,0.4,0.9,0.6c0.8,0.3,2.1,0.5,3.9,0.8c0.1,0.1,0.2,0.2,0.2,0.3c0,0.1,0,0.3,0,0.4h-1
				c-0.9,0-1.8,0-2.8-0.1c-1-0.1-1.6-0.1-1.6-0.1c-3,0-5.1,0-6.1,0.1c-0.6,0.1-1,0.1-1.2,0.1c-0.1,0-0.2,0-0.3-0.1v-0.3
				c0-0.1,0-0.3,0.1-0.4c0.5-0.2,1.2-0.3,2-0.4c0.9-0.3,1.6-0.5,2-0.8c0.1-0.6,0.2-1.7,0.2-3.4l-0.1-4.5c0-0.5,0-1.4,0.1-2.7
				c0.1-1.3,0.1-3.5,0.1-6.5c0-2.4-0.1-4.2-0.2-5.4c-0.3,0.5-0.7,1.6-1.5,3.4l-0.3,0.8l0,0.1l-3.3,7.8l-1.2,3l-1.5,3.6
				c-0.7,1.7-1.2,3.2-1.7,4.4c-0.2,0.6-0.4,1.1-0.5,1.4l-0.5,0c-1.7-4.9-3.7-9.9-6-15c-2.3-5.1-3.9-8.5-4.9-10.2
				c-0.1,0.6-0.3,2.5-0.4,5.6c-0.2,3.7-0.3,7.8-0.3,12.3c0,1.4,0.1,3,0.3,4.7c0.1,0.5,0.3,0.9,0.6,1.1c0.4,0.2,1.3,0.4,2.9,0.4
				c0.6,0,1.2,0,1.7,0.1c0.1,0.2,0.2,0.4,0.2,0.5c0,0.1,0,0.2-0.1,0.4l-6.9-0.2c-0.5,0-1.3,0-2.4,0.1c-0.6,0-1.4,0.1-2.5,0.1
				L375.5,130.8z"/>
		</g>
		<g class="st0">
			<path d="M416.8,103.9v-0.7c0.3-0.1,0.5-0.1,0.6-0.1l2.1-0.1c1.7-0.2,3.7-0.3,5.8-0.4c0.9,0,2.2,0,4.1,0c2.5,0,4.4,0.2,5.5,0.6
				c1.7,0.5,3,1.4,3.8,2.5s1.3,2.3,1.3,3.7c0,2.2-1.6,4-4.7,5.5l-0.1,0.2c1.6,0.4,2.9,1,3.9,1.8c1,0.8,1.8,1.7,2.4,2.8
				c0.4,0.8,0.6,1.9,0.6,3.2c0,2.2-1,4.2-3,5.9c-2,1.7-4.8,2.6-8.3,2.6h-3.3l-3.4,0.1c-3,0-4.7,0-5.2,0c-0.5,0-1,0-1.5-0.1v-0.3
				c0-0.2,0-0.3,0.1-0.4c0.1-0.1,0.3-0.2,0.5-0.2c1.9-0.4,2.9-0.6,3.1-0.8c0.2-0.1,0.4-0.4,0.5-0.7c0.2-0.6,0.3-2.1,0.3-4.6
				c0-0.2,0-0.5,0-0.8c0-1,0-1.6,0-1.7v-2.3c0-3.9,0-7.3-0.1-10.2l0-4.5l0-0.6c-1.3-0.2-2.4-0.3-3.3-0.3
				C417.7,104,417.2,104,416.8,103.9z M425.6,115.1c0.7,0.1,1.5,0.2,2.3,0.2c3.2,0,5.4-0.7,6.5-2.1c1.1-1.4,1.7-2.8,1.7-4.2
				c0-0.6-0.1-1.3-0.3-1.9c-0.2-0.6-0.6-1.2-1.1-1.7c-0.5-0.5-1.1-0.9-1.9-1.2c-1.3-0.4-2.6-0.6-4-0.6c-1.3,0-2.4,0.1-3.5,0.4
				c0,0.3,0,0.5,0,0.7c0,0.1,0,0.6,0,1.3c0,0.4,0,0.9,0,1.3l-0.1,2.7l0,1.6l0.2,3.1L425.6,115.1z M430.8,130.2
				c1.5-0.1,2.7-0.4,3.7-0.9c0.5-0.2,1-0.7,1.6-1.3c0.6-0.6,1.1-1.4,1.5-2.2c0.3-0.9,0.5-1.7,0.5-2.5c0-0.6-0.1-1.4-0.4-2.2
				c-0.2-0.9-0.7-1.7-1.2-2.3c-0.6-0.7-1.5-1.2-2.6-1.7c-1.2-0.4-2.4-0.7-3.8-0.7c-2.7,0-4.2,0.1-4.5,0.2c0,0.3,0,0.6,0,0.8l0,0.8
				l0,1.7v1.9c0,3.5,0.1,5.5,0.2,6.2c0.1,0.6,0.5,1.2,1.2,1.6C427.6,129.9,428.9,130.2,430.8,130.2z"/>
		</g>
		<g class="st0">
			<path d="M444.4,131.5c0-0.2,0.1-0.4,0.2-0.6c1.2-0.3,2.3-0.5,3.4-0.6c0.7-0.1,1.2-0.2,1.4-0.5c0.1-0.2,0.2-0.9,0.3-2.1l0.2-5.9
				l0-4l0-5.2v-1.4c0-3.1,0-5.1,0-5.8c0-0.1-0.1-0.4-0.2-0.6c-0.4-0.2-0.7-0.3-1-0.4c-0.3-0.1-1.4-0.3-3.5-0.6c0-0.2,0-0.3,0-0.4
				c0-0.1,0-0.2,0-0.4c0.3,0,0.7,0,1.4,0.1l3.4,0.1l2,0l0.6,0c0.1,0,0.3,0,0.6,0c0.9,0,1.4,0,1.5,0l1.8-0.1c1.2,0,2,0,2.5,0.1
				c0,0.3-0.1,0.6-0.2,0.9c-0.2,0-0.9,0.1-2.3,0.1c-1.4,0.1-2.2,0.1-2.4,0.3c-0.3,0.2-0.5,0.8-0.5,1.8c0,0.2,0,0.7,0,1.4v1.3l0,4.1
				v1.4l0,7.4l-0.1,6.3l0,1.4c0,0.4,0.1,0.7,0.2,0.8c0.4,0,1.5,0,3.3,0h1.5l3.8-0.1c1,0,1.7-0.1,2.2-0.3c0.4-0.2,1.1-0.7,2.2-1.5
				c0.6-0.5,1.1-1.1,1.4-1.6c0.1-0.1,0.2-0.3,0.4-0.5c0.3-0.4,0.7-1.2,1.1-2.3h0.7c-0.1,0.5-0.2,1-0.3,1.5c-0.4,2.1-0.7,3.8-0.9,5.2
				c0,0.3-0.1,0.6-0.1,0.8l-8.3-0.2c-7.1,0-11.4,0.1-12.7,0.2c-0.4,0-0.9,0-1.3,0H444.4z"/>
		</g>
		<g class="st0">
			<path d="M471.9,131c0.1-0.1,0.3-0.2,0.4-0.2c0.3-0.1,0.7-0.1,1.3-0.2c1.4-0.1,2.3-0.2,2.7-0.4c0.2-0.3,0.3-0.7,0.3-1.2l0-1.6
				l0-5.7l0-2.7l0-5.6l-0.1-6.3c0-1.5-0.1-2.4-0.3-2.6c-0.3-0.3-1.1-0.4-2.4-0.5c-0.6,0-1.1-0.1-1.5-0.1c-0.2-0.1-0.3-0.2-0.3-0.4
				c0-0.1,0-0.3,0.1-0.4c0.1-0.1,0.3-0.1,0.4-0.1c0.2,0,0.5,0,0.8,0c0.9,0.1,1.8,0.1,2.7,0.1l1.6,0l3.9,0.1c2,0,3.5,0,4.6-0.1
				s1.8-0.1,2.2-0.1c0.3,0,1.2,0,2.5,0.1l3.2,0l0.4,0.1l1.8-0.1l0.2,0.1c0.1,0.1,0.1,0.2,0.2,0.4c0,0.2,0,0.5-0.1,1
				c-0.1,0.4-0.1,0.7-0.1,0.8c0,1.5,0.1,2.8,0.2,3.9c0,0.1-0.1,0.1-0.1,0.2c-0.2,0-0.3,0-0.4-0.1c-0.2-0.3-0.4-0.8-0.7-1.5
				c-0.3-0.7-0.7-1.5-1.2-2.5c-0.4-0.6-0.7-1-0.9-1.1c-0.2-0.1-0.6-0.2-1.3-0.2c-0.1,0-0.8,0-2,0c-0.3,0-0.6,0-1,0l-6.3,0.1H482
				c-0.8,0-1.3,0.1-1.5,0.3c-0.3,0.4-0.4,1.4-0.4,3.1c0,0.2,0,2,0.1,5.3v3.1c0.2,0,0.3,0.1,0.5,0.1h0.4c0.3,0,0.6,0,1.1,0
				c0.8,0,1.3,0,1.6,0c0.2,0,0.3,0,0.5,0c1.6-0.1,3.7-0.1,6.2-0.1c0.8-0.1,1.2-0.3,1.4-0.5c0.2-0.3,0.4-1,0.5-2.1s0.4-1.8,0.7-1.9
				c0.2,0,0.4,0,0.5,0.1c0,0.1,0,0.2,0,0.3c0,0.1,0,0.3,0,0.5c-0.1,0.5-0.1,2.3-0.1,5.2c0,0.8,0,1.6,0.1,2.6
				c0.1,0.9,0.1,1.5,0.1,1.5c0,0.1,0,0.3-0.1,0.5c-0.1,0.1-0.2,0.1-0.3,0.1h-0.2c-0.2-0.4-0.5-1.1-0.7-1.9c-0.4-1.5-0.8-2.4-1.2-2.8
				c-0.4-0.4-1.1-0.6-2.1-0.6c-0.2,0-0.6,0-1.1,0c-0.5,0-1.4,0-2.4,0h-1.4c-2.1,0-3.4,0-4,0.1l0,0.7l0,4.1l0,2.6l0,2.5
				c0,1.5,0.1,2.4,0.3,2.6c0.3,0.3,0.8,0.5,1.6,0.5l1.4,0c0.1,0,0.6,0,1.4,0c0.8,0,1.8,0,3,0c2.9,0,4.8-0.1,5.7-0.4s1.7-0.7,2.3-1.3
				c0.6-0.6,1.4-2,2.3-4c0.3-0.6,0.6-0.9,0.8-0.9c0.1,0,0.3,0.1,0.4,0.2c-0.4,1.5-0.7,2.4-0.7,2.9c-0.2,1-0.3,2.1-0.3,3.2
				c0,0.5-0.1,0.9-0.4,1.2h-0.5l-6.2,0.1l-2.8,0l-6.7,0.1h-2.7c-0.3,0-0.7,0-1,0c-2.7,0.1-4.6,0.2-5.9,0.2c-0.2,0-0.4,0-0.5-0.1
				c-0.1-0.1-0.1-0.2-0.1-0.3L471.9,131z"/>
		</g>
	</g>
</g>
</svg>
