<?xml version="1.0" encoding="utf-8"?>
<!-- Generator: Adobe Illustrator 19.2.0, SVG Export Plug-In . SVG Version: 6.00 Build 0)  -->
<svg version="1.1" id="Layer_1" xmlns="http://www.w3.org/2000/svg" xmlns:xlink="http://www.w3.org/1999/xlink" x="0px" y="0px"
	 viewBox="0 0 500 200" style="enable-background:new 0 0 500 200;" xml:space="preserve">
<style type="text/css">
	.st0{enable-background:new    ;}
	.st1{fill:#010101;}
	.st2{fill:none;}
</style>
<g class="st0">
	<path class="st1" d="M94.4,142.4h31.2c7.4,0,14.5,0.9,20.2,4.7c7,4.6,11.6,12.7,11.6,22.9c0,9.9-3.7,17.3-8.9,21.8
		c-4.8,4.1-12.6,6.8-24,6.8h-30V142.4z M110.7,187.6h7.4c13.2,0,22.5-2,22.5-17.4c0-13.2-7.7-16.9-19.7-16.9h-10.1V187.6z"/>
</g>
<g class="st0">
	<path class="st1" d="M223.9,172.8c0,19.4-10.8,27.1-30.3,27.1c-19.6,0-30.4-7.1-30.4-25v-32.6h16.3v31.5c0,10.1,5.1,14.6,14.1,14.6
		c10.7,0,14-6.8,14-16.6v-29.5h16.3V172.8z"/>
</g>
<g class="st0">
	<path class="st1" d="M231.7,142.4h33c14.9,0,20.9,6.7,20.9,13.8c0,6.4-4.7,11.3-11.9,13.1v0.2c8.7,0.8,14.3,6.1,14.3,13.3
		c0,7.6-5.4,15.7-23.2,15.7h-33.1V142.4z M247.5,165.3h10.2c7,0,11.1-1.9,11.1-6.3c0-4.7-3.5-6.2-9.8-6.2h-11.5V165.3z M247.5,188.1
		h14.6c5.1,0,9.1-1.4,9.1-6.4c0-4.7-4.3-6.5-8.3-6.5h-15.4V188.1z"/>
</g>
<g class="st0">
	<path class="st1" d="M317.6,142.4h19.5l29.1,56.1H348l-5.3-11.1h-32.6l-5.4,11.1h-16.8L317.6,142.4z M326.6,153.2L315.1,177h22.6
		L326.6,153.2z"/>
</g>
<g class="st0">
	<path class="st1" d="M371.3,142.4h16.3v56.1h-16.3V142.4z"/>
</g>
<g>
	<circle class="st2" cx="285.8" cy="38.3" r="38.3"/>
</g>
<g>
	<path class="st1" d="M248.1,46.1l-121.3,63.2c-40,19.7-56.3-28.1-31.3-43c0.2,0.7,0.7,0.8,0,1.4c-13.9,9.8-2,27.6,18.8,16.8
		L268.5,3.7C247.5,16.1,246.1,34.2,248.1,46.1z"/>
</g>
<g>
	<path class="st1" d="M234.2,109.8l71.5-37.5c29.8-17.1,19.5-57.3-3.1-68.5c2.5,1.4,32,19.5,0.2,38.5l-114.6,59.3
		c-0.3,0.2-0.2,0.5,0.2,0.5C209.7,97.9,224.6,102.7,234.2,109.8z"/>
</g>
<g>
	<path class="st1" d="M94.6,67.1l53.5-27.8c2.9-1.5,6.3-1.5,9.2,0l11,5.3L138.5,60l-8.3-3.7c-3.6-1.9-8-2-11.5-0.2L92.6,69.3
		L94.6,67.1z"/>
</g>
<g>
	<path class="st1" d="M307.1,81.7l30.3-16.1c2.9-1.5,6.3-1.5,9-0.3l44.1,35.6l-3.4,9.7l-32.5,0.7L319.1,82
		c-2.9-1.9-7.6-1.5-11.4,0.2L307.1,81.7z"/>
</g>
<g>
	<path class="st1" d="M227.6,112.2H389c4.4,0,8.3-5.6,3.1-10.2l-7.3-5.9l-34.2,11c2.2,2,2.7,3.7,0,3.7H224.8L227.6,112.2z"/>
</g>
<g>
	<path class="st1" d="M352,112c-0.2,0.2-0.5,0.2-0.7,0.2H190.5c-4.2,0-8.1-5.3-3.6-9.7c0.3-0.3,0.8-0.5,1.2-0.8l9.8-4.9
		c0.3-0.2,0.7-0.2,1-0.2l40.5,5.8c1.2,0.2-1.2,5.4-2.2,6.1c-1.7,0.8-1.5,2.4-0.5,2.4l117.9,0.2L352,112z"/>
</g>
<g>
	<path class="st1" d="M274.9,99.1c0.2-0.2,0.3-0.3,0.5-0.5l56.8-30.3c3.7-2-11.5,11.2-11,10.3c1-1.7,0.2-2.9-0.7-2.4l-47.3,24.9
		L274.9,99.1z"/>
</g>
</svg>
