<?xml version="1.0" encoding="utf-8"?>
<!-- Generator: Adobe Illustrator 19.2.0, SVG Export Plug-In . SVG Version: 6.00 Build 0)  -->
<svg version="1.1" id="Layer_1" xmlns="http://www.w3.org/2000/svg" xmlns:xlink="http://www.w3.org/1999/xlink" x="0px" y="0px"
	 viewBox="0 0 500 200" style="enable-background:new 0 0 500 200;" xml:space="preserve">
<style type="text/css">
	.st0{enable-background:new    ;}
	.st1{fill:#00AEC0;}
	.st2{fill:none;}
	.st3{fill:#EFE30C;}
	.st4{fill:#C0A32F;}
</style>
<g id="Layer_1_1_">
</g>
<g id="Layer_2">
	<g>
		<g>
			<g class="st0">
				<path class="st1" d="M112.6,132.1h29.2c6.9,0,13.6,0.9,18.9,4.4c6.5,4.3,10.8,11.9,10.8,21.4c0,9.2-3.4,16.2-8.4,20.4
					c-4.5,3.9-11.8,6.3-22.5,6.3h-28.1V132.1z M127.9,174.5h6.9c12.4,0,21-1.9,21-16.3c0-12.4-7.2-15.9-18.5-15.9h-9.5V174.5z"/>
			</g>
			<g class="st0">
				<path class="st1" d="M233.8,160.6c0,18.2-10.1,25.4-28.4,25.4c-18.3,0-28.4-6.6-28.4-23.3v-30.6h15.3v29.5
					c0,9.5,4.7,13.7,13.2,13.7c10,0,13.1-6.3,13.1-15.6v-27.6h15.3V160.6z"/>
			</g>
			<g class="st0">
				<path class="st1" d="M241.1,132.1H272c14,0,19.6,6.3,19.6,12.9c0,6-4.4,10.6-11.1,12.3v0.1c8.1,0.7,13.4,5.7,13.4,12.4
					c0,7.1-5.1,14.7-21.7,14.7h-31V132.1z M256,153.6h9.5c6.5,0,10.4-1.8,10.4-5.9c0-4.4-3.3-5.8-9.2-5.8H256V153.6z M256,174.9
					h13.7c4.8,0,8.5-1.3,8.5-6c0-4.4-4-6-7.8-6H256V174.9z"/>
			</g>
			<g class="st0">
				<path class="st1" d="M321.5,132.1h18.3l27.3,52.5H350l-4.9-10.4h-30.5l-5.1,10.4h-15.7L321.5,132.1z M330,142.3l-10.8,22.2h21.2
					L330,142.3z"/>
			</g>
			<g class="st0">
				<path class="st1" d="M371.8,132.1H387v52.5h-15.3V132.1z"/>
			</g>
		</g>
		<g>
			<circle class="st2" cx="294.5" cy="35.9" r="35.9"/>
		</g>
		<g>
			<path class="st3" d="M259.4,43.3l-113.5,59.2c-37.4,18.5-52.8-26.2-29.5-40c0.1,0.7,0.8,0.6,0.2,1c-13.1,9.2-1.8,25.8,17.6,15.7
				L278.6,3.7C258.6,15.1,257.4,32.2,259.4,43.3z"/>
		</g>
		<g>
			<path class="st4" d="M244.8,102.9l66.9-35.1c27.9-16,18.2-53.5-2.9-64.1c2.4,1.2,30,18.3,0.2,36L201.8,95.2
				c-0.3,0.1-0.1,0.5,0.2,0.5C221.8,91.7,235.7,96.2,244.8,102.9z"/>
		</g>
		<g>
			<path class="st4" d="M116.2,62.6c0.6-0.3,49.5-25.7,49.5-25.7c2.7-1.4,5.9-1.4,8.6,0l7.2,3.5c1.3,0.6,1.3,2.5,0,3.1l-24,12.5
				c-0.5,0.2-1,0.3-1.5,0l-7-3.2c-3.3-1.8-7.4-1.9-10.8-0.2L115.9,64c-0.1,0.1-0.2,0.1-0.3,0.2c-0.4,0.3-1.4,1.1-2.2,2.1
				C115,63.7,115.2,63.3,116.2,62.6z"/>
		</g>
		<g>
			<path class="st3" d="M313,76.5l28.3-15c2.7-1.4,5.8-1.5,8.4-0.3L391,94.6l-3.1,9l-30.4,0.7L324.3,77c-2.7-1.8-7.2-1.5-10.6,0.2
				L313,76.5z"/>
		</g>
		<g>
			<path class="st3" d="M238.5,105.1l150.9,0.1c4.1,0,7.8-5.2,2.9-9.6l-6.8-5.5l-32,10.4c2.1,1.9,2.5,3.5,0,3.5H235.9L238.5,105.1z"
				/>
		</g>
		<g>
			<path class="st4" d="M354.8,103.7c-0.4,0.7-4.8,1.5-5.1,1.5h-146c-3.9,0-7.6-4.9-3.3-9.1c0.4-0.3,0.7-0.5,1.1-0.8l9.2-4.6
				c0.3-0.2,0.6-0.2,1-0.2l37.9,5.3c1.1,0.1-1.2,5.1-2.1,5.6c-1.6,0.9-1.5,2.3-0.4,2.3l106.8,0.2C353.7,104,354.5,103.9,354.8,103.7
				z"/>
		</g>
		<g>
			<path class="st3" d="M282.8,92.8c0.1-0.2,0.3-0.3,0.5-0.4l53.1-28.3c3.4-1.8-10.8,10.5-10.2,9.6c1-1.5,0.2-2.7-0.7-2.2
				l-44.3,23.3L282.8,92.8z"/>
		</g>
	</g>
</g>
</svg>
