<?xml version="1.0" encoding="utf-8"?>
<!-- Generator: Adobe Illustrator 19.2.0, SVG Export Plug-In . SVG Version: 6.00 Build 0)  -->
<svg version="1.1" id="Layer_1" xmlns="http://www.w3.org/2000/svg" xmlns:xlink="http://www.w3.org/1999/xlink" x="0px" y="0px"
	 viewBox="0 0 2500 1000" style="enable-background:new 0 0 2500 1000;" xml:space="preserve">
<style type="text/css">
	.st0{enable-background:new    ;}
	.st1{fill:#010101;}
	.st2{fill:none;}
</style>
<g>
	<g class="st0">
		<path class="st1" d="M996.7,574.3h54.6c13,0,25.4,1.6,35.4,8.2c12.3,8.1,20.3,22.2,20.3,40.1c0,17.3-6.5,30.3-15.6,38.2
			c-8.4,7.2-22.1,11.9-42,11.9h-52.5v-98.4H996.7z M1025.2,653.5h13c23.1,0,39.4-3.5,39.4-30.5c0-23.1-13.5-29.6-34.5-29.6h-17.7
			v60.1H1025.2z"/>
	</g>
	<g class="st0">
		<path class="st1" d="M1223.4,627.6c0,34-18.9,47.4-53.1,47.4c-34.3,0-53.2-12.4-53.2-43.8v-57.1h28.5v55.2
			c0,17.7,8.9,25.6,24.7,25.6c18.7,0,24.5-11.9,24.5-29.1v-51.7h28.5V627.6L1223.4,627.6z"/>
	</g>
	<g class="st0">
		<path class="st1" d="M1237,574.3h57.8c26.1,0,36.6,11.7,36.6,24.2c0,11.2-8.2,19.8-20.8,22.9v0.4c15.2,1.4,25,10.7,25,23.3
			c0,13.3-9.5,27.5-40.6,27.5h-58V574.3L1237,574.3z M1264.7,614.4h17.9c12.3,0,19.4-3.3,19.4-11c0-8.2-6.1-10.9-17.2-10.9h-20.1
			L1264.7,614.4L1264.7,614.4z M1264.7,654.3h25.6c8.9,0,15.9-2.5,15.9-11.2c0-8.2-7.5-11.4-14.5-11.4h-27L1264.7,654.3
			L1264.7,654.3z"/>
	</g>
	<g class="st0">
		<path class="st1" d="M1387.4,574.3h34.1l51,98.2h-31.9l-9.3-19.4h-57.1l-9.5,19.4h-29.4L1387.4,574.3z M1403.2,593.2l-20.1,41.7
			h39.6L1403.2,593.2z"/>
	</g>
	<g class="st0">
		<path class="st1" d="M1481.5,574.3h28.5v98.2h-28.5V574.3z"/>
	</g>
	<g>
		<circle class="st2" cx="1331.8" cy="392.1" r="67.1"/>
	</g>
	<g>
		<path class="st1" d="M1265.8,405.7l-212.4,110.7c-70,34.5-98.6-49.2-54.8-75.3c0.4,1.2,1.2,1.4,0,2.5
			c-24.3,17.2-3.5,48.3,32.9,29.4l270-141.5C1264.7,353.2,1262.3,384.9,1265.8,405.7z"/>
	</g>
	<g>
		<path class="st1" d="M1241.4,517.2l125.2-65.7c52.2-29.9,34.1-100.3-5.4-119.9c4.4,2.5,56,34.1,0.4,67.4l-200.7,103.8
			c-0.5,0.4-0.4,0.9,0.4,0.9C1198.5,496.4,1224.6,504.8,1241.4,517.2z"/>
	</g>
	<g>
		<path class="st1" d="M997,442.5l93.7-48.7c5.1-2.6,11-2.6,16.1,0l19.3,9.3l-52.2,27l-14.5-6.5c-6.3-3.3-14-3.5-20.1-0.4
			l-45.7,23.1L997,442.5z"/>
	</g>
	<g>
		<path class="st1" d="M1369.1,468l53.1-28.2c5.1-2.6,11-2.6,15.8-0.5l77.2,62.3l-6,17l-56.9,1.2l-62.2-51.3
			c-5.1-3.3-13.3-2.6-20,0.4L1369.1,468z"/>
	</g>
	<g>
		<path class="st1" d="M1229.9,521.4h282.6c7.7,0,14.5-9.8,5.4-17.9l-12.8-10.3l-59.9,19.3c3.9,3.5,4.7,6.5,0,6.5H1225L1229.9,521.4
			z"/>
	</g>
	<g>
		<path class="st1" d="M1447.7,521.1c-0.4,0.4-0.9,0.4-1.2,0.4h-281.5c-7.4,0-14.2-9.3-6.3-17c0.5-0.5,1.4-0.9,2.1-1.4l17.2-8.6
			c0.5-0.4,1.2-0.4,1.8-0.4l70.9,10.2c2.1,0.4-2.1,9.5-3.9,10.7c-3,1.4-2.6,4.2-0.9,4.2l206.4,0.4L1447.7,521.1z"/>
	</g>
	<g>
		<path class="st1" d="M1312.7,498.5c0.4-0.4,0.5-0.5,0.9-0.9l99.4-53.1c6.5-3.5-20.1,19.6-19.3,18c1.8-3,0.4-5.1-1.2-4.2
			l-82.8,43.6L1312.7,498.5z"/>
	</g>
</g>
</svg>
