<?xml version="1.0" encoding="utf-8"?>
<!-- Generator: Adobe Illustrator 19.2.0, SVG Export Plug-In . SVG Version: 6.00 Build 0)  -->
<svg version="1.1" id="Layer_1" xmlns="http://www.w3.org/2000/svg" xmlns:xlink="http://www.w3.org/1999/xlink" x="0px" y="0px"
	 viewBox="0 0 2500 1000" style="enable-background:new 0 0 2500 1000;" xml:space="preserve">
<style type="text/css">
	.st0{display:none;}
	.st1{display:inline;}
	.st2{fill:#00A651;}
	.st3{display:inline;fill:#00AEEF;}
</style>
<g id="Layer_2">
</g>
<g id="Layer_3">
</g>
<g id="Layer_4" class="st0">
	<g class="st1">
		<path class="st2" d="M375.7,320v360h-216V320H375.7 M376.7,319h-1h-216h-1v1v360v1h1h216h1v-1V320V319L376.7,319z"/>
	</g>
	<polygon class="st3" points="159.7,467.4 206.8,515.1 159.7,515.1 	"/>
</g>
<g id="Layer_6">
	<g>
		<path d="M1476.2,371.3l-45.8-46.3h-117.8l-46.5,45.8v257.8l0,0l0,0l0,0l0,0l45.6,46.3h117.8l46.5-45.8V372h-1.6L1476.2,371.3z
			 M1412.4,388.7v222.7h-82.7V388.7H1412.4z"/>
		<polygon points="1233.8,514.9 1233.8,499.5 1188.1,453 1155.7,453 1087.7,453 1087.7,437.9 1051.2,437.9 1023.8,352.4 
			1023.8,470.3 1023.8,470.3 1069.6,516.7 1091.4,516.7 1170.2,516.9 1170.2,612 1087.6,612 1087.6,596.4 1023.8,596.4 
			1023.8,628.7 1069.6,675 1187.6,675 1233.9,629.4 		"/>
		<polygon points="1254.5,325 1121.6,325 1121.6,325 1090.2,325 1072.8,383.1 1056,325 1023.8,325 1057.4,430 1087.9,430 
			1109,364.1 1214.6,364.1 		"/>
	</g>
</g>
<g id="Layer_5" class="st0">
</g>
</svg>
