<?xml version="1.0" encoding="utf-8"?>
<!-- Generator: Adobe Illustrator 19.2.0, SVG Export Plug-In . SVG Version: 6.00 Build 0)  -->
<svg version="1.1" xmlns="http://www.w3.org/2000/svg" xmlns:xlink="http://www.w3.org/1999/xlink" x="0px" y="0px"
	 viewBox="0 0 258.8 200" style="enable-background:new 0 0 258.8 200;" xml:space="preserve">
<style type="text/css">
	.st0{display:none;}
	.st1{display:inline;fill:#00A651;}
	.st2{display:inline;}
	.st3{fill:#00AEEF;}
	.st4{display:inline;fill:#FFFFFF;}
</style>
<g id="Layer_2">
</g>
<g id="Layer_3">
</g>
<g id="Layer_4" class="st0">
	<g>
		<path class="st1" d="M375.7-80v360h-216V-80H375.7 M376.7-81h-1h-216h-1v1v360v1h1h216h1v-1V-80V-81L376.7-81z"/>
	</g>
	<polygon class="st3" points="159.7,67.4 206.8,115.1 159.7,115.1 	"/>
</g>
<g id="Layer_6">
	<g>
		<path d="M257.7,26.7L231.6,0.3l-67.1,0l-26.5,26.1l0,146.9l0,0l0,0v0l0,0l26,26.4h67.1l26.5-26.1V27.1l-0.9,0L257.7,26.7z
			 M221.4,36.6v126.9h-47.1V36.6H221.4z"/>
		<polygon points="119.6,108.5 119.6,99.7 93.6,73.2 75.1,73.2 36.4,73.2 36.4,64.6 15.6,64.6 0,15.9 0,83.1 0,83.1 26.1,109.5 
			38.5,109.5 83.4,109.6 83.4,163.8 36.3,163.8 36.3,154.9 0,154.9 0,173.3 26.1,199.7 93.3,199.7 119.7,173.7 		"/>
		<polygon points="131.4,0.3 55.7,0.3 55.7,0.3 37.8,0.3 27.9,33.4 18.3,0.3 0,0.3 19.1,60.1 36.5,60.1 48.5,22.6 108.7,22.6 		"/>
	</g>
</g>
<g id="Layer_5" class="st0">
</g>
</svg>
